SplineFontDB: 3.0
FontName: AnnieUseYourTelescope
FullName: Annie Use Your Telescope
FamilyName: Annie Use Your Telescope
Weight: Book
Copyright: Copyright (c) 2010, Kimberly Geswein (kimberlygeswein.com)
Version: 1.002 2001
ItalicAngle: 0
UnderlinePosition: -52
UnderlineWidth: 51
Ascent: 819
Descent: 205
sfntRevision: 0x00010083
LayerCount: 2
Layer: 0 1 "Back"  1
Layer: 1 1 "Fore"  0
XUID: [1021 496 529952750 9519674]
FSType: 0
OS2Version: 3
OS2_WeightWidthSlopeOnly: 0
OS2_UseTypoMetrics: 1
CreationTime: 1297177536
ModificationTime: 1299377657
PfmFamily: 17
TTFWeight: 400
TTFWidth: 5
LineGap: 0
VLineGap: 0
Panose: 2 0 0 0 0 0 0 0 0 0
OS2TypoAscent: 1169
OS2TypoAOffset: 0
OS2TypoDescent: -417
OS2TypoDOffset: 0
OS2TypoLinegap: 0
OS2WinAscent: 1169
OS2WinAOffset: 0
OS2WinDescent: 417
OS2WinDOffset: 0
HheadAscent: 1169
HheadAOffset: 0
HheadDescent: -417
HheadDOffset: 0
OS2SubXSize: 717
OS2SubYSize: 666
OS2SubXOff: 0
OS2SubYOff: 143
OS2SupXSize: 717
OS2SupYSize: 666
OS2SupXOff: 0
OS2SupYOff: 488
OS2StrikeYSize: 51
OS2StrikeYPos: 256
OS2Vendor: '    '
OS2CodePages: 00000093.00000000
OS2UnicodeRanges: a000002f.5000004a.00000000.00000000
MarkAttachClasses: 1
DEI: 91125
TtTable: prep
PUSHW_1
 0
CALL
SVTCA[y-axis]
PUSHW_3
 1
 4
 7
CALL
PUSHW_1
 0
DUP
RCVT
RDTG
ROUND[Black]
RTG
WCVTP
EndTTInstrs
TtTable: fpgm
PUSHW_1
 0
FDEF
MPPEM
PUSHW_1
 9
LT
IF
PUSHB_2
 1
 1
INSTCTRL
EIF
PUSHW_1
 511
SCANCTRL
PUSHW_1
 68
SCVTCI
PUSHW_2
 9
 3
SDS
SDB
ENDF
PUSHW_1
 1
FDEF
DUP
DUP
RCVT
ROUND[Black]
WCVTP
PUSHB_1
 1
ADD
ENDF
PUSHW_1
 2
FDEF
PUSHW_1
 1
LOOPCALL
POP
ENDF
PUSHW_1
 3
FDEF
DUP
GC[cur]
PUSHB_1
 3
CINDEX
GC[cur]
GT
IF
SWAP
EIF
DUP
ROLL
DUP
ROLL
MD[grid]
ABS
ROLL
DUP
GC[cur]
DUP
ROUND[Grey]
SUB
ABS
PUSHB_1
 4
CINDEX
GC[cur]
DUP
ROUND[Grey]
SUB
ABS
GT
IF
SWAP
NEG
ROLL
EIF
MDAP[rnd]
DUP
PUSHB_1
 0
GTEQ
IF
ROUND[Black]
DUP
PUSHB_1
 0
EQ
IF
POP
PUSHB_1
 64
EIF
ELSE
ROUND[Black]
DUP
PUSHB_1
 0
EQ
IF
POP
PUSHB_1
 64
NEG
EIF
EIF
MSIRP[no-rp0]
ENDF
PUSHW_1
 4
FDEF
DUP
GC[cur]
PUSHB_1
 4

StartChar: exclam
Encoding: 33 33 4
Width: 185
VWidth: 879
Flags: HW
LayerCount: 2
Fore
SplineSet
129 110 m 1,0,1
 105 124 105 124 96 141.5 c 128,-1,2
 87 159 87 159 88.5 174.5 c 128,-1,3
 90 190 90 190 99.5 201 c 128,-1,4
 109 212 109 212 122.5 214 c 128,-1,5
 136 216 136 216 151.5 206 c 128,-1,6
 167 196 167 196 179 170 c 1,7,8
 179 160 179 160 175 149.5 c 128,-1,9
 171 139 171 139 165 130.5 c 128,-1,10
 159 122 159 122 149.5 116 c 128,-1,11
 140 110 140 110 129 110 c 1,0,1
138 170 m 0,12,13
 134 171 134 171 131.5 167.5 c 128,-1,14
 129 164 129 164 129 159.5 c 128,-1,15
 129 155 129 155 131 151.5 c 128,-1,16
 133 148 133 148 138 150 c 0,17,18
 147 152 147 152 147 160 c 128,-1,19
 147 168 147 168 138 170 c 0,12,13
40 762 m 0,20,21
 40 771 40 771 42 774.5 c 128,-1,22
 44 778 44 778 48.5 778.5 c 128,-1,23
 53 779 53 779 61 779.5 c 128,-1,24
 69 780 69 780 81 784 c 1,25,-1
 138 323 l 1,26,27
 136 321 136 321 128.5 319.5 c 128,-1,28
 121 318 121 318 119 318 c 0,29,30
 106 318 106 318 99.5 322.5 c 128,-1,31
 93 327 93 327 89.5 335.5 c 128,-1,32
 86 344 86 344 84.5 355.5 c 128,-1,33
 83 367 83 367 81 380 c 0,34,35
 80 384 80 384 77.5 405.5 c 128,-1,36
 75 427 75 427 71.5 458 c 128,-1,37
 68 489 68 489 64 526.5 c 128,-1,38
 60 564 60 564 55.5 601 c 128,-1,39
 51 638 51 638 47.5 671 c 128,-1,40
 44 704 44 704 42 726 c 1,41,42
 41.5 731.5 l 0,43,44
 41 737 41 737 41 743.5 c 128,-1,45
 41 750 41 750 40.5 755.5 c 128,-1,46
 40 761 40 761 40 762 c 0,20,21
EndSplineSet
EndChar

StartChar: quotedbl
Encoding: 34 34 5
Width: 251
VWidth: 973
Flags: HW
LayerCount: 2
Fore
SplineSet
168 838 m 0,0,1
 168 846 168 846 168.5 857 c 128,-1,2
 169 868 169 868 172 878 c 128,-1,3
 175 888 175 888 182 895 c 128,-1,4
 189 902 189 902 202 902 c 1,5,6
 202 896 202 896 203 881.5 c 128,-1,7
 204 867 204 867 204.5 851 c 128,-1,8
 205 835 205 835 206 820.5 c 128,-1,9
 207 806 207 806 208 801 c 0,10,11
 208 799 208 799 211 790.5 c 128,-1,12
 214 782 214 782 217.5 772.5 c 128,-1,13
 221 763 221 763 224 754.5 c 128,-1,14
 227 746 227 746 227 743 c 256,15,16
 227 741 227 741 225 738 c 128,-1,17
 223 735 223 735 220 731.5 c 128,-1,18
 217 728 217 728 213.5 726 c 128,-1,19
 210 724 210 724 208 724 c 1,20,21
 194 740 194 740 186 753.5 c 128,-1,22
 178 767 178 767 174 780.5 c 128,-1,23
 170 794 170 794 169 807 c 128,-1,24
 168 820 168 820 168 838 c 0,0,1
54 810 m 0,25,26
 54 823 54 823 56 841.5 c 128,-1,27
 58 860 58 860 64 878 c 128,-1,28
 70 896 70 896 81.5 908 c 128,-1,29
 93 920 93 920 112 920 c 1,30,-1
 112 751 l 1,31,32
 85 751 85 751 69.5 767.5 c 128,-1,33
 54 784 54 784 54 810 c 0,25,26
EndSplineSet
EndChar

StartChar: numbersign
Encoding: 35 35 6
Width: 641
VWidth: 868
Flags: HW
LayerCount: 2
Fore
SplineSet
306 268 m 1,0,1
 297 242 297 242 296 219.5 c 128,-1,2
 295 197 295 197 296.5 179.5 c 128,-1,3
 298 162 298 162 300 149.5 c 128,-1,4
 302 137 302 137 298 131.5 c 128,-1,5
 294 126 294 126 282 127.5 c 0,6,7
 270 128 270 128 244 138 c 1,8,-1
 244 254 l 1,9,-1
 119 254 l 1,10,11
 125 266 125 266 143.5 276.5 c 128,-1,12
 162 287 162 287 182 295 c 128,-1,13
 202 303 202 303 218 307.5 c 0,14,-1
 234 312 l 0,15,16
 238 333 238 333 238 354 c 128,-1,17
 238 375 238 375 238 393.5 c 128,-1,18
 238 412 238 412 238.5 425.5 c 128,-1,19
 239 439 239 439 245 446 c 1,20,-1
 100 446 l 1,21,-1
 100 465 l 1,22,-1
 282 504 l 1,23,-1
 282 682 l 1,24,25
 288 680 288 680 294 680 c 1,26,27
 298 678 298 678 302.5 678 c 128,-1,28
 307 678 307 678 311 676 c 0,29,30
 313 675 313 675 316.5 672.5 c 128,-1,31
 320 670 320 670 323 667 c 128,-1,32
 326 664 326 664 328 661 c 128,-1,33
 330 658 330 658 330 657 c 2,34,-1
 330 522 l 1,35,-1
 417 522 l 1,36,-1
 417 676 l 1,37,-1
 445 676 l 1,38,-1
 463 546 l 1,39,-1
 618 542 l 1,40,41
 617 540 617 540 614.5 535.5 c 128,-1,42
 612 531 612 531 608.5 525.5 c 128,-1,43
 605 520 605 520 601.5 515.5 c 0,44,45
 598 510 598 510 597 510 c 0,46,47
 589 508 589 508 570.5 504.5 c 128,-1,48
 552 501 552 501 531 496.5 c 128,-1,49
 510 492 510 492 491 489 c 128,-1,50
 472 486 472 486 465 484 c 1,51,-1
 465 369 l 1,52,-1
 618 369 l 1,53,-1
 618 350 l 1,54,55
 609 348 609 348 587 343 c 128,-1,56
 565 338 565 338 540.5 331.5 c 128,-1,57
 516 325 516 325 494.5 319.5 c 128,-1,58
 473 314 473 314 465 312 c 0,59,60
 461 310 461 310 456 307.5 c 128,-1,61
 451 305 451 305 446.5 302 c 128,-1,62
 442 299 442 299 439 296 c 128,-1,63
 436 293 436 293 436 292 c 2,64,-1
 436 120 l 1,65,-1
 398 120 l 1,66,-1
 398 273 l 1,67,-1
 390 272.5 l 0,68,69
 382 272 382 272 370 271.5 c 128,-1,70
 358 271 358 271 344.5 270.5 c 128,-1,71
 331 270 331 270 321 269 c 128,-1,72
 311 268 311 268 306 268 c 128,-1,73
 301 268 301 268 306 268 c 1,0,1
407 480 m 1,74,75
 367 480 367 480 345.5 469 c 128,-1,76
 324 458 324 458 315 438 c 128,-1,77
 306 418 306 418 305 389 c 128,-1,78
 304 360 304 360 304 325 c 1,79,80
 307 325 307 325 316.5 326 c 128,-1,81
 326 327 326 327 336.5 327.5 c 128,-1,82
 347 328 347 328 356 329 c 128,-1,83
 365 330 365 330 369 330 c 0,84,85
 373 331 373 331 379.5 333.5 c 128,-1,86
 386 336 386 336 392 339.5 c 128,-1,87
 398 343 398 343 402.5 345.5 c 128,-1,88
 407 348 407 348 407 350 c 2,89,-1
 407 480 l 1,74,75
EndSplineSet
EndChar

StartChar: dollar
Encoding: 36 36 7
Width: 559
VWidth: 877
Flags: HW
LayerCount: 2
Fore
SplineSet
346 135 m 1,0,1
 318 137 318 137 279.5 138.5 c 128,-1,2
 241 140 241 140 204 147 c 128,-1,3
 167 154 167 154 134.5 169 c 128,-1,4
 102 184 102 184 86 211 c 1,5,-1
 106 231 l 1,6,7
 133 205 133 205 159 197.5 c 128,-1,8
 185 190 185 190 212 191.5 c 128,-1,9
 239 193 239 193 268.5 198.5 c 128,-1,10
 298 204 298 204 334 204 c 1,11,12
 334 207 334 207 334 213.5 c 128,-1,13
 334 220 334 220 335 227 c 128,-1,14
 336 234 336 234 336 240 c 128,-1,15
 336 246 336 246 336 250 c 0,16,17
 335 260 335 260 332.5 284.5 c 128,-1,18
 330 309 330 309 327 336.5 c 128,-1,19
 324 364 324 364 321 388.5 c 128,-1,20
 318 413 318 413 316 423 c 0,21,22
 314 439 314 439 299 443.5 c 128,-1,23
 284 448 284 448 262.5 449 c 128,-1,24
 241 450 241 450 216.5 450 c 128,-1,25
 192 450 192 450 171.5 456.5 c 128,-1,26
 151 463 151 463 137.5 479.5 c 128,-1,27
 124 496 124 496 124 528 c 0,28,29
 124 568 124 568 139.5 595.5 c 128,-1,30
 155 623 155 623 177.5 644 c 128,-1,31
 200 665 200 665 225.5 683 c 128,-1,32
 251 701 251 701 269.5 722.5 c 128,-1,33
 288 744 288 744 297 772.5 c 128,-1,34
 306 801 306 801 294 843 c 1,35,36
 313 855 313 855 318.5 855 c 132,-1,37
 324 855 324 855 325.5 842.5 c 128,-1,38
 327 830 327 830 329.5 805 c 128,-1,39
 332 780 332 780 346 742 c 1,40,41
 358 736 358 736 379 728 c 128,-1,42
 400 720 400 720 421 711 c 128,-1,43
 442 702 442 702 457 692.5 c 128,-1,44
 472 683 472 683 472 673 c 0,45,46
 472 660 472 660 469 650 c 128,-1,47
 466 640 466 640 451 634 c 1,48,49
 441 648 441 648 430.5 655 c 128,-1,50
 420 662 420 662 408 665 c 128,-1,51
 396 668 396 668 383 667.5 c 128,-1,52
 370 667 370 667 355 667 c 1,53,-1
 355 499 l 1,54,55
 393 500 393 500 428 491.5 c 128,-1,56
 463 483 463 483 489.5 463 c 128,-1,57
 516 443 516 443 532 411.5 c 128,-1,58
 548 380 548 380 548 336 c 0,59,60
 548 310 548 310 532 279.5 c 128,-1,61
 516 249 516 249 492 222 c 128,-1,62
 468 195 468 195 439 175.5 c 128,-1,63
 410 156 410 156 384 154 c 1,64,-1
 384 19 l 1,65,-1
 346 19 l 1,66,-1
 346 135 l 1,0,1
370 454 m 1,67,68
 370 391 370 391 374 332 c 128,-1,69
 378 273 378 273 394 211 c 1,70,71
 396 210 396 210 399 210 c 128,-1,72
 402 210 402 210 403 210 c 0,73,74
 418 210 418 210 436 227 c 128,-1,75
 454 244 454 244 469.5 266 c 128,-1,76
 485 288 485 288 496 311 c 128,-1,77
 507 334 507 334 508 346 c 0,78,79
 512 376 512 376 499 396.5 c 128,-1,80
 486 417 486 417 464 430 c 128,-1,81
 442 443 442 443 416.5 448.5 c 128,-1,82
 391 454 391 454 370 454 c 1,67,68
162 528 m 0,83,84
 162 517 162 517 167.5 507.5 c 128,-1,85
 173 498 173 498 181 492 c 128,-1,86
 189 486 189 486 199 482.5 c 128,-1,87
 209 479 209 479 219 479 c 0,88,89
 236 479 236 479 250.5 480 c 128,-1,90
 265 481 265 481 276 486.5 c 128,-1,91
 287 492 287 492 293 503 c 128,-1,92
 299 514 299 514 299 532 c 256,93,94
 299 551 299 551 298 568 c 128,-1,95
 297 585 297 585 294.5 601 c 128,-1,96
 292 617 292 617 288 634.5 c 128,-1,97
 284 652 284 652 278 672 c 1,98,99
 274 669 274 669 264 660.5 c 128,-1,100
 254 652 254 652 241 640.5 c 128,-1,101
 228 629 228 629 214.5 615 c 128,-1,102
 201 601 201 601 189.5 586 c 128,-1,103
 178 571 178 571 170 556.5 c 128,-1,104
 162 542 162 542 162 528 c 0,83,84
EndSplineSet
EndChar

StartChar: percent
Encoding: 37 37 8
Width: 406
VWidth: 868
Flags: HW
LayerCount: 2
Fore
SplineSet
339 696 m 1,0,-1
 376 696 l 1,1,-1
 104 108 l 1,2,-1
 70 120 l 1,3,-1
 339 696 l 1,0,-1
301 254 m 1,4,5
 301 258 301 258 308.5 265 c 128,-1,6
 316 272 316 272 320 273 c 0,7,8
 341 278 341 278 351.5 269.5 c 128,-1,9
 362 261 362 261 364 247.5 c 128,-1,10
 366 234 366 234 361 221 c 128,-1,11
 356 208 356 208 347 204 c 128,-1,12
 338 200 338 200 325.5 210 c 128,-1,13
 313 220 313 220 301 254 c 1,4,5
108 610 m 0,14,15
 108 618 108 618 108.5 626 c 128,-1,16
 109 634 109 634 112 641.5 c 128,-1,17
 115 649 115 649 121 653.5 c 128,-1,18
 127 658 127 658 138 658 c 0,19,20
 155 658 155 658 162 645.5 c 128,-1,21
 169 633 169 633 169 618 c 0,22,23
 169 597 169 597 160.5 585.5 c 128,-1,24
 152 574 152 574 128 561 c 1,25,26
 119 563 119 563 114.5 568.5 c 128,-1,27
 110 574 110 574 109 581 c 128,-1,28
 108 588 108 588 108 595.5 c 128,-1,29
 108 603 108 603 108 610 c 0,14,15
EndSplineSet
EndChar

StartChar: ampersand
Encoding: 38 38 9
Width: 600
VWidth: 859
Flags: HW
LayerCount: 2
Fore
SplineSet
509 208 m 1,0,1
 471 151 471 151 414.5 121 c 128,-1,2
 358 91 358 91 291 91 c 0,3,4
 255 91 255 91 224.5 98.5 c 128,-1,5
 194 106 194 106 171.5 123.5 c 128,-1,6
 149 141 149 141 136.5 168.5 c 128,-1,7
 124 196 124 196 124 238 c 0,8,9
 124 263 124 263 133 295 c 128,-1,10
 142 327 142 327 156.5 359 c 128,-1,11
 171 391 171 391 190.5 418 c 128,-1,12
 210 445 210 445 232 459 c 1,13,14
 204 555 204 555 204 621.5 c 128,-1,15
 204 688 204 688 221 730.5 c 128,-1,16
 238 773 238 773 267 795 c 128,-1,17
 296 817 296 817 326 823 c 1,18,19
 352 823 352 823 375.5 813 c 128,-1,20
 399 803 399 803 416 785.5 c 128,-1,21
 433 768 433 768 443 745 c 128,-1,22
 453 722 453 722 453 697 c 0,23,24
 453 659 453 659 438 622.5 c 128,-1,25
 423 586 423 586 400.5 553 c 128,-1,26
 378 520 378 520 350.5 491 c 128,-1,27
 323 462 323 462 297 439 c 1,28,29
 296 437 296 437 296.5 429 c 128,-1,30
 297 421 297 421 297 419 c 0,31,32
 297 392 297 392 312 359 c 128,-1,33
 327 326 327 326 349.5 297 c 128,-1,34
 372 268 372 268 400 249 c 128,-1,35
 428 230 428 230 454 230 c 1,36,37
 454 262 454 262 453 289.5 c 128,-1,38
 452 317 452 317 441 337.5 c 128,-1,39
 430 358 430 358 406 370 c 128,-1,40
 382 382 382 382 336 381 c 1,41,-1
 336 400 l 2,42,43
 336 405 336 405 355.5 409 c 128,-1,44
 375 413 375 413 401.5 415.5 c 128,-1,45
 428 418 428 418 454 419 c 128,-1,46
 480 420 480 420 493 420 c 0,47,48
 497 420 497 420 506 420.5 c 128,-1,49
 515 421 515 421 523.5 419.5 c 128,-1,50
 532 418 532 418 539 414 c 128,-1,51
 546 410 546 410 547 400 c 2,52,-1
 605 -61 l 1,53,-1
 573 -92 l 1,54,-1
 509 208 l 1,0,1
183 169 m 1,55,56
 203 143 203 143 237 133 c 128,-1,57
 271 123 271 123 307.5 126.5 c 128,-1,58
 344 130 344 130 378 146.5 c 128,-1,59
 412 163 412 163 432 189 c 1,60,61
 405 200 405 200 375 226.5 c 128,-1,62
 345 253 345 253 318.5 283 c 128,-1,63
 292 313 292 313 271 340.5 c 128,-1,64
 250 368 250 368 240 381 c 1,65,66
 213 361 213 361 200.5 337 c 128,-1,67
 188 313 188 313 183.5 286 c 128,-1,68
 179 259 179 259 180 229.5 c 128,-1,69
 181 200 181 200 183 169 c 1,55,56
509 323 m 1,70,-1
 509 381 l 1,71,-1
 471 381 l 1,72,-1
 509 323 l 1,70,-1
258 610 m 0,73,74
 258 594 258 594 258 579.5 c 128,-1,75
 258 565 258 565 259.5 551.5 c 128,-1,76
 261 538 261 538 265.5 524.5 c 128,-1,77
 270 511 270 511 279 496 c 1,78,79
 297 510 297 510 320.5 531.5 c 128,-1,80
 344 553 344 553 364.5 578.5 c 128,-1,81
 385 604 385 604 399.5 632 c 128,-1,82
 414 660 414 660 414 688 c 0,83,84
 414 700 414 700 409 716.5 c 128,-1,85
 404 733 404 733 394.5 748 c 128,-1,86
 385 763 385 763 372.5 774 c 128,-1,87
 360 785 360 785 347 785 c 0,88,89
 314 785 314 785 295.5 766.5 c 128,-1,90
 277 748 277 748 269 721 c 128,-1,91
 261 694 261 694 259.5 663 c 128,-1,92
 258 632 258 632 258 610 c 0,73,74
EndSplineSet
EndChar

StartChar: quotesingle
Encoding: 39 39 10
Width: 106
VWidth: 979
Flags: HW
LayerCount: 2
Fore
SplineSet
29 903 m 0,0,1
 29 907 29 907 37 914 c 128,-1,2
 45 921 45 921 48 921 c 1,3,4
 74 905 74 905 81 878.5 c 128,-1,5
 88 852 88 852 88 825 c 0,6,7
 88 819 88 819 88.5 810 c 128,-1,8
 89 801 89 801 88 792.5 c 128,-1,9
 87 784 87 784 82.5 777 c 128,-1,10
 78 770 78 770 68 768 c 1,11,12
 60 770 60 770 53 789 c 128,-1,13
 46 808 46 808 40.5 831 c 128,-1,14
 35 854 35 854 32 875 c 128,-1,15
 29 896 29 896 29 903 c 0,0,1
EndSplineSet
EndChar

StartChar: parenleft
Encoding: 40 40 11
Width: 259
VWidth: 877
Flags: HW
LayerCount: 2
Fore
SplineSet
37 351 m 0,0,1
 37 381 37 381 41 422.5 c 128,-1,2
 45 464 45 464 52.5 511 c 128,-1,3
 60 558 60 558 73.5 606.5 c 128,-1,4
 87 655 87 655 106.5 699.5 c 128,-1,5
 126 744 126 744 151.5 780.5 c 128,-1,6
 177 817 177 817 211 840 c 0,7,8
 213 842 213 842 220.5 844 c 128,-1,9
 228 846 228 846 230 846 c 1,10,-1
 230 820 l 1,11,12
 202 774 202 774 181 735 c 128,-1,13
 160 696 160 696 145 660 c 128,-1,14
 130 624 130 624 120.5 590.5 c 128,-1,15
 111 557 111 557 105 520.5 c 128,-1,16
 99 484 99 484 96.5 443 c 128,-1,17
 94 402 94 402 94 351 c 0,18,19
 94 313 94 313 100.5 276.5 c 128,-1,20
 107 240 107 240 114.5 204.5 c 128,-1,21
 122 169 122 169 128.5 133 c 128,-1,22
 135 97 135 97 135 60 c 0,23,24
 135 50 135 50 131.5 44.5 c 128,-1,25
 128 39 128 39 115 33 c 1,26,27
 100 67 100 67 86 107 c 128,-1,28
 72 147 72 147 61.5 188 c 128,-1,29
 51 229 51 229 44 270.5 c 128,-1,30
 37 312 37 312 37 351 c 0,0,1
EndSplineSet
EndChar

StartChar: parenright
Encoding: 41 41 12
Width: 264
VWidth: 873
Flags: HW
LayerCount: 2
Fore
SplineSet
115 19 m 256,0,1
 115 29 115 29 119 35.5 c 128,-1,2
 123 42 123 42 134 48 c 1,3,4
 155 98 155 98 167.5 136 c 128,-1,5
 180 174 180 174 186 208.5 c 128,-1,6
 192 243 192 243 193.5 278.5 c 128,-1,7
 195 314 195 314 195 360 c 0,8,9
 195 427 195 427 189 491 c 128,-1,10
 183 555 183 555 166 614.5 c 128,-1,11
 149 674 149 674 118.5 729.5 c 128,-1,12
 88 785 88 785 38 835 c 1,13,14
 38 839 38 839 46 846.5 c 128,-1,15
 54 854 54 854 58 854 c 0,16,17
 60 854 60 854 65.5 852 c 128,-1,18
 71 850 71 850 77.5 847 c 128,-1,19
 84 844 84 844 89.5 841 c 128,-1,20
 95 838 95 838 96 835 c 0,21,22
 141 784 141 784 168 730 c 128,-1,23
 195 676 195 676 209.5 618 c 128,-1,24
 224 560 224 560 228.5 498.5 c 0,25,26
 233 436 233 436 233 372 c 0,27,28
 233 347 233 347 233 313.5 c 128,-1,29
 233 280 233 280 231.5 243 c 128,-1,30
 230 206 230 206 225 168 c 128,-1,31
 220 130 220 130 209 95.5 c 128,-1,32
 198 61 198 61 180 33.5 c 128,-1,33
 162 6 162 6 134 -10 c 1,34,35
 123 -4 123 -4 119 2.5 c 128,-1,36
 115 9 115 9 115 19 c 256,0,1
EndSplineSet
EndChar

StartChar: asterisk
Encoding: 42 42 13
Width: 270
VWidth: 883
Flags: HW
LayerCount: 2
Fore
SplineSet
161 403 m 1,0,1
 158 397 158 397 151 389 c 128,-1,2
 144 381 144 381 135 373.5 c 128,-1,3
 126 366 126 366 116 361 c 128,-1,4
 106 356 106 356 96 356 c 1,5,6
 96 370 96 370 95 388.5 c 128,-1,7
 94 407 94 407 89 425.5 c 128,-1,8
 84 444 84 444 74 459 c 128,-1,9
 64 474 64 474 46 480 c 1,10,11
 68 484 68 484 80.5 490 c 128,-1,12
 93 496 93 496 100.5 503 c 128,-1,13
 108 510 108 510 113 519 c 128,-1,14
 118 528 118 528 124 537 c 128,-1,15
 130 546 130 546 138 556 c 128,-1,16
 146 566 146 566 161 576 c 1,17,18
 175 572 175 572 180.5 563.5 c 128,-1,19
 186 555 186 555 187 546 c 128,-1,20
 188 537 188 537 188 527.5 c 128,-1,21
 188 518 188 518 192 510.5 c 128,-1,22
 196 503 196 503 206.5 498 c 0,23,24
 216 493 216 493 240 493 c 1,25,26
 240 491 240 491 239 486.5 c 128,-1,27
 238 482 238 482 238 480 c 0,28,29
 237 478 237 478 234 472.5 c 128,-1,30
 231 467 231 467 227.5 460.5 c 128,-1,31
 224 454 224 454 221.5 448.5 c 128,-1,32
 219 443 219 443 219 441 c 128,-1,33
 219 439 219 439 222 431 c 128,-1,34
 225 423 225 423 228.5 413 c 128,-1,35
 232 403 232 403 235 394.5 c 128,-1,36
 238 386 238 386 238 384 c 1,37,38
 239 383 239 383 238.5 376 c 128,-1,39
 238 369 238 369 238 365 c 0,40,41
 238 363 238 363 238 355.5 c 128,-1,42
 238 348 238 348 238 345 c 1,43,-1
 161 403 l 1,0,1
EndSplineSet
EndChar

StartChar: plus
Encoding: 43 43 14
Width: 368
VWidth: 871
Flags: HW
LayerCount: 2
Fore
SplineSet
58 422 m 1,0,-1
 176 430 l 1,1,-1
 176 550 l 1,2,3
 195 556 195 556 207.5 553 c 128,-1,4
 220 550 220 550 227 541.5 c 128,-1,5
 234 533 234 533 236.5 519.5 c 128,-1,6
 239 506 239 506 239.5 492 c 128,-1,7
 240 478 240 478 238 464 c 128,-1,8
 236 450 236 450 234 440 c 1,9,-1
 349 440 l 1,10,-1
 349 411 l 1,11,12
 315 408 315 408 288.5 403 c 128,-1,13
 262 398 262 398 244 384.5 c 128,-1,14
 226 371 226 371 218.5 345.5 c 128,-1,15
 211 320 211 320 214 276 c 1,16,17
 213 276 213 276 204.5 275 c 128,-1,18
 196 274 196 274 185.5 274 c 128,-1,19
 175 274 175 274 166.5 273.5 c 0,20,-1
 158 273 l 1,21,22
 156 293 156 293 161 309 c 128,-1,23
 166 325 166 325 170 337 c 128,-1,24
 174 349 174 349 174.5 357 c 128,-1,25
 175 365 175 365 165 370.5 c 128,-1,26
 155 376 155 376 132 378 c 128,-1,27
 109 380 109 380 66 380 c 1,28,-1
 58 422 l 1,0,-1
EndSplineSet
EndChar

StartChar: comma
Encoding: 44 44 15
Width: 138
VWidth: 765
Flags: HW
LayerCount: 2
Fore
SplineSet
74 -1 m 0,0,1
 73 2 73 2 68 8.5 c 128,-1,2
 63 15 63 15 57 21 c 128,-1,3
 51 27 51 27 44.5 31.5 c 128,-1,4
 38 36 38 36 35 37 c 1,5,6
 41 50 41 50 46.5 54 c 128,-1,7
 52 58 52 58 63 58 c 0,8,9
 91 58 91 58 103 46 c 128,-1,10
 115 34 115 34 115 9 c 0,11,12
 115 -22 115 -22 102 -41 c 128,-1,13
 89 -60 89 -60 54 -78 c 1,14,15
 53 -76 53 -76 53 -68.5 c 128,-1,16
 53 -61 53 -61 53 -59 c 0,17,18
 53 -55 53 -55 53 -47.5 c 128,-1,19
 53 -40 53 -40 54 -39 c 1,20,21
 54 -37 54 -37 57.5 -31.5 c 128,-1,22
 61 -26 61 -26 64.5 -20 c 128,-1,23
 68 -14 68 -14 71 -8.5 c 128,-1,24
 74 -3 74 -3 74 -1 c 0,0,1
EndSplineSet
EndChar

StartChar: hyphen
Encoding: 45 45 16
Width: 452
VWidth: 843
Flags: HW
LayerCount: 2
Fore
SplineSet
97 306 m 2,0,1
 98 307 98 307 120 310 c 128,-1,2
 142 313 142 313 177 317 c 128,-1,3
 212 321 212 321 256 325.5 c 128,-1,4
 300 330 300 330 345 333 c 0,5,6
 349 333 349 333 361 334 c 128,-1,7
 373 335 373 335 385.5 335.5 c 128,-1,8
 398 336 398 336 409.5 336 c 128,-1,9
 421 336 421 336 426 336 c 1,10,11
 426 323 426 323 420.5 312 c 128,-1,12
 415 301 415 301 403 295 c 1,13,14
 379 293 379 293 343 289 c 128,-1,15
 307 285 307 285 269 281 c 128,-1,16
 231 277 231 277 195 273.5 c 128,-1,17
 159 270 159 270 135 267 c 0,18,19
 133 267 133 267 125.5 267 c 128,-1,20
 118 267 118 267 114 267 c 0,21,22
 101 267 101 267 92 268.5 c 128,-1,23
 83 270 83 270 77 287 c 1,24,-1
 97 306 l 2,0,1
EndSplineSet
EndChar

StartChar: period
Encoding: 46 46 17
Width: 174
VWidth: 781
Flags: HW
LayerCount: 2
Fore
SplineSet
59 51 m 0,0,1
 55 66 55 66 59.5 74.5 c 128,-1,2
 64 83 64 83 72 87 c 128,-1,3
 80 91 80 91 90 91.5 c 128,-1,4
 100 92 100 92 108 92 c 0,5,6
 116 92 116 92 125.5 91.5 c 128,-1,7
 135 91 135 91 142.5 87 c 128,-1,8
 150 83 150 83 154.5 74.5 c 128,-1,9
 159 66 159 66 155 51 c 0,10,11
 153 44 153 44 148.5 37.5 c 128,-1,12
 144 31 144 31 137.5 25 c 128,-1,13
 131 19 131 19 123 15.5 c 128,-1,14
 115 12 115 12 108 12 c 0,15,16
 100 12 100 12 92 15.5 c 128,-1,17
 84 19 84 19 77 25 c 128,-1,18
 70 31 70 31 65.5 37.5 c 128,-1,19
 61 44 61 44 59 51 c 0,0,1
EndSplineSet
EndChar

StartChar: slash
Encoding: 47 47 18
Width: 249
VWidth: 859
Flags: HW
LayerCount: 2
Fore
SplineSet
192 630 m 2,0,1
 194 636 194 636 196.5 643.5 c 128,-1,2
 199 651 199 651 203.5 653.5 c 128,-1,3
 208 656 208 656 214.5 651.5 c 128,-1,4
 221 647 221 647 230 630 c 1,5,-1
 68 81 l 1,6,-1
 38 111 l 1,7,-1
 192 630 l 2,0,1
EndSplineSet
EndChar

StartChar: zero
Encoding: 48 48 19
Width: 483
VWidth: 851
Flags: HW
LayerCount: 2
Fore
SplineSet
106 332 m 0,0,1
 106 351 106 351 107.5 377.5 c 128,-1,2
 109 404 109 404 113.5 431.5 c 128,-1,3
 118 459 118 459 126.5 486.5 c 128,-1,4
 135 514 135 514 149 535.5 c 128,-1,5
 163 557 163 557 182.5 570.5 c 128,-1,6
 202 584 202 584 230 584 c 0,7,8
 288 584 288 584 330.5 563 c 128,-1,9
 373 542 373 542 401.5 505 c 128,-1,10
 430 468 430 468 443.5 420 c 128,-1,11
 457 372 457 372 457 320 c 0,12,13
 457 298 457 298 453 271.5 c 128,-1,14
 449 245 449 245 440.5 219 c 128,-1,15
 432 193 432 193 418.5 168 c 128,-1,16
 405 143 405 143 386.5 124.5 c 128,-1,17
 368 106 368 106 344.5 94.5 c 128,-1,18
 321 83 321 83 292 83 c 0,19,20
 238 83 238 83 202 106 c 128,-1,21
 166 129 166 129 145 165.5 c 128,-1,22
 124 202 124 202 115 246 c 128,-1,23
 106 290 106 290 106 332 c 0,0,1
145 353 m 1,24,25
 145 314 145 314 147.5 276 c 128,-1,26
 150 238 150 238 162.5 207.5 c 128,-1,27
 175 177 175 177 200.5 158.5 c 128,-1,28
 226 140 226 140 272 140 c 0,29,30
 312 140 312 140 340 154 c 128,-1,31
 368 168 368 168 385.5 193 c 128,-1,32
 403 218 403 218 410.5 251 c 128,-1,33
 418 284 418 284 418 323 c 1,34,35
 414 393 414 393 390 439.5 c 128,-1,36
 366 486 366 486 333 510.5 c 128,-1,37
 300 535 300 535 263.5 537 c 128,-1,38
 227 539 227 539 198 519 c 128,-1,39
 169 499 169 499 153 457.5 c 128,-1,40
 137 416 137 416 145 353 c 1,24,25
EndSplineSet
EndChar

StartChar: one
Encoding: 49 49 20
Width: 454
VWidth: 864
Flags: HW
LayerCount: 2
Fore
SplineSet
94 133 m 1,0,1
 113 137 113 137 123 139 c 128,-1,2
 133 141 133 141 139.5 141.5 c 128,-1,3
 146 142 146 142 151 142 c 128,-1,4
 156 142 156 142 164 143 c 128,-1,5
 172 144 172 144 185.5 146.5 c 128,-1,6
 199 149 199 149 224 154 c 1,7,8
 233 181 233 181 238 216.5 c 128,-1,9
 243 252 243 252 246 292.5 c 128,-1,10
 249 333 249 333 250.5 376.5 c 128,-1,11
 252 420 252 420 253 462 c 128,-1,12
 254 504 254 504 256 543 c 128,-1,13
 258 582 258 582 262 615 c 1,14,15
 260 615 260 615 257 615 c 128,-1,16
 254 615 254 615 253 615 c 0,17,18
 231 615 231 615 212 606 c 128,-1,19
 193 597 193 597 174 586.5 c 128,-1,20
 155 576 155 576 135.5 567 c 128,-1,21
 116 558 116 558 94 558 c 1,22,-1
 90 596 l 2,23,24
 91 596 91 596 103 601.5 c 128,-1,25
 115 607 115 607 133.5 615 c 128,-1,26
 152 623 152 623 175.5 632.5 c 128,-1,27
 199 642 199 642 222 650.5 c 128,-1,28
 245 659 245 659 265.5 665.5 c 128,-1,29
 286 672 286 672 301 675 c 1,30,-1
 301 173 l 1,31,32
 311 164 311 164 328 162.5 c 128,-1,33
 345 161 345 161 364.5 161.5 c 128,-1,34
 384 162 384 162 403.5 163.5 c 128,-1,35
 423 165 423 165 437 162 c 1,36,-1
 436 120 l 1,37,38
 396 120 396 120 355.5 116.5 c 128,-1,39
 315 113 315 113 275.5 108 c 128,-1,40
 236 103 236 103 196.5 99.5 c 128,-1,41
 157 96 157 96 118 96 c 0,42,43
 108 96 108 96 104.5 107.5 c 128,-1,44
 101 119 101 119 94 133 c 1,0,1
EndSplineSet
EndChar

StartChar: two
Encoding: 50 50 21
Width: 562
VWidth: 860
Flags: HW
LayerCount: 2
Fore
SplineSet
266 151 m 1,0,1
 239 136 239 136 217 133 c 128,-1,2
 195 130 195 130 167 130 c 0,3,4
 156 130 156 130 142.5 131.5 c 128,-1,5
 129 133 129 133 117 138.5 c 128,-1,6
 105 144 105 144 97.5 153.5 c 128,-1,7
 90 163 90 163 90 180 c 0,8,9
 90 190 90 190 110.5 194 c 128,-1,10
 131 198 131 198 161.5 203.5 c 128,-1,11
 192 209 192 209 227.5 220 c 128,-1,12
 263 231 263 231 293.5 255.5 c 128,-1,13
 324 280 324 280 344 323 c 128,-1,14
 364 366 364 366 364 434 c 0,15,16
 364 462 364 462 359 494 c 128,-1,17
 354 526 354 526 341.5 552 c 128,-1,18
 329 578 329 578 305.5 595.5 c 128,-1,19
 282 613 282 613 245 613 c 0,20,21
 229 613 229 613 217 606 c 128,-1,22
 205 599 205 599 195.5 589.5 c 128,-1,23
 186 580 186 580 177 568 c 128,-1,24
 168 556 168 556 157.5 546 c 128,-1,25
 147 536 147 536 134 529.5 c 128,-1,26
 121 523 121 523 103 523 c 1,27,28
 103 550 103 550 116 573.5 c 128,-1,29
 129 597 129 597 149.5 614.5 c 128,-1,30
 170 632 170 632 195.5 642 c 128,-1,31
 221 652 221 652 246 652 c 0,32,33
 286 652 286 652 318.5 632 c 128,-1,34
 351 612 351 612 373.5 581 c 128,-1,35
 396 550 396 550 408 512.5 c 128,-1,36
 420 475 420 475 420 439 c 0,37,38
 420 405 420 405 410.5 370.5 c 128,-1,39
 401 336 401 336 384.5 304 c 128,-1,40
 368 272 368 272 347.5 243 c 128,-1,41
 327 214 327 214 304 189 c 1,42,43
 326 170 326 170 355.5 159 c 128,-1,44
 385 148 385 148 416 142 c 128,-1,45
 447 136 447 136 477.5 133.5 c 128,-1,46
 508 131 508 131 534 131 c 1,47,48
 535 129 535 129 536 126 c 128,-1,49
 537 123 537 123 537 122 c 0,50,51
 537 111 537 111 529 104.5 c 128,-1,52
 521 98 521 98 509.5 95 c 128,-1,53
 498 92 498 92 486 91.5 c 128,-1,54
 474 91 474 91 467 91 c 0,55,56
 440 91 440 91 415.5 96 c 128,-1,57
 391 101 391 101 367 109.5 c 128,-1,58
 343 118 343 118 318.5 128.5 c 128,-1,59
 294 139 294 139 266 151 c 1,0,1
208 169 m 256,60,61
 210 173 210 173 204 175.5 c 128,-1,62
 198 178 198 178 189.5 178 c 128,-1,63
 181 178 181 178 174.5 176 c 128,-1,64
 168 174 168 174 170 169 c 256,65,66
 172 165 172 165 177.5 163 c 128,-1,67
 183 161 183 161 189 161 c 128,-1,68
 195 161 195 161 200.5 163 c 128,-1,69
 206 165 206 165 208 169 c 256,60,61
EndSplineSet
EndChar

StartChar: three
Encoding: 51 51 22
Width: 482
VWidth: 863
Flags: HW
LayerCount: 2
Fore
SplineSet
118 156 m 1,0,1
 135 156 135 156 152 152.5 c 128,-1,2
 169 149 169 149 185.5 144.5 c 128,-1,3
 202 140 202 140 218.5 136.5 c 128,-1,4
 235 133 235 133 253 133 c 0,5,6
 287 133 287 133 318.5 143.5 c 128,-1,7
 350 154 350 154 373.5 174 c 128,-1,8
 397 194 397 194 411.5 223 c 128,-1,9
 426 252 426 252 426 289 c 0,10,11
 426 315 426 315 414 336.5 c 128,-1,12
 402 358 402 358 382.5 373 c 128,-1,13
 363 388 363 388 339 396.5 c 128,-1,14
 315 405 315 405 292 405 c 0,15,16
 288 405 288 405 281.5 405 c 128,-1,17
 275 405 275 405 269 404.5 c 128,-1,18
 263 404 263 404 258 403.5 c 0,19,-1
 253 403 l 0,20,21
 251 403 251 403 242.5 400 c 128,-1,22
 234 397 234 397 224 393.5 c 128,-1,23
 214 390 214 390 205.5 387 c 128,-1,24
 197 384 197 384 195 384 c 256,25,26
 193 384 193 384 190 386 c 128,-1,27
 187 388 187 388 183.5 391 c 128,-1,28
 180 394 180 394 177.5 397.5 c 128,-1,29
 175 401 175 401 175 403 c 1,30,31
 182 409 182 409 199 425.5 c 128,-1,32
 216 442 216 442 234.5 460 c 128,-1,33
 253 478 253 478 269 494.5 c 128,-1,34
 285 511 285 511 291 518 c 0,35,36
 295 522 295 522 301 531.5 c 128,-1,37
 307 541 307 541 313.5 550 c 128,-1,38
 320 559 320 559 324.5 566.5 c 128,-1,39
 329 574 329 574 329 576 c 0,40,41
 322 608 322 608 305.5 618 c 128,-1,42
 289 628 289 628 267 625 c 128,-1,43
 245 622 245 622 219.5 608.5 c 128,-1,44
 194 595 194 595 170 579.5 c 128,-1,45
 146 564 146 564 125.5 550.5 c 128,-1,46
 105 537 105 537 93 532 c 1,47,48
 93 564 93 564 113 590.5 c 128,-1,49
 133 617 133 617 163.5 635.5 c 128,-1,50
 194 654 194 654 229 663.5 c 128,-1,51
 264 673 264 673 293 673 c 0,52,53
 307 673 307 673 320 664.5 c 128,-1,54
 333 656 333 656 344 643 c 128,-1,55
 355 630 355 630 361.5 614.5 c 128,-1,56
 368 599 368 599 368 586 c 0,57,58
 368 570 368 570 362.5 552.5 c 128,-1,59
 357 535 357 535 348.5 518.5 c 128,-1,60
 340 502 340 502 330 487 c 128,-1,61
 320 472 320 472 310 460 c 1,62,63
 336 452 336 452 363.5 437.5 c 128,-1,64
 391 423 391 423 413.5 402.5 c 128,-1,65
 436 382 436 382 450 355.5 c 128,-1,66
 464 329 464 329 464 298 c 0,67,68
 464 255 464 255 449.5 217.5 c 128,-1,69
 435 180 435 180 409 152.5 c 128,-1,70
 383 125 383 125 347 109.5 c 128,-1,71
 311 94 311 94 269 94 c 0,72,73
 258 94 258 94 233 94.5 c 128,-1,74
 208 95 208 95 182.5 99 c 128,-1,75
 157 103 157 103 137.5 111 c 128,-1,76
 118 119 118 119 118 134 c 2,77,-1
 118 156 l 1,0,1
EndSplineSet
EndChar

StartChar: four
Encoding: 52 52 23
Width: 514
VWidth: 884
Flags: HW
LayerCount: 2
Fore
SplineSet
308 500 m 1,0,1
 305 500 305 500 296 500.5 c 128,-1,2
 287 501 287 501 284 501 c 0,3,4
 259 501 259 501 234.5 497 c 128,-1,5
 210 493 210 493 185.5 489 c 128,-1,6
 161 485 161 485 136.5 481.5 c 128,-1,7
 112 478 112 478 86 478 c 1,8,9
 86 518 86 518 90 556.5 c 128,-1,10
 94 595 94 595 99 634.5 c 128,-1,11
 104 674 104 674 107.5 713.5 c 0,12,13
 111 752 111 752 111 792 c 1,14,15
 115 792 115 792 121 790 c 128,-1,16
 127 788 127 788 132 784.5 c 128,-1,17
 137 781 137 781 141 776.5 c 128,-1,18
 145 772 145 772 145 768 c 2,19,-1
 145 543 l 1,20,21
 146 543 146 543 158 541.5 c 128,-1,22
 170 540 170 540 187 539 c 128,-1,23
 204 538 204 538 223.5 538 c 128,-1,24
 243 538 243 538 259.5 539.5 c 128,-1,25
 276 541 276 541 287.5 545.5 c 128,-1,26
 299 550 299 550 299 558 c 2,27,-1
 299 773 l 1,28,29
 303 773 303 773 311 771 c 128,-1,30
 319 769 319 769 327 765.5 c 128,-1,31
 335 762 335 762 341 758 c 128,-1,32
 347 754 347 754 347 750 c 2,33,-1
 347 568 l 1,34,-1
 497 568 l 1,35,36
 495 556 495 556 492 546 c 0,37,38
 490 538 490 538 488.5 530 c 128,-1,39
 487 522 487 522 485 519 c 1,40,41
 465 514 465 514 440.5 512 c 128,-1,42
 416 510 416 510 395 509.5 c 128,-1,43
 374 509 374 509 359.5 509.5 c 128,-1,44
 345 510 345 510 344 510 c 2,45,-1
 347 136 l 1,46,-1
 308 136 l 1,47,-1
 308 500 l 1,0,1
EndSplineSet
EndChar

StartChar: five
Encoding: 53 53 24
Width: 492
VWidth: 858
Flags: HW
LayerCount: 2
Fore
SplineSet
128 166 m 1,0,1
 164 153 164 153 203 140.5 c 128,-1,2
 242 128 242 128 282 128 c 0,3,4
 305 128 305 128 332 137.5 c 128,-1,5
 359 147 359 147 382 164 c 128,-1,6
 405 181 405 181 420.5 204 c 0,7,8
 436 228 436 228 436 254 c 0,9,10
 436 284 436 284 421 307.5 c 128,-1,11
 406 331 406 331 382.5 347.5 c 128,-1,12
 359 364 359 364 330.5 373 c 128,-1,13
 302 382 302 382 276 382 c 0,14,15
 254 382 254 382 233.5 373.5 c 128,-1,16
 213 365 213 365 193 356.5 c 128,-1,17
 173 348 173 348 152 342 c 128,-1,18
 131 336 131 336 109 340 c 1,19,20
 104 367 104 367 100 388.5 c 128,-1,21
 96 410 96 410 94 430.5 c 128,-1,22
 92 451 92 451 90.5 470.5 c 128,-1,23
 89 490 89 490 89 514 c 0,24,25
 89 558 89 558 105.5 582 c 128,-1,26
 122 606 122 606 149 617 c 128,-1,27
 176 628 176 628 210.5 629.5 c 128,-1,28
 245 631 245 631 281 631 c 0,29,30
 288 631 288 631 300.5 630.5 c 128,-1,31
 313 630 313 630 325.5 629.5 c 128,-1,32
 338 629 338 629 347.5 628.5 c 128,-1,33
 357 628 357 628 359 628 c 1,34,-1
 371 594 l 1,35,36
 345 593 345 593 313.5 593 c 128,-1,37
 282 593 282 593 251.5 591 c 128,-1,38
 221 589 221 589 193 584.5 c 128,-1,39
 165 580 165 580 147 570 c 1,40,-1
 147 398 l 1,41,42
 178 416 178 416 208.5 417 c 128,-1,43
 239 418 239 418 273 418 c 128,-1,44
 307 418 307 418 343.5 407.5 c 128,-1,45
 380 397 380 397 409 376 c 128,-1,46
 438 355 438 355 457 324.5 c 128,-1,47
 476 294 476 294 476 254 c 0,48,49
 476 224 476 224 459.5 194.5 c 128,-1,50
 443 165 443 165 418 141.5 c 128,-1,51
 393 118 393 118 362 103.5 c 128,-1,52
 331 89 331 89 302 89 c 0,53,54
 280 89 280 89 250 89.5 c 128,-1,55
 220 90 220 90 191 95 c 128,-1,56
 162 100 162 100 139 112 c 128,-1,57
 116 124 116 124 109 148 c 1,58,-1
 128 166 l 1,0,1
EndSplineSet
EndChar

StartChar: six
Encoding: 54 54 25
Width: 509
VWidth: 859
Flags: HW
LayerCount: 2
Fore
SplineSet
86 295 m 1,0,1
 89 326 89 326 97.5 374 c 128,-1,2
 106 422 106 422 120.5 473 c 128,-1,3
 135 524 135 524 155.5 570.5 c 128,-1,4
 176 617 176 617 200 645 c 1,5,-1
 240 610 l 1,6,7
 222 593 222 593 206 567 c 128,-1,8
 190 541 190 541 177 511 c 128,-1,9
 164 481 164 481 154.5 449.5 c 128,-1,10
 145 418 145 418 138 388.5 c 128,-1,11
 131 359 131 359 127.5 334 c 128,-1,12
 124 309 124 309 124 294 c 0,13,14
 124 290 124 290 127 269.5 c 128,-1,15
 130 249 130 249 136 226 c 128,-1,16
 142 203 142 203 151 185 c 128,-1,17
 160 167 160 167 173 167 c 0,18,19
 174 167 174 167 177.5 167.5 c 128,-1,20
 181 168 181 168 182 168 c 1,21,22
 193 200 193 200 207 231.5 c 128,-1,23
 221 263 221 263 240.5 287.5 c 128,-1,24
 260 312 260 312 287 328 c 128,-1,25
 314 344 314 344 350 344 c 0,26,27
 374 344 374 344 399 340 c 128,-1,28
 424 336 424 336 444 325.5 c 128,-1,29
 464 315 464 315 477 295.5 c 128,-1,30
 490 276 490 276 490 246 c 0,31,32
 489 199 489 199 469 167.5 c 128,-1,33
 449 136 449 136 415.5 118 c 128,-1,34
 382 100 382 100 339 94 c 128,-1,35
 296 88 296 88 249 91 c 1,36,37
 209 91 209 91 178.5 110 c 128,-1,38
 148 129 148 129 127.5 158 c 128,-1,39
 107 187 107 187 96.5 223.5 c 128,-1,40
 86 260 86 260 86 295 c 1,0,1
361 306 m 0,41,42
 325 306 325 306 302 291 c 128,-1,43
 279 276 279 276 266 252.5 c 128,-1,44
 253 229 253 229 247.5 198.5 c 128,-1,45
 242 168 242 168 242 137 c 1,46,47
 256 137 256 137 277.5 139 c 128,-1,48
 299 141 299 141 322.5 146 c 128,-1,49
 346 151 346 151 369 159.5 c 128,-1,50
 392 168 392 168 410 180 c 128,-1,51
 428 192 428 192 440 208.5 c 128,-1,52
 452 225 452 225 452 246 c 0,53,54
 452 266 452 266 443 278 c 128,-1,55
 434 290 434 290 420 296.5 c 128,-1,56
 406 303 406 303 390.5 304.5 c 128,-1,57
 375 306 375 306 361 306 c 0,41,42
EndSplineSet
EndChar

StartChar: seven
Encoding: 55 55 26
Width: 659
VWidth: 860
Flags: HW
LayerCount: 2
Fore
SplineSet
432 283 m 1,0,1
 400 283 400 283 373.5 277.5 c 128,-1,2
 347 272 347 272 314 265 c 1,3,-1
 302 304 l 1,4,-1
 429 342 l 1,5,6
 431.5 355.5 l 0,7,8
 434 369 434 369 437.5 390.5 c 128,-1,9
 441 412 441 412 445 439.5 c 128,-1,10
 449 467 449 467 453 494 c 128,-1,11
 457 521 457 521 461 547 c 128,-1,12
 465 573 465 573 468 592 c 0,13,14
 469 594 469 594 467.5 598 c 128,-1,15
 466 602 466 602 466 604 c 1,16,17
 454 604 454 604 424.5 605.5 c 128,-1,18
 395 607 395 607 361 608.5 c 128,-1,19
 327 610 327 610 297.5 610.5 c 128,-1,20
 268 611 268 611 256 611 c 0,21,22
 234 609 234 609 209.5 607 c 128,-1,23
 185 605 185 605 167 594.5 c 128,-1,24
 149 584 149 584 143.5 563 c 128,-1,25
 138 542 138 542 154 502 c 1,26,27
 153 502 153 502 150 500.5 c 128,-1,28
 147 499 147 499 142.5 497 c 128,-1,29
 138 495 138 495 135 494 c 0,30,-1
 132 493 l 1,31,32
 119 493 119 493 112.5 505.5 c 128,-1,33
 106 518 106 518 103.5 534.5 c 128,-1,34
 101 551 101 551 101 568 c 128,-1,35
 101 585 101 585 101 593 c 0,36,37
 101 596 101 596 100.5 605 c 128,-1,38
 100 614 100 614 101.5 624 c 128,-1,39
 103 634 103 634 107.5 641.5 c 128,-1,40
 112 649 112 649 122 649 c 2,41,-1
 528 649 l 1,42,43
 528 610 528 610 522.5 572 c 128,-1,44
 517 534 517 534 511 496.5 c 128,-1,45
 505 459 505 459 500 420.5 c 128,-1,46
 495 382 495 382 495 342 c 1,47,-1
 640 342 l 1,48,-1
 640 323 l 1,49,-1
 468 284 l 1,50,-1
 468 92 l 1,51,52
 443 84 443 84 433.5 102.5 c 128,-1,53
 424 121 424 121 423.5 151.5 c 128,-1,54
 423 182 423 182 426.5 218.5 c 128,-1,55
 430 255 430 255 432 283 c 1,0,1
EndSplineSet
EndChar

StartChar: eight
Encoding: 56 56 27
Width: 452
VWidth: 861
Flags: HW
LayerCount: 2
Fore
SplineSet
159 211 m 0,0,1
 159 233 159 233 165.5 253.5 c 128,-1,2
 172 274 172 274 179 293 c 128,-1,3
 186 312 186 312 192.5 331 c 128,-1,4
 199 350 199 350 199 372 c 0,5,6
 199 373 199 373 198.5 376.5 c 128,-1,7
 198 380 198 380 198 381 c 1,8,9
 193 385 193 385 174.5 400.5 c 128,-1,10
 156 416 156 416 135.5 437 c 128,-1,11
 115 458 115 458 99 481.5 c 128,-1,12
 83 505 83 505 83 524 c 0,13,14
 83 557 83 557 97 581 c 128,-1,15
 111 605 111 605 133 621 c 128,-1,16
 155 637 155 637 182.5 644.5 c 128,-1,17
 210 652 210 652 239 652 c 0,18,19
 248 652 248 652 263 648.5 c 128,-1,20
 278 645 278 645 295 638 c 128,-1,21
 312 631 312 631 329 621.5 c 128,-1,22
 346 612 346 612 358 601 c 128,-1,23
 370 590 370 590 374 578 c 128,-1,24
 378 566 378 566 372 554 c 2,25,-1
 294 419 l 1,26,27
 304.5 411.5 l 0,28,29
 315 404 315 404 330 391 c 128,-1,30
 345 378 345 378 362.5 362.5 c 128,-1,31
 380 347 380 347 395.5 331.5 c 128,-1,32
 411 316 411 316 421 301.5 c 128,-1,33
 431 287 431 287 431 278 c 0,34,35
 431 240 431 240 413.5 206.5 c 128,-1,36
 396 173 396 173 369 147.5 c 128,-1,37
 342 122 342 122 307 107 c 128,-1,38
 272 92 272 92 236 92 c 0,39,40
 209 92 209 92 193.5 101.5 c 128,-1,41
 178 111 178 111 170 127.5 c 128,-1,42
 162 144 162 144 160.5 165.5 c 128,-1,43
 159 187 159 187 159 211 c 0,0,1
197 211 m 0,44,45
 197 191 197 191 197 175.5 c 128,-1,46
 197 160 197 160 201.5 150 c 128,-1,47
 206 140 206 140 216.5 135 c 128,-1,48
 227 130 227 130 248 130 c 256,49,50
 269 130 269 130 294.5 142 c 128,-1,51
 320 154 320 154 341.5 174 c 128,-1,52
 363 194 363 194 377.5 218 c 128,-1,53
 392 242 392 242 392 265 c 256,54,55
 392 287 392 287 383 305 c 128,-1,56
 374 323 374 323 359 336 c 128,-1,57
 344 349 344 349 325 356 c 128,-1,58
 306 363 306 363 285 363 c 0,59,60
 258 363 258 363 240.5 347.5 c 128,-1,61
 223 332 223 332 213.5 309 c 128,-1,62
 204 286 204 286 200.5 259.5 c 128,-1,63
 197 233 197 233 197 211 c 0,44,45
121 524 m 0,64,65
 121 512 121 512 132.5 497 c 128,-1,66
 144 482 144 482 161 469 c 128,-1,67
 178 456 178 456 196 447 c 128,-1,68
 214 438 214 438 228 438 c 0,69,70
 244 438 244 438 259.5 454 c 128,-1,71
 275 470 275 470 287.5 491.5 c 128,-1,72
 300 513 300 513 308 534 c 128,-1,73
 316 555 316 555 316 564 c 0,74,75
 316 582 316 582 306.5 592 c 128,-1,76
 297 602 297 602 283.5 607 c 128,-1,77
 270 612 270 612 255 613 c 128,-1,78
 240 614 240 614 228 614 c 0,79,80
 209 614 209 614 190 608.5 c 128,-1,81
 171 603 171 603 156 591.5 c 128,-1,82
 141 580 141 580 131 563 c 128,-1,83
 121 546 121 546 121 524 c 0,64,65
EndSplineSet
EndChar

StartChar: nine
Encoding: 57 57 28
Width: 415
VWidth: 851
Flags: HW
LayerCount: 2
Fore
SplineSet
301 409 m 1,0,1
 281 389 281 389 265 377.5 c 128,-1,2
 249 366 249 366 232.5 359.5 c 128,-1,3
 216 353 216 353 198 351 c 128,-1,4
 180 349 180 349 157 349 c 0,5,6
 139 349 139 349 123.5 352 c 128,-1,7
 108 355 108 355 95.5 362.5 c 128,-1,8
 83 370 83 370 76 383 c 128,-1,9
 69 396 69 396 69 416 c 0,10,11
 69 450 69 450 80 480.5 c 128,-1,12
 91 511 91 511 111.5 534 c 128,-1,13
 132 557 132 557 160.5 570.5 c 128,-1,14
 189 584 189 584 224 584 c 0,15,16
 237 584 237 584 260 581.5 c 128,-1,17
 283 579 283 579 305 572 c 128,-1,18
 327 565 327 565 343.5 554 c 128,-1,19
 360 543 360 543 358 525 c 1,20,21
 365 429 365 429 371.5 329.5 c 128,-1,22
 378 230 378 230 378 132 c 0,23,24
 378 129 378 129 378 122 c 128,-1,25
 378 115 378 115 378 107 c 128,-1,26
 378 99 378 99 378 92 c 128,-1,27
 378 85 378 85 378 83 c 1,28,29
 354 75 354 75 343.5 90.5 c 128,-1,30
 333 106 333 106 330.5 135 c 128,-1,31
 328 164 328 164 330 202.5 c 128,-1,32
 332 241 332 241 331 280 c 128,-1,33
 330 319 330 319 324.5 353 c 128,-1,34
 319 387 319 387 301 409 c 1,0,1
108 418 m 0,35,36
 108 408 108 408 113 402 c 128,-1,37
 118 396 118 396 125.5 393 c 128,-1,38
 133 390 133 390 141.5 389.5 c 128,-1,39
 150 389 150 389 158 389 c 0,40,41
 178 389 178 389 192.5 392 c 128,-1,42
 207 395 207 395 220.5 402 c 128,-1,43
 234 409 234 409 249 420 c 128,-1,44
 264 431 264 431 282 448 c 1,45,46
 282 450 282 450 282 454 c 128,-1,47
 282 458 282 458 282.5 462.5 c 128,-1,48
 283 467 283 467 283.5 471 c 128,-1,49
 284 475 284 475 284 477 c 0,50,51
 284 510 284 510 265 528.5 c 128,-1,52
 246 547 246 547 214 547 c 0,53,54
 191 547 191 547 171.5 535 c 128,-1,55
 152 523 152 523 138 504 c 128,-1,56
 124 485 124 485 116 462 c 128,-1,57
 108 439 108 439 108 418 c 0,35,36
EndSplineSet
EndChar

StartChar: colon
Encoding: 58 58 29
Width: 183
VWidth: 843
Flags: HW
LayerCount: 2
Fore
SplineSet
91 191 m 0,0,1
 91 205 91 205 97.5 217.5 c 128,-1,2
 104 230 104 230 122 230 c 256,3,4
 139 230 139 230 145.5 217.5 c 128,-1,5
 152 205 152 205 152 190 c 0,6,7
 152 173 152 173 145 162.5 c 128,-1,8
 138 152 138 152 112 152 c 0,9,10
 104 152 104 152 99.5 156.5 c 128,-1,11
 95 161 95 161 93.5 167 c 128,-1,12
 92 173 92 173 91.5 180 c 128,-1,13
 91 187 91 187 91 191 c 0,0,1
53 431 m 0,14,15
 53 439 53 439 57 445.5 c 128,-1,16
 61 452 61 452 70 454 c 128,-1,17
 79 456 79 456 94 453 c 128,-1,18
 109 450 109 450 131 440 c 1,19,20
 121 425 121 425 110.5 413 c 128,-1,21
 100 401 100 401 83 401 c 0,22,23
 70 401 70 401 61.5 409.5 c 128,-1,24
 53 418 53 418 53 431 c 0,14,15
EndSplineSet
EndChar

StartChar: semicolon
Encoding: 59 59 30
Width: 156
VWidth: 792
Flags: HW
LayerCount: 2
Fore
SplineSet
106 -52 m 0,0,1
 106 -49 106 -49 103 -37.5 c 128,-1,2
 100 -26 100 -26 96.5 -13.5 c 128,-1,3
 93 -1 93 -1 90 10.5 c 128,-1,4
 87 22 87 22 86 25 c 0,5,6
 85 27 85 27 85 37 c 128,-1,7
 85 47 85 47 85 49 c 1,8,9
 101 49 101 49 112.5 39.5 c 128,-1,10
 124 30 124 30 131 16 c 128,-1,11
 138 2 138 2 141.5 -14 c 128,-1,12
 145 -30 145 -30 145 -43 c 0,13,14
 145 -55 145 -55 140 -67 c 128,-1,15
 135 -79 135 -79 126.5 -89.5 c 128,-1,16
 118 -100 118 -100 107 -107 c 128,-1,17
 96 -114 96 -114 83 -114 c 1,18,19
 83 -112 83 -112 84 -102.5 c 128,-1,20
 85 -93 85 -93 86 -91 c 0,21,22
 87 -89 87 -89 90 -83.5 c 128,-1,23
 93 -78 93 -78 96.5 -71.5 c 128,-1,24
 100 -65 100 -65 103 -59.5 c 128,-1,25
 106 -54 106 -54 106 -52 c 0,0,1
46 256 m 0,26,27
 46 277 46 277 54 288.5 c 128,-1,28
 62 300 62 300 86 313 c 1,29,30
 95 311 95 311 99.5 305 c 128,-1,31
 104 299 104 299 106 291.5 c 128,-1,32
 108 284 108 284 108 276.5 c 128,-1,33
 108 269 108 269 108 263 c 0,34,35
 108 253 108 253 107.5 244.5 c 128,-1,36
 107 236 107 236 103 230 c 128,-1,37
 99 224 99 224 90.5 220.5 c 128,-1,38
 82 217 82 217 67 217 c 0,39,40
 59 217 59 217 55 221.5 c 128,-1,41
 51 226 51 226 49 232.5 c 128,-1,42
 47 239 47 239 46.5 245.5 c 128,-1,43
 46 252 46 252 46 256 c 0,26,27
EndSplineSet
EndChar

StartChar: less
Encoding: 60 60 31
Width: 422
VWidth: 844
Flags: HW
LayerCount: 2
Fore
SplineSet
94 240 m 0,0,1
 94 242 94 242 94.5 245 c 128,-1,2
 95 248 95 248 96 249 c 2,3,-1
 308 537 l 1,4,-1
 331 537 l 1,5,6
 331 512 331 512 320 485 c 128,-1,7
 309 458 309 458 292.5 432 c 128,-1,8
 276 406 276 406 255.5 381 c 128,-1,9
 235 356 235 356 215 334.5 c 128,-1,10
 195 313 195 313 178.5 295.5 c 128,-1,11
 162 278 162 278 154 269 c 1,12,-1
 154 230 l 1,13,14
 162 227 162 227 178.5 219.5 c 128,-1,15
 195 212 195 212 216 203 c 128,-1,16
 237 194 237 194 260 183.5 c 128,-1,17
 283 173 283 173 303.5 163.5 c 128,-1,18
 324 154 324 154 340.5 146 c 0,19,20
 356 138 356 138 364 134 c 0,21,22
 367 132 367 132 373.5 127.5 c 128,-1,23
 380 123 380 123 386 116.5 c 128,-1,24
 392 110 392 110 397 104.5 c 128,-1,25
 402 99 402 99 404 96 c 1,26,27
 398 84 398 84 392 80 c 128,-1,28
 386 76 386 76 375 76 c 0,29,30
 367 76 367 76 343.5 87 c 128,-1,31
 320 98 320 98 288.5 114.5 c 128,-1,32
 257 131 257 131 223 150.5 c 128,-1,33
 189 170 189 170 160.5 188 c 128,-1,34
 132 206 132 206 113 220.5 c 128,-1,35
 94 235 94 235 94 240 c 0,0,1
EndSplineSet
EndChar

StartChar: equal
Encoding: 61 61 32
Width: 413
VWidth: 827
Flags: HW
LayerCount: 2
Fore
SplineSet
118 190 m 1,0,1
 128 192 128 192 151.5 195.5 c 128,-1,2
 175 199 175 199 203.5 202 c 128,-1,3
 232 205 232 205 263.5 206.5 c 128,-1,4
 295 208 295 208 321.5 208.5 c 128,-1,5
 348 209 348 209 366.5 207 c 128,-1,6
 385 205 385 205 389 199 c 1,7,-1
 389 175 l 2,8,9
 389 174 389 174 374 174 c 128,-1,10
 359 174 359 174 335 173.5 c 128,-1,11
 311 173 311 173 280.5 172 c 128,-1,12
 250 171 250 171 220.5 170 c 128,-1,13
 191 169 191 169 164.5 166.5 c 128,-1,14
 138 164 138 164 121 162 c 0,15,16
 120 162 120 162 120 166.5 c 128,-1,17
 120 171 120 171 120 176 c 128,-1,18
 120 181 120 181 120 185.5 c 128,-1,19
 120 190 120 190 118 190 c 1,0,1
114 295 m 1,20,21
 140 298 140 298 172 302.5 c 128,-1,22
 204 307 204 307 238.5 310 c 128,-1,23
 273 313 273 313 308 315 c 128,-1,24
 343 317 343 317 376 317 c 1,25,-1
 376 277 l 1,26,-1
 114 266 l 1,27,-1
 114 295 l 1,20,21
EndSplineSet
EndChar

StartChar: greater
Encoding: 62 62 33
Width: 384
VWidth: 853
Flags: HW
LayerCount: 2
Fore
SplineSet
318 354 m 1,0,-1
 87 546 l 1,1,-1
 87 604 l 1,2,3
 95 597 95 597 111.5 583.5 c 128,-1,4
 128 570 128 570 149 553 c 128,-1,5
 170 536 170 536 193 517 c 128,-1,6
 216 498 216 498 237 481 c 128,-1,7
 258 464 258 464 274 450.5 c 128,-1,8
 290 437 290 437 299 431 c 0,9,10
 308 424 308 424 321 418.5 c 128,-1,11
 334 413 334 413 346.5 406 c 128,-1,12
 359 399 359 399 368 389.5 c 128,-1,13
 377 380 377 380 377 365 c 0,14,15
 377 363 377 363 376.5 359.5 c 128,-1,16
 376 356 376 356 375 354 c 0,17,18
 368 345 368 345 355 325 c 128,-1,19
 342 305 342 305 325 281 c 128,-1,20
 308 257 308 257 289 229.5 c 128,-1,21
 270 202 270 202 253 177.5 c 128,-1,22
 236 153 236 153 222.5 133.5 c 128,-1,23
 209 114 209 114 203 105 c 0,24,25
 195 94 195 94 186.5 87.5 c 128,-1,26
 178 81 178 81 164 81 c 1,27,-1
 164 124 l 1,28,-1
 318 354 l 1,0,-1
EndSplineSet
EndChar

StartChar: question
Encoding: 63 63 34
Width: 373
VWidth: 861
Flags: HW
LayerCount: 2
Fore
SplineSet
204 122 m 0,0,1
 204 132 204 132 208.5 138.5 c 128,-1,2
 213 145 213 145 224 151 c 1,3,4
 236 145 236 145 240 139 c 128,-1,5
 244 133 244 133 244 122 c 0,6,7
 244 111 244 111 240 105 c 128,-1,8
 236 99 236 99 224 93 c 1,9,10
 213 99 213 99 208.5 105 c 128,-1,11
 204 111 204 111 204 122 c 0,0,1
165 392 m 0,12,13
 165 414 165 414 177 428.5 c 128,-1,14
 189 443 189 443 206 455 c 128,-1,15
 223 467 223 467 243.5 476.5 c 128,-1,16
 264 486 264 486 281.5 497.5 c 128,-1,17
 299 509 299 509 310.5 525 c 128,-1,18
 322 541 322 541 322 564 c 0,19,20
 322 580 322 580 311 590 c 128,-1,21
 300 600 300 600 285 605.5 c 128,-1,22
 270 611 270 611 253 612.5 c 128,-1,23
 236 614 236 614 225 614 c 0,24,25
 204 614 204 614 184.5 604.5 c 128,-1,26
 165 595 165 595 147 583.5 c 128,-1,27
 129 572 129 572 112.5 562.5 c 128,-1,28
 96 553 96 553 81 553 c 0,29,30
 70 553 70 553 63.5 557.5 c 128,-1,31
 57 562 57 562 51 573 c 1,32,33
 65 593 65 593 83 608 c 128,-1,34
 101 623 101 623 122 632.5 c 128,-1,35
 143 642 143 642 166 647 c 128,-1,36
 189 652 189 652 212 652 c 0,37,38
 229 652 229 652 254 647.5 c 128,-1,39
 279 643 279 643 303 633 c 128,-1,40
 327 623 327 623 343.5 606 c 128,-1,41
 360 589 360 589 360 564 c 0,42,43
 360 538 360 538 343 510 c 128,-1,44
 326 482 326 482 303 457 c 128,-1,45
 280 432 280 432 255.5 412 c 128,-1,46
 231 392 231 392 215 381 c 1,47,-1
 215 291 l 1,48,49
 197 291 197 291 187 302 c 128,-1,50
 177 313 177 313 172.5 328.5 c 128,-1,51
 168 344 168 344 166.5 361.5 c 128,-1,52
 165 379 165 379 165 392 c 0,12,13
EndSplineSet
EndChar

StartChar: at
Encoding: 64 64 35
Width: 821
VWidth: 876
Flags: HW
LayerCount: 2
Fore
SplineSet
135 365 m 0,0,1
 135 417 135 417 149.5 466 c 128,-1,2
 164 515 164 515 190.5 559.5 c 128,-1,3
 217 604 217 604 253 641 c 128,-1,4
 289 678 289 678 332.5 705 c 128,-1,5
 376 732 376 732 425.5 747 c 128,-1,6
 475 762 475 762 528 762 c 0,7,8
 562 762 562 762 596.5 754 c 128,-1,9
 631 746 631 746 662.5 730.5 c 128,-1,10
 694 715 694 715 720.5 693.5 c 128,-1,11
 747 672 747 672 765 644 c 128,-1,12
 783 616 783 616 790.5 583 c 128,-1,13
 798 550 798 550 792 512 c 1,14,15
 792 470 792 470 779.5 438 c 128,-1,16
 767 406 767 406 750 378 c 128,-1,17
 733 350 733 350 716.5 322.5 c 128,-1,18
 700 295 700 295 692 262 c 0,19,20
 691 259 691 259 693 253 c 128,-1,21
 695 247 695 247 698 241 c 128,-1,22
 701 235 701 235 705 230 c 128,-1,23
 709 225 709 225 712 224 c 1,24,25
 684 190 684 190 656 167.5 c 128,-1,26
 628 145 628 145 597 131.5 c 128,-1,27
 566 118 566 118 531 112.5 c 128,-1,28
 496 107 496 107 453 107 c 0,29,30
 395 107 395 107 337.5 121.5 c 128,-1,31
 280 136 280 136 235 167 c 128,-1,32
 190 198 190 198 162.5 247 c 128,-1,33
 135 296 135 296 135 365 c 0,0,1
190 377 m 1,34,35
 186 315 186 315 207.5 271 c 128,-1,36
 229 227 229 227 268 201 c 128,-1,37
 307 175 307 175 357 166 c 128,-1,38
 407 157 407 157 460 164 c 1,39,40
 483 164 483 164 510.5 164 c 128,-1,41
 538 164 538 164 565 169.5 c 128,-1,42
 592 175 592 175 615.5 187 c 128,-1,43
 639 199 639 199 654 224 c 1,44,45
 647 222 647 222 631 221 c 128,-1,46
 615 220 615 220 596.5 220 c 128,-1,47
 578 220 578 220 561.5 221 c 128,-1,48
 545 222 545 222 538 224 c 0,49,50
 534 225 534 225 523.5 234 c 128,-1,51
 513 243 513 243 500.5 253.5 c 128,-1,52
 488 264 488 264 477 272.5 c 128,-1,53
 466 281 466 281 462 281 c 0,54,55
 458 281 458 281 440.5 276 c 128,-1,56
 423 271 423 271 404 263.5 c 128,-1,57
 385 256 385 256 368 250 c 128,-1,58
 351 244 351 244 346 243 c 0,59,60
 330 239 330 239 316.5 249 c 128,-1,61
 303 259 303 259 292.5 275 c 128,-1,62
 282 291 282 291 276 309.5 c 128,-1,63
 270 328 270 328 270 339 c 0,64,65
 270 371 270 371 283.5 411 c 128,-1,66
 297 451 297 451 320 486 c 128,-1,67
 343 521 343 521 374.5 545.5 c 128,-1,68
 406 570 406 570 442 570 c 0,69,70
 466 570 466 570 484 560 c 128,-1,71
 502 550 502 550 514.5 534.5 c 128,-1,72
 527 519 527 519 533 498.5 c 128,-1,73
 539 478 539 478 539 455 c 0,74,75
 539 437 539 437 536 420 c 128,-1,76
 533 403 533 403 529 386.5 c 128,-1,77
 525 370 525 370 522 352.5 c 128,-1,78
 519 335 519 335 519 318 c 0,79,80
 519 308 519 308 522.5 298 c 128,-1,81
 526 288 526 288 532 280 c 128,-1,82
 538 272 538 272 546.5 267 c 128,-1,83
 555 262 555 262 566 262 c 0,84,85
 617 262 617 262 652.5 286 c 128,-1,86
 688 310 688 310 710 346.5 c 128,-1,87
 732 383 732 383 741.5 427.5 c 128,-1,88
 751 472 751 472 751 513 c 0,89,90
 751 563 751 563 735 602 c 128,-1,91
 719 641 719 641 690 668.5 c 128,-1,92
 661 696 661 696 619.5 710 c 128,-1,93
 578 724 578 724 527 724 c 0,94,95
 454 724 454 724 392.5 695.5 c 128,-1,96
 331 667 331 667 286 618.5 c 128,-1,97
 241 570 241 570 215.5 507.5 c 128,-1,98
 190 445 190 445 190 377 c 1,34,35
488 518 m 1,99,100
 438 518 438 518 405.5 500.5 c 128,-1,101
 373 483 373 483 353 453 c 128,-1,102
 333 423 333 423 324.5 382 c 128,-1,103
 316 341 316 341 316 295 c 1,104,105
 370 295 370 295 404 311.5 c 128,-1,106
 438 328 438 328 456.5 358 c 128,-1,107
 475 388 475 388 481.5 428.5 c 128,-1,108
 488 469 488 469 488 518 c 1,99,100
EndSplineSet
EndChar

StartChar: A
Encoding: 65 65 36
Width: 464
VWidth: 875
Flags: HW
LayerCount: 2
Fore
SplineSet
246 730 m 1,0,1
 283 730 283 730 310.5 709 c 128,-1,2
 338 688 338 688 358.5 652 c 128,-1,3
 379 616 379 616 393 568.5 c 128,-1,4
 407 521 407 521 416 469.5 c 128,-1,5
 425 418 425 418 430 365.5 c 128,-1,6
 435 313 435 313 437 267 c 128,-1,7
 439 221 439 221 439.5 184 c 128,-1,8
 440 147 440 147 440 127 c 1,9,-1
 416 127 l 1,10,-1
 378 337 l 1,11,12
 373 342 373 342 355.5 343 c 128,-1,13
 338 344 338 344 314.5 342 c 128,-1,14
 291 340 291 340 263.5 337 c 128,-1,15
 236 334 236 334 211.5 332 c 128,-1,16
 187 330 187 330 167 330.5 c 128,-1,17
 147 331 147 331 138 337 c 1,18,-1
 138 127 l 1,19,-1
 87 127 l 1,20,21
 87 130 87 130 87.5 138 c 128,-1,22
 88 146 88 146 88 155 c 128,-1,23
 88 164 88 164 89 172.5 c 128,-1,24
 90 181 90 181 90 184 c 0,25,26
 96 242 96 242 99.5 301.5 c 128,-1,27
 103 361 103 361 108 416.5 c 128,-1,28
 113 472 113 472 121.5 523 c 128,-1,29
 130 574 130 574 146 615.5 c 128,-1,30
 162 657 162 657 186 686.5 c 128,-1,31
 210 716 210 716 246 730 c 1,0,1
262 685 m 1,32,33
 236 685 236 685 218.5 666 c 128,-1,34
 201 647 201 647 190 618 c 128,-1,35
 179 589 179 589 173 553 c 128,-1,36
 167 517 167 517 165 482.5 c 128,-1,37
 163 448 163 448 162.5 418 c 128,-1,38
 162 388 162 388 162 373 c 1,39,40
 211 373 211 373 262 380 c 128,-1,41
 313 387 313 387 358 395 c 1,42,43
 359 399 359 399 359.5 408.5 c 128,-1,44
 360 418 360 418 360.5 428.5 c 128,-1,45
 361 439 361 439 361.5 449 c 128,-1,46
 362 459 362 459 362 463 c 0,47,48
 362 495 362 495 358.5 525.5 c 128,-1,49
 355 556 355 556 344.5 584 c 128,-1,50
 334 612 334 612 314 637.5 c 128,-1,51
 294 663 294 663 262 685 c 1,32,33
EndSplineSet
EndChar

StartChar: B
Encoding: 66 66 37
Width: 570
VWidth: 870
Flags: HW
LayerCount: 2
Fore
SplineSet
129 602 m 1,0,1
 125 603 125 603 120 607.5 c 128,-1,2
 115 612 115 612 110.5 618 c 128,-1,3
 106 624 106 624 103 630 c 128,-1,4
 100 636 100 636 100 640 c 0,5,6
 103 673 103 673 124.5 689.5 c 128,-1,7
 146 706 146 706 174 712.5 c 128,-1,8
 202 719 202 719 232 719 c 128,-1,9
 262 719 262 719 283 719 c 0,10,11
 317 719 317 719 346.5 715.5 c 128,-1,12
 376 712 376 712 398.5 699.5 c 128,-1,13
 421 687 421 687 433.5 663.5 c 128,-1,14
 446 640 446 640 446 600 c 0,15,16
 446 580 446 580 444.5 565 c 128,-1,17
 443 550 443 550 439 535 c 128,-1,18
 435 520 435 520 427 504 c 0,19,20
 418 488 418 488 406 467 c 1,21,22
 447 453 447 453 474 441.5 c 128,-1,23
 501 430 501 430 516 414 c 128,-1,24
 531 398 531 398 536.5 374.5 c 128,-1,25
 542 351 542 351 542 314 c 0,26,27
 542 270 542 270 523.5 231 c 128,-1,28
 505 192 505 192 473 163 c 128,-1,29
 441 134 441 134 399 117.5 c 0,30,31
 356 101 356 101 310 101 c 0,32,33
 300 101 300 101 283 104.5 c 128,-1,34
 266 108 266 108 246 113.5 c 128,-1,35
 226 119 226 119 205 126.5 c 128,-1,36
 184 134 184 134 167.5 142.5 c 128,-1,37
 151 151 151 151 140 160.5 c 128,-1,38
 129 170 129 170 129 179 c 2,39,-1
 129 602 l 1,0,1
196 371 m 1,40,41
 198 346 198 346 194 320 c 128,-1,42
 190 294 190 294 187 270 c 128,-1,43
 184 246 184 246 184.5 225 c 128,-1,44
 185 204 185 204 196.5 186.5 c 128,-1,45
 208 169 208 169 232.5 156.5 c 0,46,47
 258 144 258 144 302 140 c 1,48,49
 339 140 339 140 375.5 153 c 128,-1,50
 412 166 412 166 440.5 190 c 128,-1,51
 469 214 469 214 487 246.5 c 128,-1,52
 505 279 505 279 505 318 c 0,53,54
 505 344 505 344 496 362 c 128,-1,55
 487 380 487 380 472 391 c 128,-1,56
 457 402 457 402 436.5 407.5 c 128,-1,57
 416 413 416 413 392 413 c 0,58,59
 364 413 364 413 340.5 411 c 128,-1,60
 317 409 317 409 294.5 404.5 c 128,-1,61
 272 400 272 400 248.5 392 c 128,-1,62
 225 384 225 384 196 371 c 1,40,41
176 474 m 0,63,64
 176 466 176 466 176.5 458 c 128,-1,65
 177 450 177 450 179.5 443 c 128,-1,66
 182 436 182 436 188 432 c 128,-1,67
 194 428 194 428 205 428 c 0,68,69
 239 428 239 428 274.5 441 c 128,-1,70
 310 454 310 454 340 476.5 c 128,-1,71
 370 499 370 499 389 531 c 128,-1,72
 408 563 408 563 408 601 c 0,73,74
 408 605 408 605 406 613 c 128,-1,75
 404 621 404 621 397 628.5 c 128,-1,76
 390 636 390 636 376 644 c 128,-1,77
 362 652 362 652 338.5 656.5 c 128,-1,78
 315 661 315 661 280 662.5 c 128,-1,79
 245 664 245 664 196 659 c 1,80,81
 194 657 194 657 191 646 c 128,-1,82
 188 635 188 635 186 618.5 c 128,-1,83
 184 602 184 602 182 582.5 c 128,-1,84
 180 563 180 563 178.5 543 c 128,-1,85
 177 523 177 523 176.5 505 c 128,-1,86
 176 487 176 487 176 474 c 0,63,64
EndSplineSet
EndChar

StartChar: C
Encoding: 67 67 38
Width: 508
VWidth: 870
Flags: HW
LayerCount: 2
Fore
SplineSet
85 362 m 0,0,1
 85 393 85 393 91.5 431.5 c 128,-1,2
 98 470 98 470 111 509.5 c 128,-1,3
 124 549 124 549 143.5 586.5 c 128,-1,4
 163 624 163 624 188.5 653.5 c 128,-1,5
 214 683 214 683 246.5 700.5 c 128,-1,6
 279 718 279 718 318 718 c 0,7,8
 346 718 346 718 365.5 707 c 128,-1,9
 385 696 385 696 397 678 c 128,-1,10
 409 660 409 660 414.5 638 c 128,-1,11
 420 616 420 616 420 593 c 1,12,13
 398 593 398 593 387 606.5 c 128,-1,14
 376 620 376 620 366.5 636 c 128,-1,15
 357 652 357 652 344.5 665.5 c 128,-1,16
 332 679 332 679 307 679 c 0,17,18
 273 679 273 679 248 661.5 c 128,-1,19
 223 644 223 644 204 615.5 c 128,-1,20
 185 587 185 587 172.5 551 c 128,-1,21
 160 515 160 515 152.5 479 c 128,-1,22
 145 443 145 443 142 409.5 c 128,-1,23
 139 376 139 376 139 352 c 1,24,25
 135 318 135 318 138.5 282 c 128,-1,26
 142 246 142 246 155 215.5 c 128,-1,27
 168 185 168 185 193 164.5 c 128,-1,28
 218 144 218 144 259 141 c 1,29,30
 285 141 285 141 317 149 c 128,-1,31
 349 157 349 157 380.5 168.5 c 128,-1,32
 412 180 412 180 441 194 c 128,-1,33
 470 208 470 208 490 218 c 1,34,-1
 490 179 l 1,35,36
 489 178 489 178 477.5 173.5 c 128,-1,37
 466 169 466 169 447.5 162.5 c 128,-1,38
 429 156 429 156 405.5 147.5 c 128,-1,39
 382 139 382 139 359 131 c 128,-1,40
 336 123 336 123 314.5 115.5 c 128,-1,41
 293 108 293 108 278 102 c 0,42,43
 277 102 277 102 274 102 c 128,-1,44
 271 102 271 102 269 102 c 0,45,46
 213 102 213 102 178 125.5 c 128,-1,47
 143 149 143 149 122 186.5 c 128,-1,48
 101 224 101 224 93 270.5 c 128,-1,49
 85 317 85 317 85 362 c 0,0,1
EndSplineSet
EndChar

StartChar: D
Encoding: 68 68 39
Width: 627
VWidth: 860
Flags: HW
LayerCount: 2
Fore
SplineSet
128 592 m 1,0,1
 126 594 126 594 123 599 c 128,-1,2
 120 604 120 604 117 610.5 c 128,-1,3
 114 617 114 617 111.5 622.5 c 128,-1,4
 109 628 109 628 109 630 c 0,5,6
 109 640 109 640 117 645 c 128,-1,7
 125 650 125 650 135 651 c 128,-1,8
 145 652 145 652 154.5 651.5 c 128,-1,9
 164 651 164 651 166 651 c 256,10,11
 168 651 168 651 174 651 c 128,-1,12
 180 651 180 651 186 650.5 c 128,-1,13
 192 650 192 650 197.5 649.5 c 128,-1,14
 203 649 203 649 205 649 c 1,15,16
 237 637 237 637 280 621 c 128,-1,17
 323 605 323 605 368 584 c 128,-1,18
 413 563 413 563 456 536.5 c 128,-1,19
 499 510 499 510 533 476.5 c 128,-1,20
 567 443 567 443 588 403 c 128,-1,21
 609 363 609 363 609 314 c 0,22,23
 609 272 609 272 592.5 238.5 c 128,-1,24
 576 205 576 205 550 180.5 c 128,-1,25
 524 156 524 156 489 138.5 c 128,-1,26
 454 121 454 121 417.5 110 c 128,-1,27
 381 99 381 99 343.5 94.5 c 128,-1,28
 306 90 306 90 275 90 c 0,29,30
 268 90 268 90 251 90.5 c 128,-1,31
 234 91 234 91 216 92 c 128,-1,32
 198 93 198 93 183 93.5 c 0,33,-1
 168 94 l 2,34,-1
 166 131 l 1,35,-1
 128 592 l 1,0,1
185 597 m 1,36,37
 185 595 185 595 185 588.5 c 128,-1,38
 185 582 185 582 185.5 575 c 128,-1,39
 186 568 186 568 186 561.5 c 128,-1,40
 186 555 186 555 186 553 c 0,41,42
 187 537 187 537 188.5 504 c 128,-1,43
 190 471 190 471 191.5 429.5 c 128,-1,44
 193 388 193 388 195.5 342.5 c 128,-1,45
 198 297 198 297 200 255 c 128,-1,46
 202 213 202 213 203 180 c 128,-1,47
 204 147 204 147 205 131 c 1,48,49
 210 131 210 131 224 130 c 128,-1,50
 238 129 238 129 253 129 c 128,-1,51
 268 129 268 129 281.5 128.5 c 128,-1,52
 295 128 295 128 301 128 c 0,53,54
 347 128 347 128 392 139 c 128,-1,55
 437 150 437 150 472.5 174 c 128,-1,56
 508 198 508 198 530 235.5 c 128,-1,57
 552 273 552 273 552 326 c 0,58,59
 552 365 552 365 534.5 400 c 128,-1,60
 517 435 517 435 487.5 465.5 c 128,-1,61
 458 496 458 496 420 520 c 128,-1,62
 382 544 382 544 341 561.5 c 128,-1,63
 300 579 300 579 259.5 588 c 128,-1,64
 219 597 219 597 185 597 c 1,36,37
EndSplineSet
EndChar

StartChar: E
Encoding: 69 69 40
Width: 587
VWidth: 873
Flags: HW
LayerCount: 2
Fore
SplineSet
98 644 m 1,0,1
 114 667 114 667 140 683.5 c 128,-1,2
 166 700 166 700 199 711 c 128,-1,3
 232 722 232 722 269 728 c 128,-1,4
 306 734 306 734 342.5 737 c 128,-1,5
 379 740 379 740 412.5 741 c 128,-1,6
 446 742 446 742 472 742 c 0,7,8
 474 742 474 742 481 741.5 c 128,-1,9
 488 741 488 741 496 740.5 c 128,-1,10
 504 740 504 740 511 740 c 128,-1,11
 518 740 518 740 520 740 c 1,12,13
 524 718 524 718 515.5 709.5 c 128,-1,14
 507 701 507 701 493.5 699.5 c 128,-1,15
 480 698 480 698 465.5 700.5 c 128,-1,16
 451 703 451 703 443 701 c 0,17,18
 433 699 433 699 412 695 c 128,-1,19
 391 691 391 691 364.5 685.5 c 128,-1,20
 338 680 338 680 309 673.5 c 128,-1,21
 280 667 280 667 253 661.5 c 128,-1,22
 226 656 226 656 205 651 c 128,-1,23
 184 646 184 646 175 644 c 1,24,25
 159 639 159 639 156.5 629.5 c 128,-1,26
 154 620 154 620 154 608 c 0,27,28
 154 588 154 588 157 561.5 c 128,-1,29
 160 535 160 535 163 509.5 c 128,-1,30
 166 484 166 484 169.5 463 c 128,-1,31
 173 442 173 442 175 432 c 1,32,33
 179 431 179 431 189.5 431 c 128,-1,34
 200 431 200 431 204 431 c 0,35,36
 227 431 227 431 249.5 435 c 128,-1,37
 272 439 272 439 294 444 c 128,-1,38
 316 449 316 449 339 452.5 c 128,-1,39
 362 456 362 456 386 456 c 1,40,-1
 386 419 l 1,41,42
 376 419 376 419 357.5 417.5 c 128,-1,43
 339 416 339 416 317.5 412 c 128,-1,44
 296 408 296 408 274 403.5 c 128,-1,45
 252 399 252 399 234 394 c 128,-1,46
 216 389 216 389 205 384 c 128,-1,47
 194 379 194 379 194 374 c 2,48,-1
 194 166 l 1,49,50
 241 166 241 166 287.5 169 c 128,-1,51
 334 172 334 172 381 175.5 c 128,-1,52
 428 179 428 179 474.5 182 c 0,53,54
 520 185 520 185 568 185 c 1,55,56
 568 172 568 172 560.5 165 c 128,-1,57
 553 158 553 158 542 153.5 c 128,-1,58
 531 149 531 149 519.5 147 c 128,-1,59
 508 145 508 145 501 144 c 0,60,61
 497 143 497 143 476 141 c 128,-1,62
 455 139 455 139 424 135 c 128,-1,63
 393 131 393 131 355 127 c 128,-1,64
 317 123 317 123 280 119 c 128,-1,65
 243 115 243 115 210 111.5 c 128,-1,66
 177 108 177 108 155 106 c 0,67,68
 152 105 152 105 146 105 c 1,69,70
 146 239 146 239 138 375.5 c 128,-1,71
 130 512 130 512 98 644 c 1,0,1
EndSplineSet
EndChar

StartChar: F
Encoding: 70 70 41
Width: 491
VWidth: 880
Flags: HW
LayerCount: 2
Fore
SplineSet
113 630 m 1,0,1
 110 631 110 631 106 636.5 c 128,-1,2
 102 642 102 642 99 648 c 128,-1,3
 96 654 96 654 94.5 660 c 128,-1,4
 93 666 93 666 93 669 c 0,5,6
 94 673 94 673 99 678.5 c 128,-1,7
 104 684 104 684 110.5 690.5 c 128,-1,8
 117 697 117 697 123 702 c 128,-1,9
 129 707 129 707 132 708 c 0,10,11
 144 711 144 711 169.5 717 c 128,-1,12
 195 723 195 723 227 731 c 128,-1,13
 259 739 259 739 294.5 747.5 c 128,-1,14
 330 756 330 756 362.5 763.5 c 128,-1,15
 395 771 395 771 420.5 776.5 c 128,-1,16
 446 782 446 782 459 784 c 0,17,18
 463 785 463 785 474.5 786 c 128,-1,19
 486 787 486 787 499 788 c 128,-1,20
 512 789 512 789 523.5 790 c 128,-1,21
 535 791 535 791 540 791 c 1,22,23
 540 772 540 772 535.5 764 c 128,-1,24
 531 756 531 756 522 753 c 128,-1,25
 513 750 513 750 502 749.5 c 128,-1,26
 491 749 491 749 477 746 c 0,27,28
 467 743 467 743 444 737.5 c 128,-1,29
 421 732 421 732 393 724.5 c 128,-1,30
 365 717 365 717 333.5 708.5 c 128,-1,31
 302 700 302 700 274 692 c 128,-1,32
 246 684 246 684 223 678 c 128,-1,33
 200 672 200 672 189 669 c 1,34,35
 174 652 174 652 172 638 c 128,-1,36
 170 624 170 624 170 604 c 0,37,38
 170 561 170 561 175.5 522.5 c 128,-1,39
 181 484 181 484 189 438 c 1,40,41
 191 438 191 438 194.5 438 c 128,-1,42
 198 438 198 438 200 438 c 0,43,44
 227 438 227 438 253 444 c 128,-1,45
 279 450 279 450 304.5 458 c 128,-1,46
 330 466 330 466 356 472.5 c 128,-1,47
 382 479 382 479 411 479 c 0,48,49
 415 479 415 479 424 478.5 c 128,-1,50
 433 478 433 478 442 476 c 128,-1,51
 451 474 451 474 456.5 469.5 c 128,-1,52
 462 465 462 465 459 458 c 1,53,-1
 200 381 l 1,54,-1
 200 106 l 1,55,56
 182 106 182 106 172 110.5 c 128,-1,57
 162 115 162 115 158 123.5 c 128,-1,58
 154 132 154 132 153 144 c 128,-1,59
 152 156 152 156 151 170 c 0,60,61
 149 187 149 187 146.5 223 c 128,-1,62
 144 259 144 259 140 304.5 c 128,-1,63
 136 350 136 350 132 400 c 128,-1,64
 128 450 128 450 124 495.5 c 128,-1,65
 120 541 120 541 117.5 577 c 128,-1,66
 115 613 115 613 113 630 c 1,0,1
EndSplineSet
EndChar

StartChar: G
Encoding: 71 71 42
Width: 654
VWidth: 864
Flags: HW
LayerCount: 2
Fore
SplineSet
573 162 m 1,0,1
 534 142 534 142 504 130 c 128,-1,2
 474 118 474 118 446.5 111.5 c 128,-1,3
 419 105 419 105 390 103 c 128,-1,4
 361 101 361 101 324 101 c 0,5,6
 275 101 275 101 236 112.5 c 128,-1,7
 197 124 197 124 170 147.5 c 128,-1,8
 143 171 143 171 128 207.5 c 128,-1,9
 113 244 113 244 113 296 c 0,10,11
 113 342 113 342 122 394.5 c 128,-1,12
 131 447 131 447 149.5 498.5 c 128,-1,13
 168 550 168 550 195.5 597.5 c 128,-1,14
 223 645 223 645 260 681 c 128,-1,15
 297 717 297 717 343 738.5 c 128,-1,16
 389 760 389 760 445 760 c 0,17,18
 467 760 467 760 495.5 756 c 128,-1,19
 524 752 524 752 550.5 741 c 128,-1,20
 577 730 577 730 595.5 711 c 128,-1,21
 614 692 614 692 614 662 c 1,22,23
 613 651 613 651 603 651 c 128,-1,24
 593 651 593 651 577 658 c 128,-1,25
 561 665 561 665 541.5 676 c 128,-1,26
 522 687 522 687 504 697 c 128,-1,27
 486 707 486 707 471 714 c 128,-1,28
 456 721 456 721 449 719 c 1,29,30
 401 719 401 719 361.5 700.5 c 128,-1,31
 322 682 322 682 290.5 651 c 128,-1,32
 259 620 259 620 235.5 579.5 c 128,-1,33
 212 539 212 539 197 495.5 c 128,-1,34
 182 452 182 452 174.5 408 c 128,-1,35
 167 364 167 364 167 326 c 1,36,37
 159 279 159 279 171.5 244 c 128,-1,38
 184 209 184 209 209 186.5 c 128,-1,39
 234 164 234 164 269 153 c 128,-1,40
 304 142 304 142 341.5 141 c 128,-1,41
 379 140 379 140 416 148 c 128,-1,42
 453 156 453 156 483.5 173 c 128,-1,43
 514 190 514 190 533.5 215 c 128,-1,44
 553 240 553 240 556 272 c 1,45,46
 556 304 556 304 543.5 325.5 c 128,-1,47
 531 347 531 347 511 362 c 128,-1,48
 491 377 491 377 464 386 c 128,-1,49
 437 395 437 395 409.5 400 c 128,-1,50
 382 405 382 405 354.5 407.5 c 128,-1,51
 327 410 327 410 305 412 c 1,52,-1
 305 430 l 2,53,54
 305 432 305 432 331 437 c 128,-1,55
 357 442 357 442 394 448 c 128,-1,56
 431 454 431 454 470 460 c 128,-1,57
 509 466 509 466 535 470 c 0,58,59
 536 470 536 470 540.5 470 c 128,-1,60
 545 470 545 470 551 470 c 128,-1,61
 557 470 557 470 563 470 c 128,-1,62
 569 470 569 470 573 470 c 0,63,64
 575 470 575 470 581 470 c 128,-1,65
 587 470 587 470 593 470 c 128,-1,66
 599 470 599 470 604 470 c 128,-1,67
 609 470 609 470 611 470 c 1,68,69
 612 456 612 456 613.5 425 c 128,-1,70
 615 394 615 394 617 356.5 c 128,-1,71
 619 319 619 319 621 277.5 c 128,-1,72
 623 236 623 236 625 198 c 128,-1,73
 627 160 627 160 628.5 130 c 128,-1,74
 630 100 630 100 631 86 c 0,75,76
 631 82 631 82 631.5 70.5 c 128,-1,77
 632 59 632 59 632 46.5 c 128,-1,78
 632 34 632 34 632 23.5 c 128,-1,79
 632 13 632 13 632 8 c 1,80,-1
 611 8 l 1,81,-1
 573 162 l 1,0,1
573 374 m 1,82,-1
 573 434 l 1,83,84
 558 434 558 434 542.5 426.5 c 128,-1,85
 527 419 527 419 515 412 c 1,86,-1
 573 374 l 1,82,-1
EndSplineSet
EndChar

StartChar: H
Encoding: 72 72 43
Width: 445
VWidth: 896
Flags: HW
LayerCount: 2
Fore
SplineSet
80 329 m 0,0,1
 80 401 80 401 81 465.5 c 128,-1,2
 82 530 82 530 84 592 c 128,-1,3
 86 654 86 654 90.5 719 c 0,4,5
 96 784 96 784 102 858 c 1,6,-1
 131 858 l 1,7,-1
 131 474 l 1,8,-1
 349 474 l 1,9,10
 348 510 348 510 348 551.5 c 128,-1,11
 348 593 348 593 347 635.5 c 128,-1,12
 346 678 346 678 345.5 719 c 128,-1,13
 345 760 345 760 344.5 795.5 c 128,-1,14
 344 831 344 831 344 858 c 128,-1,15
 344 885 344 885 344 900 c 1,16,17
 348 900 348 900 355.5 899 c 128,-1,18
 363 898 363 898 370.5 895 c 128,-1,19
 378 892 378 892 384 888 c 128,-1,20
 390 884 390 884 390 876 c 2,21,-1
 390 128 l 1,22,-1
 359 134 l 2,23,24
 357 134 357 134 356 146.5 c 128,-1,25
 355 159 355 159 354.5 179 c 128,-1,26
 354 199 354 199 353.5 224 c 128,-1,27
 353 249 353 249 352.5 273.5 c 128,-1,28
 352 298 352 298 351.5 320.5 c 128,-1,29
 351 343 351 343 351 358 c 1,30,31
 350 372 350 372 350 395.5 c 128,-1,32
 350 419 350 419 350 451 c 1,33,-1
 131 411 l 1,34,-1
 129 126 l 1,35,-1
 81 126 l 1,36,37
 81 128 81 128 80.5 140.5 c 128,-1,38
 80 153 80 153 80 172.5 c 128,-1,39
 80 192 80 192 80 215.5 c 128,-1,40
 80 239 80 239 80 261.5 c 128,-1,41
 80 284 80 284 80 301.5 c 128,-1,42
 80 319 80 319 80 329 c 0,0,1
EndSplineSet
EndChar

StartChar: I
Encoding: 73 73 44
Width: 116
VWidth: 890
Flags: HW
LayerCount: 2
Fore
SplineSet
30 825 m 2,0,1
 30 837 30 837 39 845 c 128,-1,2
 48 853 48 853 60 853 c 0,3,4
 61 853 61 853 64.5 853 c 128,-1,5
 68 853 68 853 69 852 c 1,6,7
 74 769 74 769 78 693 c 128,-1,8
 82 617 82 617 84.5 544.5 c 128,-1,9
 87 472 87 472 88.5 399 c 128,-1,10
 90 326 90 326 90 247 c 0,11,12
 90 236 90 236 91 217.5 c 128,-1,13
 92 199 92 199 94 180.5 c 128,-1,14
 96 162 96 162 97 147.5 c 0,15,-1
 98 133 l 2,16,-1
 55 124 l 1,17,18
 53 164 53 164 51 218 c 128,-1,19
 49 272 49 272 47.5 332.5 c 128,-1,20
 46 393 46 393 44.5 457.5 c 128,-1,21
 43 522 43 522 40.5 585 c 128,-1,22
 38 648 38 648 35.5 706.5 c 128,-1,23
 33 765 33 765 30 814 c 1,24,-1
 30 825 l 2,0,1
EndSplineSet
EndChar

StartChar: J
Encoding: 74 74 45
Width: 527
VWidth: 886
Flags: HW
LayerCount: 2
Fore
SplineSet
95 273 m 0,0,1
 95 286 95 286 96.5 296 c 128,-1,2
 98 306 98 306 114 311 c 1,3,4
 130 304 130 304 138.5 289.5 c 128,-1,5
 147 275 147 275 152.5 257 c 128,-1,6
 158 239 158 239 162.5 220 c 128,-1,7
 167 201 167 201 176 186 c 128,-1,8
 185 171 185 171 202 162.5 c 128,-1,9
 219 154 219 154 248 157 c 0,10,11
 300 162 300 162 336 175.5 c 128,-1,12
 372 189 372 189 395.5 209 c 128,-1,13
 419 229 419 229 432.5 256 c 128,-1,14
 446 283 446 283 452.5 316 c 128,-1,15
 459 349 459 349 460.5 387.5 c 128,-1,16
 462 426 462 426 462 470 c 0,17,18
 462 515 462 515 455.5 559 c 128,-1,19
 449 603 449 603 441.5 646.5 c 128,-1,20
 434 690 434 690 427.5 733.5 c 128,-1,21
 421 777 421 777 421 821 c 0,22,23
 421 826 421 826 421.5 829.5 c 128,-1,24
 422 833 422 833 426.5 834.5 c 128,-1,25
 431 836 431 836 438.5 835 c 128,-1,26
 446 834 446 834 460 829 c 1,27,28
 462 827 462 827 465 815 c 128,-1,29
 468 803 468 803 472 784 c 128,-1,30
 476 765 476 765 480 742 c 128,-1,31
 484 719 484 719 487.5 696 c 128,-1,32
 491 673 491 673 494 652.5 c 128,-1,33
 497 632 497 632 498 618 c 0,34,35
 502 558 502 558 508 496 c 128,-1,36
 514 434 514 434 513 376 c 128,-1,37
 512 318 512 318 500.5 268.5 c 128,-1,38
 489 219 489 219 459 183.5 c 128,-1,39
 429 148 429 148 376 129.5 c 128,-1,40
 323 111 323 111 240 117 c 1,41,42
 210 117 210 117 183.5 130.5 c 128,-1,43
 157 144 157 144 137.5 166 c 128,-1,44
 118 188 118 188 106.5 216 c 128,-1,45
 95 244 95 244 95 273 c 0,0,1
EndSplineSet
EndChar

StartChar: K
Encoding: 75 75 46
Width: 553
VWidth: 889
Flags: HW
LayerCount: 2
Fore
SplineSet
111 703 m 0,0,1
 111 711 111 711 111 731.5 c 128,-1,2
 111 752 111 752 111 775 c 128,-1,3
 111 798 111 798 111.5 818.5 c 128,-1,4
 112 839 112 839 112 847 c 1,5,-1
 139 847 l 1,6,7
 140 826.5 l 0,8,9
 141 806 141 806 142.5 771.5 c 128,-1,10
 144 737 144 737 146 690.5 c 128,-1,11
 148 644 148 644 150.5 591.5 c 128,-1,12
 153 539 153 539 155.5 483.5 c 128,-1,13
 158 428 158 428 160.5 376 c 128,-1,14
 163 324 163 324 165 276.5 c 128,-1,15
 167 229 167 229 170 194 c 0,16,17
 170 193 170 193 169.5 187.5 c 128,-1,18
 169 182 169 182 168.5 175 c 128,-1,19
 168 168 168 168 167.5 161.5 c 0,20,21
 167 154 167 154 167 152 c 0,22,23
 167 143 167 143 166.5 137.5 c 128,-1,24
 166 132 166 132 162.5 128 c 128,-1,25
 159 124 159 124 151 122 c 128,-1,26
 143 120 143 120 128 117 c 1,27,28
 126 130 126 130 124.5 169.5 c 128,-1,29
 123 209 123 209 121 263 c 128,-1,30
 119 317 119 317 116.5 380 c 128,-1,31
 114 443 114 443 112.5 503.5 c 128,-1,32
 111 564 111 564 110 616.5 c 128,-1,33
 109 669 109 669 111 703 c 0,0,1
380 409 m 1,34,35
 351 458 351 458 320.5 476.5 c 128,-1,36
 290 495 290 495 261.5 494 c 128,-1,37
 233 493 233 493 209 477.5 c 128,-1,38
 185 462 185 462 170 443 c 1,39,-1
 170 486 l 1,40,-1
 438 851 l 1,41,-1
 476 851 l 1,42,-1
 266 543 l 1,43,44
 282 539 282 539 306 526.5 c 128,-1,45
 330 514 330 514 353 498 c 128,-1,46
 376 482 376 482 394.5 463.5 c 0,47,48
 413 444 413 444 419 428 c 2,49,-1
 515 135 l 1,50,51
 509 135 509 135 503.5 133.5 c 128,-1,52
 498 132 498 132 493 130 c 128,-1,53
 488 128 488 128 483.5 129 c 128,-1,54
 479 130 479 130 476 135 c 2,55,-1
 380 409 l 1,34,35
EndSplineSet
EndChar

StartChar: L
Encoding: 76 76 47
Width: 571
VWidth: 879
Flags: HW
LayerCount: 2
Fore
SplineSet
144 784 m 1,0,-1
 182 150 l 1,1,2
 270 150 270 150 360 161.5 c 128,-1,3
 450 173 450 173 544 183 c 1,4,-1
 547 150 l 2,5,6
 546 150 546 150 528.5 147.5 c 128,-1,7
 511 145 511 145 482.5 141.5 c 128,-1,8
 454 138 454 138 418.5 134 c 128,-1,9
 383 130 383 130 347 126 c 128,-1,10
 311 122 311 122 277.5 118 c 128,-1,11
 244 114 244 114 220 112 c 0,12,13
 219 112 219 112 215 111.5 c 128,-1,14
 211 111 211 111 206.5 111 c 128,-1,15
 202 111 202 111 197 111 c 128,-1,16
 192 111 192 111 189 111 c 0,17,18
 167 111 167 111 153 134.5 c 128,-1,19
 139 158 139 158 130 198.5 c 128,-1,20
 121 239 121 239 116.5 291.5 c 128,-1,21
 112 344 112 344 110.5 401 c 128,-1,22
 109 458 109 458 109 516 c 128,-1,23
 109 574 109 574 109 625.5 c 128,-1,24
 109 677 109 677 109 719 c 128,-1,25
 109 761 109 761 106 784 c 1,26,-1
 144 784 l 1,0,-1
EndSplineSet
EndChar

StartChar: M
Encoding: 77 77 48
Width: 562
VWidth: 878
Flags: HW
LayerCount: 2
Fore
SplineSet
313 379 m 1,0,-1
 275 379 l 1,1,-1
 179 571 l 1,2,-1
 179 130 l 1,3,-1
 135 124 l 1,4,5
 133 159 133 159 131.5 212 c 128,-1,6
 130 265 130 265 128.5 326.5 c 128,-1,7
 127 388 127 388 126 453 c 128,-1,8
 125 518 125 518 123.5 578 c 128,-1,9
 122 638 122 638 120.5 688 c 128,-1,10
 119 738 119 738 118 769 c 1,11,12
 125 769 125 769 131 770 c 128,-1,13
 137 771 137 771 142.5 771.5 c 128,-1,14
 148 772 148 772 152 770 c 128,-1,15
 156 768 156 768 159 761 c 2,16,-1
 294 457 l 1,17,-1
 409 745 l 2,18,19
 411 750 411 750 416.5 753.5 c 128,-1,20
 422 757 422 757 428.5 760 c 128,-1,21
 435 763 435 763 442 764.5 c 128,-1,22
 449 766 449 766 454 766 c 0,23,24
 455 766 455 766 455 763 c 128,-1,25
 455 760 455 760 456.5 742 c 128,-1,26
 458 724 458 724 463 685.5 c 128,-1,27
 468 647 468 647 478 576.5 c 128,-1,28
 488 506 488 506 503.5 397.5 c 128,-1,29
 519 289 519 289 543 130 c 1,30,31
 539 121 539 121 532.5 118 c 128,-1,32
 526 115 526 115 520.5 116 c 128,-1,33
 515 117 515 117 510.5 120.5 c 128,-1,34
 506 124 506 124 505 130 c 2,35,-1
 428 667 l 1,36,-1
 313 379 l 1,0,-1
EndSplineSet
EndChar

StartChar: N
Encoding: 78 78 49
Width: 621
VWidth: 887
Flags: HW
LayerCount: 2
Fore
SplineSet
160 715 m 1,0,1
 160 711 160 711 159.5 701.5 c 128,-1,2
 159 692 159 692 159 681.5 c 128,-1,3
 159 671 159 671 159 661.5 c 128,-1,4
 159 652 159 652 159 648 c 0,5,6
 159 584 159 584 162 518.5 c 128,-1,7
 165 453 165 453 169 388 c 128,-1,8
 173 323 173 323 176 257 c 128,-1,9
 179 191 179 191 179 125 c 1,10,-1
 143 127 l 1,11,12
 142 146 142 146 139.5 180 c 128,-1,13
 137 214 137 214 133.5 258 c 128,-1,14
 130 302 130 302 126 353 c 128,-1,15
 122 404 122 404 117.5 456.5 c 128,-1,16
 113 509 113 509 110 560 c 128,-1,17
 107 611 107 611 104.5 654.5 c 128,-1,18
 102 698 102 698 101 731.5 c 128,-1,19
 100 765 100 765 101 783 c 1,20,21
 101 795 101 795 110 803.5 c 128,-1,22
 119 812 119 812 131 812 c 0,23,24
 144 812 144 812 159 806 c 128,-1,25
 174 800 174 800 179 791 c 2,26,-1
 539 211 l 1,27,28
 538 257 538 257 536 309.5 c 128,-1,29
 534 362 534 362 532 418 c 128,-1,30
 530 474 530 474 529.5 530.5 c 128,-1,31
 529 587 529 587 531.5 641 c 128,-1,32
 534 695 534 695 541.5 743 c 128,-1,33
 549 791 549 791 563 830 c 1,34,35
 577 834 577 834 585 835 c 128,-1,36
 593 836 593 836 597 834.5 c 128,-1,37
 601 833 601 833 601.5 829.5 c 128,-1,38
 602 826 602 826 602 821 c 0,39,40
 602 819 602 819 602 815.5 c 128,-1,41
 602 812 602 812 602 811 c 0,42,43
 600 804 600 804 597.5 788.5 c 128,-1,44
 595 773 595 773 591 741.5 c 128,-1,45
 587 710 587 710 584 660 c 128,-1,46
 581 610 581 610 578 535.5 c 128,-1,47
 575 461 575 461 573.5 359 c 128,-1,48
 572 257 572 257 573 122 c 1,49,-1
 544 119 l 1,50,-1
 160 715 l 1,0,1
EndSplineSet
EndChar

StartChar: O
Encoding: 79 79 50
Width: 513
VWidth: 876
Flags: HW
LayerCount: 2
Fore
SplineSet
89 441 m 0,0,1
 89 474 89 474 93.5 511 c 128,-1,2
 98 548 98 548 108.5 583.5 c 128,-1,3
 119 619 119 619 135.5 651.5 c 128,-1,4
 152 684 152 684 176 708.5 c 128,-1,5
 200 733 200 733 231 747.5 c 128,-1,6
 262 762 262 762 302 762 c 0,7,8
 337 762 337 762 364.5 742.5 c 128,-1,9
 392 723 392 723 411.5 691.5 c 128,-1,10
 431 660 431 660 444.5 620 c 128,-1,11
 458 580 458 580 466 539.5 c 128,-1,12
 474 499 474 499 477.5 461.5 c 128,-1,13
 481 424 481 424 481 397 c 1,14,15
 477 338 477 338 464 288 c 128,-1,16
 451 238 451 238 428.5 201 c 128,-1,17
 406 164 406 164 372.5 140 c 0,18,19
 338 116 338 116 292 108 c 1,20,21
 247 108 247 108 215 124 c 128,-1,22
 183 140 183 140 160 166 c 128,-1,23
 137 192 137 192 123.5 226 c 128,-1,24
 110 260 110 260 102 297 c 128,-1,25
 94 334 94 334 91.5 371.5 c 128,-1,26
 89 409 89 409 89 441 c 0,0,1
128 441 m 256,27,28
 128 417 128 417 129 387 c 128,-1,29
 130 357 130 357 134.5 326.5 c 128,-1,30
 139 296 139 296 147.5 266.5 c 128,-1,31
 156 237 156 237 172 214.5 c 128,-1,32
 188 192 188 192 211 178 c 128,-1,33
 234 164 234 164 268 164 c 1,34,35
 315 160 315 160 346 175.5 c 128,-1,36
 377 191 377 191 396.5 222 c 128,-1,37
 416 253 416 253 425.5 297 c 128,-1,38
 435 341 435 341 441 397 c 1,39,40
 441 419 441 419 439 451.5 c 128,-1,41
 437 484 437 484 432 520.5 c 128,-1,42
 427 557 427 557 417 593.5 c 128,-1,43
 407 630 407 630 391.5 659 c 128,-1,44
 376 688 376 688 354.5 706 c 128,-1,45
 333 724 333 724 303 724 c 0,46,47
 272 724 272 724 247 710 c 128,-1,48
 222 696 222 696 202.5 672.5 c 128,-1,49
 183 649 183 649 168.5 619 c 128,-1,50
 154 589 154 589 145 557.5 c 128,-1,51
 136 526 136 526 132 495.5 c 128,-1,52
 128 465 128 465 128 441 c 256,27,28
EndSplineSet
EndChar

StartChar: P
Encoding: 80 80 51
Width: 455
VWidth: 880
Flags: HW
LayerCount: 2
Fore
SplineSet
86 662 m 0,0,1
 86 694 86 694 111 717.5 c 128,-1,2
 136 741 136 741 170.5 756 c 128,-1,3
 205 771 205 771 243 778 c 128,-1,4
 281 785 281 785 308 785 c 0,5,6
 336 785 336 785 363.5 776.5 c 128,-1,7
 391 768 391 768 412 751 c 128,-1,8
 433 734 433 734 444 708.5 c 128,-1,9
 455 683 455 683 451 650 c 0,10,11
 446 599 446 599 417.5 560.5 c 128,-1,12
 389 522 389 522 348 495 c 128,-1,13
 307 468 307 468 258.5 454.5 c 128,-1,14
 210 441 210 441 165 441 c 1,15,16
 165 404 165 404 168 367.5 c 128,-1,17
 171 331 171 331 174.5 294.5 c 128,-1,18
 178 258 178 258 181 221 c 128,-1,19
 184 184 184 184 184 147 c 0,20,21
 184 136 184 136 182 126.5 c 128,-1,22
 180 117 180 117 163 112 c 1,23,-1
 144 132 l 2,24,25
 144 133 144 133 140.5 159.5 c 128,-1,26
 137 186 137 186 132 229.5 c 128,-1,27
 127 273 127 273 120.5 327 c 128,-1,28
 114 381 114 381 108 436.5 c 128,-1,29
 102 492 102 492 96.5 543 c 128,-1,30
 91 594 91 594 87 630 c 0,31,32
 87 631 87 631 86.5 635 c 128,-1,33
 86 639 86 639 86 644 c 128,-1,34
 86 649 86 649 86 654.5 c 128,-1,35
 86 660 86 660 86 662 c 0,0,1
142 626 m 0,36,37
 142 605 142 605 143 587.5 c 128,-1,38
 144 570 144 570 146 552.5 c 128,-1,39
 148 535 148 535 152.5 517 c 128,-1,40
 157 499 157 499 163 477 c 1,41,42
 195 481 195 481 237.5 495.5 c 128,-1,43
 280 510 280 510 319.5 533.5 c 128,-1,44
 359 557 359 557 386.5 589 c 128,-1,45
 414 621 414 621 414 660 c 0,46,47
 414 680 414 680 404 696.5 c 128,-1,48
 394 713 394 713 378 724 c 128,-1,49
 362 735 362 735 343.5 741 c 128,-1,50
 325 747 325 747 307 747 c 0,51,52
 278 747 278 747 248 740 c 128,-1,53
 218 733 218 733 195 718 c 128,-1,54
 172 703 172 703 157 680.5 c 128,-1,55
 142 658 142 658 142 626 c 0,36,37
EndSplineSet
EndChar

StartChar: Q
Encoding: 81 81 52
Width: 629
VWidth: 861
Flags: HW
LayerCount: 2
Fore
SplineSet
482 94 m 1,0,1
 438 90 438 90 393.5 91 c 128,-1,2
 349 92 349 92 308 99.5 c 128,-1,3
 267 107 267 107 232.5 123 c 128,-1,4
 198 139 198 139 172 166.5 c 128,-1,5
 146 194 146 194 131 234.5 c 128,-1,6
 116 275 116 275 116 331 c 0,7,8
 116 366 116 366 125 410.5 c 128,-1,9
 134 455 134 455 150.5 501.5 c 128,-1,10
 167 548 167 548 191 592 c 128,-1,11
 215 636 215 636 246.5 670.5 c 128,-1,12
 278 705 278 705 315.5 726 c 128,-1,13
 353 747 353 747 397 747 c 0,14,15
 427 747 427 747 455.5 724 c 128,-1,16
 484 701 484 701 508.5 665.5 c 128,-1,17
 533 630 533 630 553 587 c 128,-1,18
 573 544 573 544 587.5 502.5 c 128,-1,19
 602 461 602 461 610 426.5 c 128,-1,20
 618 392 618 392 618 375 c 0,21,22
 618 338 618 338 612.5 306 c 128,-1,23
 607 274 607 274 595 244.5 c 128,-1,24
 583 215 583 215 564.5 187.5 c 128,-1,25
 546 160 546 160 521 132 c 1,26,27
 525 126 525 126 533.5 109.5 c 128,-1,28
 542 93 542 93 551 74.5 c 128,-1,29
 560 56 560 56 568 40 c 128,-1,30
 576 24 576 24 578 17 c 0,31,32
 580 15 580 15 581 7.5 c 128,-1,33
 582 0 582 0 582 -2 c 1,34,-1
 540 -2 l 1,35,-1
 482 94 l 1,0,1
156 332 m 0,36,37
 156 286 156 286 171.5 249 c 128,-1,38
 187 212 187 212 214.5 185.5 c 128,-1,39
 242 159 242 159 279 145 c 128,-1,40
 316 131 316 131 359 131 c 0,41,42
 366 131 366 131 380 130.5 c 128,-1,43
 394 130 394 130 408.5 132 c 128,-1,44
 423 134 423 134 434.5 140.5 c 128,-1,45
 446 147 446 147 446 161 c 0,46,47
 446 189 446 189 431 212.5 c 128,-1,48
 416 236 416 236 399 257 c 128,-1,49
 382 278 382 278 367.5 299 c 128,-1,50
 353 320 353 320 353 344 c 1,51,-1
 386 344 l 1,52,-1
 502 190 l 1,53,54
 523 206 523 206 537.5 227 c 128,-1,55
 552 248 552 248 561.5 272.5 c 128,-1,56
 571 297 571 297 575 323 c 128,-1,57
 579 349 579 349 579 374 c 0,58,59
 579 416 579 416 568.5 456 c 128,-1,60
 558 496 558 496 541 532 c 128,-1,61
 524 568 524 568 503 598.5 c 128,-1,62
 482 629 482 629 463 652.5 c 128,-1,63
 444 676 444 676 428.5 690 c 128,-1,64
 413 704 413 704 406 708 c 1,65,66
 345 693 345 693 298.5 655 c 128,-1,67
 252 617 252 617 220 565 c 128,-1,68
 188 513 188 513 172 452.5 c 128,-1,69
 156 392 156 392 156 332 c 0,36,37
EndSplineSet
EndChar

StartChar: R
Encoding: 82 82 53
Width: 592
VWidth: 880
Flags: HW
LayerCount: 2
Fore
SplineSet
500 111 m 1,0,1
 496 128 496 128 489.5 157.5 c 128,-1,2
 483 187 483 187 473.5 221.5 c 128,-1,3
 464 256 464 256 451 291.5 c 128,-1,4
 438 327 438 327 419 355.5 c 128,-1,5
 400 384 400 384 375 402 c 128,-1,6
 350 420 350 420 318 420 c 0,7,8
 305 420 305 420 284 417.5 c 128,-1,9
 263 415 263 415 242.5 410.5 c 128,-1,10
 222 406 222 406 207.5 398 c 128,-1,11
 193 390 193 390 193 379 c 2,12,-1
 193 126 l 1,13,14
 189 126 189 126 181 127.5 c 128,-1,15
 173 129 173 129 165 132.5 c 128,-1,16
 157 136 157 136 151 140 c 128,-1,17
 145 144 145 144 145 149 c 2,18,-1
 145 648 l 1,19,20
 132 646 132 646 123.5 637.5 c 128,-1,21
 115 629 115 629 109.5 617.5 c 128,-1,22
 104 606 104 606 101 593.5 c 128,-1,23
 98 581 98 581 97 571 c 1,24,25
 93 571 93 571 86 575.5 c 128,-1,26
 79 580 79 580 73 586 c 128,-1,27
 67 592 67 592 62.5 599 c 128,-1,28
 58 606 58 606 58 610 c 0,29,30
 58 636 58 636 72.5 659 c 128,-1,31
 87 682 87 682 111 701.5 c 128,-1,32
 135 721 135 721 164.5 737 c 128,-1,33
 194 753 194 753 224 763.5 c 128,-1,34
 254 774 254 774 281 780 c 128,-1,35
 308 786 308 786 327 786 c 0,36,37
 355 786 355 786 380 784 c 128,-1,38
 405 782 405 782 424 772.5 c 128,-1,39
 443 763 443 763 453.5 743 c 128,-1,40
 464 723 464 723 464 689 c 0,41,42
 464 658 464 658 453.5 628.5 c 128,-1,43
 443 599 443 599 425.5 572 c 128,-1,44
 408 545 408 545 387 520.5 c 128,-1,45
 366 496 366 496 346 475 c 1,46,47
 392 446 392 446 421.5 416.5 c 128,-1,48
 451 387 451 387 469 357.5 c 128,-1,49
 487 328 487 328 496.5 298.5 c 128,-1,50
 506 269 506 269 511.5 238 c 128,-1,51
 517 207 517 207 522.5 175.5 c 128,-1,52
 528 144 528 144 538 111 c 1,53,-1
 500 111 l 1,0,1
332 747 m 0,54,55
 325 747 325 747 312.5 746 c 128,-1,56
 300 745 300 745 284 743 c 128,-1,57
 268 741 268 741 252 737 c 128,-1,58
 236 733 236 733 223 726.5 c 128,-1,59
 210 720 210 720 201.5 710 c 128,-1,60
 193 700 193 700 193 687 c 2,61,-1
 193 432 l 1,62,63
 216 432 216 432 242.5 444 c 128,-1,64
 269 456 269 456 294.5 476.5 c 128,-1,65
 320 497 320 497 344 522.5 c 128,-1,66
 368 548 368 548 386 575.5 c 128,-1,67
 404 603 404 603 415 629.5 c 128,-1,68
 426 656 426 656 426 678 c 0,69,70
 426 700 426 700 418 713.5 c 128,-1,71
 410 727 410 727 397.5 734.5 c 128,-1,72
 385 742 385 742 368 744.5 c 128,-1,73
 351 747 351 747 332 747 c 0,54,55
EndSplineSet
EndChar

StartChar: S
Encoding: 83 83 54
Width: 568
VWidth: 870
Flags: HW
LayerCount: 2
Fore
SplineSet
132 179 m 1,0,1
 137 190 137 190 147 193.5 c 128,-1,2
 157 197 157 197 170 179 c 1,3,4
 170 177 170 177 179.5 173 c 128,-1,5
 189 169 189 169 203.5 164.5 c 128,-1,6
 218 160 218 160 237 156 c 128,-1,7
 256 152 256 152 275.5 148.5 c 128,-1,8
 295 145 295 145 313 142.5 c 128,-1,9
 331 140 331 140 343 140 c 0,10,11
 377 140 377 140 406 154.5 c 128,-1,12
 435 169 435 169 455 191.5 c 128,-1,13
 475 214 475 214 486.5 244 c 128,-1,14
 498 274 498 274 498 304 c 0,15,16
 498 314 498 314 495 336 c 128,-1,17
 492 358 492 358 485 381 c 128,-1,18
 478 404 478 404 466.5 421.5 c 128,-1,19
 455 439 455 439 439 439 c 1,20,21
 335 428 335 428 268.5 430.5 c 128,-1,22
 202 433 202 433 163 446 c 128,-1,23
 124 459 124 459 108.5 481.5 c 128,-1,24
 93 504 93 504 92 533 c 1,25,26
 92 569 92 569 109.5 602.5 c 128,-1,27
 127 636 127 636 155.5 662 c 128,-1,28
 184 688 184 688 218.5 703 c 128,-1,29
 253 718 253 718 287 718 c 0,30,31
 315 718 315 718 345.5 711.5 c 128,-1,32
 376 705 376 705 401.5 690.5 c 128,-1,33
 427 676 427 676 444 652.5 c 128,-1,34
 461 629 461 629 461 596 c 1,35,36
 436 596 436 596 416.5 609 c 128,-1,37
 397 622 397 622 377 637.5 c 128,-1,38
 357 653 357 653 335 666 c 128,-1,39
 313 679 313 679 284 679 c 0,40,41
 259 679 259 679 235 667.5 c 128,-1,42
 211 656 211 656 191.5 637 c 128,-1,43
 172 618 172 618 159.5 594.5 c 128,-1,44
 147 571 147 571 147 546 c 0,45,46
 147 536 147 536 147.5 524.5 c 128,-1,47
 148 513 148 513 152 502.5 c 128,-1,48
 156 492 156 492 164.5 485 c 128,-1,49
 173 478 173 478 189 478 c 2,50,-1
 458 478 l 2,51,52
 474 478 474 478 486.5 467.5 c 128,-1,53
 499 457 499 457 508 440.5 c 128,-1,54
 517 424 517 424 522.5 404.5 c 128,-1,55
 528 385 528 385 531.5 365.5 c 128,-1,56
 535 346 535 346 536 329.5 c 128,-1,57
 537 313 537 313 537 304 c 0,58,59
 537 266 537 266 525.5 231 c 128,-1,60
 514 196 514 196 492.5 169 c 128,-1,61
 471 142 471 142 438 124 c 128,-1,62
 405 106 405 106 362 103 c 0,63,64
 340 101 340 101 307 103.5 c 128,-1,65
 274 106 274 106 239.5 115 c 128,-1,66
 205 124 205 124 175.5 139.5 c 128,-1,67
 146 155 146 155 132 179 c 1,0,1
EndSplineSet
EndChar

StartChar: T
Encoding: 84 84 55
Width: 453
VWidth: 871
Flags: HW
LayerCount: 2
Fore
SplineSet
72 647 m 1,0,-1
 89 699 l 2,1,2
 90 700 90 700 104.5 701.5 c 128,-1,3
 119 703 119 703 142.5 705.5 c 128,-1,4
 166 708 166 708 196 711 c 128,-1,5
 226 714 226 714 257.5 717 c 128,-1,6
 289 720 289 720 319.5 723 c 128,-1,7
 350 726 350 726 376 728 c 0,8,9
 377 728 377 728 386 728.5 c 128,-1,10
 395 729 395 729 405.5 729 c 128,-1,11
 416 729 416 729 426.5 729 c 128,-1,12
 437 729 437 729 440 729 c 0,13,14
 464 729 464 729 473 720 c 128,-1,15
 482 711 482 711 482 680 c 1,16,-1
 300 660 l 1,17,18
 298 597 298 597 302 528 c 128,-1,19
 306 459 306 459 312 388.5 c 128,-1,20
 318 318 318 318 323 249 c 128,-1,21
 328 180 328 180 328 116 c 0,22,23
 328 108 328 108 323 104.5 c 128,-1,24
 318 101 318 101 310 100 c 128,-1,25
 302 99 302 99 294 100 c 128,-1,26
 286 101 286 101 281 104 c 1,27,28
 278 118 278 118 275 149.5 c 128,-1,29
 272 181 272 181 269 223.5 c 128,-1,30
 266 266 266 266 262.5 316.5 c 128,-1,31
 259 367 259 367 256 417 c 128,-1,32
 253 467 253 467 250.5 512.5 c 128,-1,33
 248 558 248 558 245.5 592.5 c 128,-1,34
 243 627 243 627 241.5 646 c 128,-1,35
 240 665 240 665 240 660 c 1,36,-1
 72 647 l 1,0,-1
EndSplineSet
EndChar

StartChar: U
Encoding: 85 85 56
Width: 604
VWidth: 880
Flags: HW
LayerCount: 2
Fore
SplineSet
485 362 m 1,0,1
 445 262 445 262 405.5 207 c 128,-1,2
 366 152 366 152 329.5 133.5 c 128,-1,3
 293 115 293 115 260 129 c 128,-1,4
 227 143 227 143 199.5 180.5 c 128,-1,5
 172 218 172 218 152 275 c 128,-1,6
 132 332 132 332 121 399.5 c 128,-1,7
 110 467 110 467 109 542 c 128,-1,8
 108 617 108 617 120 689 c 1,9,-1
 159 685 l 1,10,11
 149 557 149 557 157.5 462.5 c 128,-1,12
 166 368 166 368 185 305 c 128,-1,13
 204 242 204 242 229 209 c 128,-1,14
 254 176 254 176 277 170 c 1,15,16
 311 170 311 170 337.5 188 c 128,-1,17
 364 206 364 206 384.5 235.5 c 128,-1,18
 405 265 405 265 419.5 302 c 128,-1,19
 434 339 434 339 443 377 c 128,-1,20
 452 415 452 415 456 450 c 128,-1,21
 460 485 460 485 460 512 c 0,22,23
 460 546 460 546 458 572.5 c 128,-1,24
 456 599 456 599 451.5 624.5 c 128,-1,25
 447 650 447 650 441 678 c 128,-1,26
 435 706 435 706 429 742 c 1,27,-1
 478 778 l 1,28,29
 500 632 500 632 517 529 c 128,-1,30
 534 426 534 426 546 356.5 c 128,-1,31
 558 287 558 287 565 245 c 128,-1,32
 572 203 572 203 576.5 180 c 128,-1,33
 581 157 581 157 582.5 147.5 c 128,-1,34
 584 138 584 138 584 132 c 1,35,-1
 543 132 l 1,36,-1
 485 362 l 1,0,1
EndSplineSet
EndChar

StartChar: V
Encoding: 86 86 57
Width: 615
VWidth: 885
Flags: HW
LayerCount: 2
Fore
SplineSet
101 770 m 1,0,-1
 131 800 l 1,1,-1
 452 233 l 1,2,-1
 562 828 l 1,3,-1
 594 828 l 1,4,-1
 485 137 l 1,5,-1
 461 111 l 1,6,-1
 101 770 l 1,0,-1
EndSplineSet
EndChar

StartChar: W
Encoding: 87 87 58
Width: 715
VWidth: 890
Flags: HW
LayerCount: 2
Fore
SplineSet
394 482 m 1,0,1
 391 471 391 471 385 447.5 c 128,-1,2
 379 424 379 424 370 394 c 128,-1,3
 361 364 361 364 351.5 331 c 128,-1,4
 342 298 342 298 333.5 268 c 128,-1,5
 325 238 325 238 317.5 214 c 128,-1,6
 310 190 310 190 307 180 c 0,7,8
 305 170 305 170 301.5 159 c 128,-1,9
 298 148 298 148 292.5 142 c 128,-1,10
 287 136 287 136 281 139 c 128,-1,11
 275 142 275 142 269 160 c 1,12,-1
 115 852 l 1,13,14
 118 853 118 853 125.5 854 c 128,-1,15
 133 855 133 855 135 855 c 0,16,17
 155 855 155 855 161.5 846.5 c 128,-1,18
 168 838 168 838 173 814 c 2,19,-1
 289 295 l 1,20,-1
 365 544 l 2,21,22
 369 556 369 556 377 560.5 c 128,-1,23
 385 565 385 565 394 565 c 1,24,25
 402 557 402 557 417 535.5 c 128,-1,26
 432 514 432 514 449.5 485.5 c 128,-1,27
 467 457 467 457 486 424 c 128,-1,28
 505 391 505 391 522.5 362 c 128,-1,29
 540 333 540 333 554 309.5 c 128,-1,30
 568 286 568 286 577 276 c 1,31,32
 579 272 579 272 587 263 c 128,-1,33
 595 254 595 254 604 245 c 128,-1,34
 613 236 613 236 621.5 228 c 128,-1,35
 630 220 630 220 634 218 c 1,36,37
 632 251 632 251 630.5 297 c 128,-1,38
 629 343 629 343 627 395.5 c 128,-1,39
 625 448 625 448 625 505.5 c 128,-1,40
 625 563 625 563 627 619.5 c 128,-1,41
 629 676 629 676 635 728.5 c 128,-1,42
 641 781 641 781 652 825 c 0,43,44
 654 833 654 833 657 836 c 128,-1,45
 660 839 660 839 665 840 c 128,-1,46
 670 841 670 841 677 841 c 128,-1,47
 684 841 684 841 694 841 c 1,48,49
 694 830 694 830 692.5 814.5 c 128,-1,50
 691 799 691 799 689.5 770 c 128,-1,51
 688 741 688 741 685.5 693.5 c 128,-1,52
 683 646 683 646 681 569.5 c 128,-1,53
 679 493 679 493 676.5 383.5 c 128,-1,54
 674 274 674 274 673 122 c 1,55,56
 629 156 629 156 592.5 198.5 c 128,-1,57
 556 241 556 241 522.5 288 c 128,-1,58
 489 335 489 335 457.5 384.5 c 128,-1,59
 426 434 426 434 394 482 c 1,0,1
EndSplineSet
EndChar

StartChar: X
Encoding: 88 88 59
Width: 572
VWidth: 856
Flags: HW
LayerCount: 2
Fore
SplineSet
293 433 m 1,0,-1
 101 740 l 1,1,2
 117 746 117 746 132 741 c 128,-1,3
 147 736 147 736 158 721 c 0,4,5
 164 713 164 713 176 695 c 128,-1,6
 188 677 188 677 203.5 654.5 c 128,-1,7
 219 632 219 632 235.5 607 c 128,-1,8
 252 582 252 582 267 559 c 128,-1,9
 282 536 282 536 294 518 c 128,-1,10
 306 500 306 500 312 491 c 1,11,-1
 427 740 l 1,12,13
 455 748 455 748 465.5 743 c 128,-1,14
 476 738 476 738 474.5 724.5 c 128,-1,15
 473 711 473 711 462 690.5 c 128,-1,16
 451 670 451 670 435.5 644.5 c 128,-1,17
 420 619 420 619 403.5 591 c 128,-1,18
 387 563 387 563 373.5 535 c 128,-1,19
 360 507 360 507 353 481 c 128,-1,20
 346 455 346 455 350 433 c 1,21,22
 370 399 370 399 398 361.5 c 128,-1,23
 426 324 426 324 456 284 c 128,-1,24
 486 244 486 244 514 204 c 128,-1,25
 542 164 542 164 561 126 c 0,26,27
 562 124 562 124 562 121.5 c 128,-1,28
 562 119 562 119 558.5 116.5 c 128,-1,29
 555 114 555 114 547 111 c 128,-1,30
 539 108 539 108 523 107 c 1,31,-1
 321 388 l 1,32,-1
 187 -38 l 1,33,-1
 158 -8 l 1,34,-1
 293 433 l 1,0,-1
EndSplineSet
EndChar

StartChar: Y
Encoding: 89 89 60
Width: 529
VWidth: 897
Flags: HW
LayerCount: 2
Fore
SplineSet
368 456 m 1,0,1
 352 478 352 478 327 510 c 128,-1,2
 302 542 302 542 272.5 579.5 c 128,-1,3
 243 617 243 617 212.5 657 c 128,-1,4
 182 697 182 697 155.5 734.5 c 128,-1,5
 129 772 129 772 108.5 804.5 c 0,6,7
 88 838 88 838 80 860 c 1,8,-1
 99 878 l 1,9,10
 137 838 137 838 164.5 804.5 c 128,-1,11
 192 771 192 771 213.5 741.5 c 128,-1,12
 235 712 235 712 253.5 685 c 128,-1,13
 272 658 272 658 291.5 630.5 c 128,-1,14
 311 603 311 603 334 574.5 c 128,-1,15
 357 546 357 546 387 514 c 1,16,17
 393 542 393 542 399 576 c 128,-1,18
 405 610 405 610 411 647.5 c 128,-1,19
 417 685 417 685 424 723.5 c 128,-1,20
 431 762 431 762 439.5 797.5 c 128,-1,21
 448 833 448 833 459 864 c 128,-1,22
 470 895 470 895 483 917 c 1,23,24
 485 918 485 918 488.5 918 c 128,-1,25
 492 918 492 918 493 918 c 0,26,27
 496 918 496 918 501.5 917 c 128,-1,28
 507 916 507 916 512.5 913.5 c 128,-1,29
 518 911 518 911 521 907 c 128,-1,30
 524 903 524 903 522 898 c 0,31,32
 511 875 511 875 499 836 c 128,-1,33
 487 797 487 797 477 748.5 c 128,-1,34
 467 700 467 700 457.5 643 c 128,-1,35
 448 586 448 586 440.5 528.5 c 128,-1,36
 433 471 433 471 427.5 413.5 c 128,-1,37
 422 356 422 356 419 306 c 128,-1,38
 416 256 416 256 416.5 215 c 128,-1,39
 417 174 417 174 420 148 c 1,40,41
 418 138 418 138 417 132.5 c 128,-1,42
 416 127 416 127 410.5 124 c 128,-1,43
 405 121 405 121 395.5 120.5 c 128,-1,44
 386 120 386 120 368 120 c 1,45,-1
 368 456 l 1,0,1
EndSplineSet
EndChar

StartChar: Z
Encoding: 90 90 61
Width: 765
VWidth: 886
Flags: HW
LayerCount: 2
Fore
SplineSet
256 146 m 0,0,1
 256 148 256 148 256 152 c 128,-1,2
 256 156 256 156 256 157 c 2,3,-1
 361 476 l 1,4,-1
 201 466 l 1,5,-1
 216 512 l 1,6,-1
 387 536 l 1,7,-1
 525 771 l 1,8,9
 522 771 522 771 514 771 c 128,-1,10
 506 771 506 771 497 771.5 c 128,-1,11
 488 772 488 772 479 772 c 128,-1,12
 470 772 470 772 467 772 c 0,13,14
 428 772 428 772 389.5 769 c 128,-1,15
 351 766 351 766 312.5 761.5 c 128,-1,16
 274 757 274 757 235 754 c 128,-1,17
 196 751 196 751 158 751 c 0,18,19
 146 751 146 751 137 753 c 128,-1,20
 128 755 128 755 122 771 c 1,21,-1
 141 790 l 1,22,23
 161.5 792.5 l 0,24,25
 182 795 182 795 215 798.5 c 128,-1,26
 248 802 248 802 290 806 c 128,-1,27
 332 810 332 810 374.5 814 c 128,-1,28
 417 818 417 818 456.5 822 c 128,-1,29
 496 826 496 826 525 829 c 0,30,31
 527 829 527 829 535.5 829 c 128,-1,32
 544 829 544 829 547 829 c 0,33,34
 549 829 549 829 556 829 c 128,-1,35
 563 829 563 829 570.5 827.5 c 128,-1,36
 578 826 578 826 582 821.5 c 128,-1,37
 586 817 586 817 583 810 c 2,38,-1
 459 541 l 1,39,-1
 591 541 l 1,40,41
 599 525 599 525 594 515 c 128,-1,42
 589 505 589 505 576.5 499 c 128,-1,43
 564 493 564 493 545.5 490 c 128,-1,44
 527 487 527 487 507.5 485.5 c 128,-1,45
 488 484 488 484 468.5 482 c 128,-1,46
 449 480 449 480 436 476 c 1,47,48
 416 443 416 443 397 406.5 c 128,-1,49
 378 370 378 370 362 331.5 c 128,-1,50
 346 293 346 293 333 253.5 c 128,-1,51
 320 214 320 214 314 176 c 1,52,53
 316 176 316 176 321.5 175.5 c 128,-1,54
 327 175 327 175 333.5 175 c 128,-1,55
 340 175 340 175 345 175 c 128,-1,56
 350 175 350 175 352 175 c 0,57,58
 401 175 401 175 448.5 182.5 c 128,-1,59
 496 190 496 190 543 199 c 128,-1,60
 590 208 590 208 638 216 c 128,-1,61
 686 224 686 224 736 224 c 1,62,-1
 736 185 l 1,63,64
 680 185 680 185 626 174.5 c 128,-1,65
 572 164 572 164 519 151.5 c 128,-1,66
 466 139 466 139 412 128.5 c 128,-1,67
 358 118 358 118 304 118 c 0,68,69
 297 118 297 118 288.5 119.5 c 128,-1,70
 280 121 280 121 273 124 c 128,-1,71
 266 127 266 127 261 132.5 c 128,-1,72
 256 138 256 138 256 146 c 0,0,1
EndSplineSet
EndChar

StartChar: bracketleft
Encoding: 91 91 62
Width: 346
VWidth: 882
Flags: HW
LayerCount: 2
Fore
SplineSet
100 43 m 1,0,1
 98 60 98 60 97 98 c 128,-1,2
 96 136 96 136 95 187 c 128,-1,3
 94 238 94 238 92.5 298 c 128,-1,4
 91 358 91 358 89.5 420 c 128,-1,5
 88 482 88 482 86.5 542 c 128,-1,6
 85 602 85 602 83.5 653 c 128,-1,7
 82 704 82 704 81 742 c 128,-1,8
 80 780 80 780 79 797 c 1,9,-1
 79 808 l 2,10,11
 79 841 79 841 90.5 859 c 128,-1,12
 102 877 102 877 121 884.5 c 128,-1,13
 140 892 140 892 164.5 893.5 c 128,-1,14
 189 895 189 895 215 895 c 0,15,16
 223 895 223 895 231.5 895 c 128,-1,17
 240 895 240 895 247.5 894 c 128,-1,18
 255 893 255 893 261 888.5 c 128,-1,19
 267 884 267 884 271 874 c 0,20,21
 273 870 273 870 273 865.5 c 0,22,23
 272 861 272 861 274 856 c 1,24,25
 275 851 275 851 277 846 c 1,26,-1
 142 846 l 1,27,28
 141 827 141 827 139 791.5 c 128,-1,29
 137 756 137 756 134 708 c 128,-1,30
 131 660 131 660 128 603.5 c 128,-1,31
 125 547 125 547 122.5 487.5 c 128,-1,32
 120 428 120 428 119 369 c 128,-1,33
 118 310 118 310 119.5 256 c 128,-1,34
 121 202 121 202 125.5 157 c 128,-1,35
 130 112 130 112 138 81 c 1,36,-1
 292 81 l 2,37,38
 303 81 303 81 307 71 c 128,-1,39
 311 61 311 61 311 52 c 0,40,41
 311 50 311 50 311 47 c 0,42,43
 310 44 310 44 310 43 c 1,44,45
 300 41 300 41 279.5 37.5 c 128,-1,46
 259 34 259 34 233.5 31 c 128,-1,47
 208 28 208 28 182 25 c 128,-1,48
 156 22 156 22 136 22 c 0,49,50
 123 22 123 22 114 24.5 c 128,-1,51
 105 27 105 27 100 43 c 1,0,1
EndSplineSet
EndChar

StartChar: backslash
Encoding: 92 92 63
Width: 521
VWidth: 876
Flags: HW
LayerCount: 2
Fore
SplineSet
113 761 m 1,0,1
 117 755 117 755 141.5 721.5 c 128,-1,2
 166 688 166 688 213 616 c 128,-1,3
 260 544 260 544 330.5 429 c 128,-1,4
 401 314 401 314 497 147 c 1,5,-1
 478 109 l 1,6,-1
 62 761 l 1,7,-1
 113 761 l 1,0,1
EndSplineSet
EndChar

StartChar: bracketright
Encoding: 93 93 64
Width: 398
VWidth: 891
Flags: HW
LayerCount: 2
Fore
SplineSet
225 100 m 1,0,1
 232 97 232 97 246 97.5 c 128,-1,2
 260 98 260 98 275.5 101 c 128,-1,3
 291 104 291 104 304 108.5 c 128,-1,4
 317 113 317 113 321 119 c 1,5,6
 321.5 123.5 l 0,7,8
 322 128 322 128 322.5 134.5 c 128,-1,9
 323 141 323 141 323.5 147.5 c 128,-1,10
 324 154 324 154 324 158 c 256,11,12
 324 162 324 162 323.5 171 c 128,-1,13
 323 180 323 180 322.5 189 c 128,-1,14
 322 198 322 198 321.5 205.5 c 128,-1,15
 321 213 321 213 321 215 c 0,16,17
 319 238 319 238 315.5 276 c 128,-1,18
 312 314 312 314 309 360 c 128,-1,19
 306 406 306 406 301.5 456.5 c 128,-1,20
 297 507 297 507 293.5 556.5 c 128,-1,21
 290 606 290 606 286.5 651.5 c 128,-1,22
 283 697 283 697 280.5 732 c 128,-1,23
 278 767 278 767 275.5 789.5 c 128,-1,24
 273 812 273 812 273 814 c 2,25,-1
 253 871 l 1,26,27
 250 871 250 871 237.5 871.5 c 128,-1,28
 225 872 225 872 207.5 873.5 c 128,-1,29
 190 875 190 875 168.5 877 c 128,-1,30
 147 879 147 879 126.5 883.5 c 128,-1,31
 106 888 106 888 89 894.5 c 128,-1,32
 72 901 72 901 61 910 c 1,33,34
 79 926 79 926 96.5 927.5 c 128,-1,35
 114 929 114 929 137 929 c 0,36,37
 158 929 158 929 175.5 928 c 128,-1,38
 193 927 193 927 210.5 925 c 128,-1,39
 228 923 228 923 247.5 919 c 128,-1,40
 267 915 267 915 291 910 c 1,41,42
 294 894 294 894 298 859.5 c 128,-1,43
 302 825 302 825 307 778 c 128,-1,44
 312 731 312 731 317 675.5 c 128,-1,45
 322 620 322 620 327.5 563 c 128,-1,46
 333 506 333 506 338 450 c 128,-1,47
 343 394 343 394 347.5 347 c 128,-1,48
 352 300 352 300 355.5 265.5 c 128,-1,49
 359 231 359 231 360 215 c 0,50,51
 360 213 360 213 360.5 206 c 128,-1,52
 361 199 361 199 361.5 189.5 c 128,-1,53
 362 180 362 180 362 170.5 c 128,-1,54
 362 161 362 161 362 156 c 0,55,56
 362 121 362 121 356.5 102.5 c 128,-1,57
 351 84 351 84 335.5 76 c 128,-1,58
 320 68 320 68 293.5 66 c 128,-1,59
 267 64 267 64 225 62 c 1,60,-1
 225 100 l 1,0,1
EndSplineSet
EndChar

StartChar: asciicircum
Encoding: 94 94 65
Width: 345
VWidth: 986
Flags: HW
LayerCount: 2
Fore
SplineSet
202 895 m 1,0,1
 188 878 188 878 176 863.5 c 128,-1,2
 164 849 164 849 151.5 835.5 c 128,-1,3
 139 822 139 822 126.5 808.5 c 128,-1,4
 114 795 114 795 100 777 c 1,5,-1
 71 793 l 1,6,-1
 205 975 l 1,7,8
 223 957 223 957 236.5 936 c 128,-1,9
 250 915 250 915 262 892 c 128,-1,10
 274 869 274 869 286 845 c 128,-1,11
 298 821 298 821 313 797 c 1,12,13
 313 790 313 790 310 787.5 c 128,-1,14
 307 785 307 785 301.5 783.5 c 128,-1,15
 296 782 296 782 289.5 780.5 c 128,-1,16
 283 779 283 779 275 774 c 1,17,18
 261 796 261 796 254.5 809.5 c 128,-1,19
 248 823 248 823 241.5 834.5 c 128,-1,20
 235 846 235 846 226.5 859 c 128,-1,21
 218 872 218 872 202 895 c 1,0,1
EndSplineSet
EndChar

StartChar: underscore
Encoding: 95 95 66
Width: 523
VWidth: 780
Flags: HW
LayerCount: 2
Fore
SplineSet
115 67 m 1,0,-1
 476 70 l 1,1,-1
 476 32 l 1,2,3
 466 34 466 34 439 33 c 128,-1,4
 412 32 412 32 377 31 c 128,-1,5
 342 30 342 30 302 28 c 128,-1,6
 262 26 262 26 224 26.5 c 128,-1,7
 186 27 186 27 154.5 29.5 c 128,-1,8
 123 32 123 32 104 38 c 1,9,-1
 115 67 l 1,0,-1
EndSplineSet
EndChar

StartChar: grave
Encoding: 96 96 67
Width: 301
VWidth: 960
Flags: HW
LayerCount: 2
Fore
SplineSet
164 846 m 1,0,1
 182 828 182 828 191.5 814 c 128,-1,2
 201 800 201 800 208 785 c 128,-1,3
 215 770 215 770 223 753 c 128,-1,4
 231 736 231 736 246 712 c 1,5,6
 246 705 246 705 243 702.5 c 128,-1,7
 240 700 240 700 234.5 698.5 c 128,-1,8
 229 697 229 697 222.5 695.5 c 128,-1,9
 216 694 216 694 208 690 c 1,10,11
 194 712 194 712 187 725 c 128,-1,12
 180 738 180 738 174 749 c 128,-1,13
 168 760 168 760 159.5 773.5 c 128,-1,14
 151 787 151 787 135 810 c 1,15,-1
 164 846 l 1,0,1
EndSplineSet
EndChar

StartChar: a
Encoding: 97 97 68
Width: 403
VWidth: 844
Flags: HW
LayerCount: 2
Fore
SplineSet
76 163 m 0,0,1
 76 220 76 220 107.5 246 c 128,-1,2
 139 272 139 272 190 272 c 0,3,4
 210 272 210 272 228 271 c 128,-1,5
 246 270 246 270 262 266 c 128,-1,6
 278 262 278 262 293.5 254 c 128,-1,7
 309 246 309 246 326 231 c 1,8,9
 326 235 326 235 326.5 244 c 128,-1,10
 327 253 327 253 327 264 c 128,-1,11
 327 275 327 275 327 284.5 c 128,-1,12
 327 294 327 294 327 298 c 0,13,14
 325 316 325 316 325.5 344.5 c 128,-1,15
 326 373 326 373 321.5 403 c 128,-1,16
 317 433 317 433 303 460 c 128,-1,17
 289 487 289 487 259 501 c 1,18,19
 239 501 239 501 220.5 494 c 128,-1,20
 202 487 202 487 184 479 c 128,-1,21
 166 471 166 471 148 464.5 c 128,-1,22
 130 458 130 458 110 458 c 1,23,24
 110 484 110 484 125.5 500 c 128,-1,25
 141 516 141 516 162.5 525 c 128,-1,26
 184 534 184 534 208.5 537 c 128,-1,27
 233 540 233 540 250 540 c 1,28,29
 268 537 268 537 284 533 c 128,-1,30
 300 529 300 529 313.5 517 c 128,-1,31
 327 505 327 505 338 480.5 c 128,-1,32
 349 456 349 456 358 412 c 128,-1,33
 367 368 367 368 373.5 300.5 c 128,-1,34
 380 233 380 233 384 135 c 1,35,36
 386 122 386 122 375 112.5 c 128,-1,37
 364 103 364 103 346.5 96.5 c 128,-1,38
 329 90 329 90 306 85.5 c 128,-1,39
 283 81 283 81 260.5 79 c 128,-1,40
 238 77 238 77 217 76 c 128,-1,41
 196 75 196 75 182 75 c 0,42,43
 164 75 164 75 145.5 81 c 128,-1,44
 127 87 127 87 111.5 98.5 c 128,-1,45
 96 110 96 110 86 126.5 c 128,-1,46
 76 143 76 143 76 163 c 0,0,1
207 233 m 1,47,48
 157 219 157 219 137 199.5 c 128,-1,49
 117 180 117 180 119.5 162 c 128,-1,50
 122 144 122 144 142.5 129.5 c 128,-1,51
 163 115 163 115 193 110.5 c 128,-1,52
 223 106 223 106 258.5 115.5 c 128,-1,53
 294 125 294 125 326 153 c 1,54,55
 313 181 313 181 301 197 c 128,-1,56
 289 213 289 213 275.5 221 c 128,-1,57
 262 229 262 229 245 231 c 128,-1,58
 228 233 228 233 207 233 c 1,47,48
EndSplineSet
EndChar

StartChar: b
Encoding: 98 98 69
Width: 435
VWidth: 878
Flags: HW
LayerCount: 2
Fore
SplineSet
114 763 m 1,0,1
 118 727 118 727 122 683.5 c 128,-1,2
 126 640 126 640 129 594 c 128,-1,3
 132 548 132 548 133.5 502.5 c 128,-1,4
 135 457 135 457 132 418 c 1,5,6
 148 432 148 432 162 442 c 128,-1,7
 176 452 176 452 189 460 c 128,-1,8
 202 468 202 468 216 472 c 128,-1,9
 230 476 230 476 247 476 c 0,10,11
 284 476 284 476 313.5 458.5 c 128,-1,12
 343 441 343 441 364 413 c 128,-1,13
 385 385 385 385 396.5 350.5 c 128,-1,14
 408 316 408 316 408 283 c 1,15,16
 406 227 406 227 385.5 193 c 128,-1,17
 365 159 365 159 330 141.5 c 128,-1,18
 295 124 295 124 249 120.5 c 128,-1,19
 203 117 203 117 152 121 c 1,20,-1
 152 168 l 1,21,22
 169 152 169 152 184.5 149.5 c 128,-1,23
 200 147 200 147 220 147 c 0,24,25
 253 147 253 147 280 157 c 128,-1,26
 307 167 307 167 326.5 186 c 128,-1,27
 346 205 346 205 357 230.5 c 128,-1,28
 368 256 368 256 368 287 c 0,29,30
 368 314 368 314 364.5 335 c 128,-1,31
 361 356 361 356 350.5 373.5 c 128,-1,32
 340 391 340 391 320 406 c 128,-1,33
 300 421 300 421 267 436 c 0,34,35
 265 437 265 437 257.5 438 c 128,-1,36
 250 439 250 439 248 439 c 0,37,38
 232 439 232 439 216 429 c 128,-1,39
 200 419 200 419 187 404.5 c 128,-1,40
 174 390 174 390 165 372.5 c 128,-1,41
 156 355 156 355 152 340 c 0,42,43
 150 328 150 328 146 297.5 c 128,-1,44
 142 267 142 267 138 232 c 128,-1,45
 134 197 134 197 130.5 166 c 128,-1,46
 127 135 127 135 126 123 c 1,47,-1
 94 130 l 1,48,-1
 75 763 l 1,49,-1
 114 763 l 1,0,1
EndSplineSet
EndChar

StartChar: c
Encoding: 99 99 70
Width: 436
VWidth: 838
Flags: HW
LayerCount: 2
Fore
SplineSet
80 242 m 0,0,1
 80 280 80 280 92 324.5 c 128,-1,2
 104 369 104 369 127.5 407.5 c 128,-1,3
 151 446 151 446 185 472 c 128,-1,4
 219 498 219 498 263 498 c 1,5,6
 286 502 286 502 300 494 c 128,-1,7
 314 486 314 486 321.5 470 c 128,-1,8
 329 454 329 454 331.5 433.5 c 128,-1,9
 334 413 334 413 334.5 391.5 c 128,-1,10
 335 370 335 370 334.5 351.5 c 128,-1,11
 334 333 334 333 337 321 c 1,12,-1
 311 321 l 1,13,14
 310 328 310 328 308 350 c 128,-1,15
 306 372 306 372 300 396 c 128,-1,16
 294 420 294 420 283 439 c 128,-1,17
 272 458 272 458 254 458 c 0,18,19
 226 458 226 458 201.5 436 c 128,-1,20
 177 414 177 414 158.5 383 c 128,-1,21
 140 352 140 352 129 319 c 128,-1,22
 118 286 118 286 118 264 c 1,23,24
 120 239 120 239 126 209.5 c 128,-1,25
 132 180 132 180 145.5 156 c 128,-1,26
 159 132 159 132 180.5 117 c 128,-1,27
 202 102 202 102 235 108 c 1,28,29
 259 108 259 108 280.5 118 c 128,-1,30
 302 128 302 128 323.5 139 c 128,-1,31
 345 150 345 150 366.5 160 c 128,-1,32
 388 170 388 170 412 170 c 1,33,34
 412 144 412 144 393 124.5 c 128,-1,35
 374 105 374 105 346.5 93 c 128,-1,36
 319 81 319 81 288.5 75 c 128,-1,37
 258 69 258 69 236 69 c 0,38,39
 202 69 202 69 174 83 c 128,-1,40
 146 97 146 97 125 120.5 c 128,-1,41
 104 144 104 144 92 176 c 128,-1,42
 80 208 80 208 80 242 c 0,0,1
EndSplineSet
EndChar

StartChar: d
Encoding: 100 100 71
Width: 386
VWidth: 896
Flags: HW
LayerCount: 2
Fore
SplineSet
56 274 m 0,0,1
 56 301 56 301 65 333 c 128,-1,2
 74 365 74 365 91 392.5 c 128,-1,3
 108 420 108 420 132 438.5 c 128,-1,4
 156 457 156 457 188 457 c 0,5,6
 212 457 212 457 230.5 452 c 128,-1,7
 249 447 249 447 265.5 437 c 128,-1,8
 282 427 282 427 296.5 412.5 c 128,-1,9
 311 398 311 398 327 378 c 1,10,-1
 321 891 l 1,11,12
 348 901 348 901 354.5 899 c 128,-1,13
 361 897 361 897 361 883 c 0,14,15
 361 881 361 881 360.5 876.5 c 0,16,-1
 360 872 l 0,17,18
 358 853 358 853 358 817.5 c 128,-1,19
 358 782 358 782 358.5 736 c 128,-1,20
 359 690 359 690 360 637 c 128,-1,21
 361 584 361 584 362 529 c 128,-1,22
 363 474 363 474 364.5 421 c 128,-1,23
 366 368 366 368 366.5 321.5 c 128,-1,24
 367 275 367 275 366.5 240 c 128,-1,25
 366 205 366 205 365 186 c 1,26,27
 354 164 354 164 334.5 152 c 128,-1,28
 315 140 315 140 292.5 134 c 128,-1,29
 270 128 270 128 246 127.5 c 128,-1,30
 222 127 222 127 201 127 c 0,31,32
 134 127 134 127 95 166.5 c 128,-1,33
 56 206 56 206 56 274 c 0,0,1
96 301 m 0,34,35
 96 275 96 275 100 251 c 128,-1,36
 104 227 104 227 114 207.5 c 128,-1,37
 124 188 124 188 142 176.5 c 128,-1,38
 160 165 160 165 188 165 c 0,39,40
 205 165 205 165 229 165.5 c 128,-1,41
 253 166 253 166 275 171 c 128,-1,42
 297 176 297 176 312 188 c 128,-1,43
 327 200 327 200 327 223 c 0,44,45
 327 249 327 249 319.5 282.5 c 128,-1,46
 312 316 312 316 296.5 346.5 c 128,-1,47
 281 377 281 377 257.5 398 c 128,-1,48
 234 419 234 419 202 419 c 0,49,50
 181 419 181 419 162 408.5 c 128,-1,51
 143 398 143 398 128.5 380.5 c 128,-1,52
 114 363 114 363 105 342 c 128,-1,53
 96 321 96 321 96 301 c 0,34,35
EndSplineSet
EndChar

StartChar: e
Encoding: 101 101 72
Width: 391
VWidth: 841
Flags: HW
LayerCount: 2
Fore
SplineSet
81 309 m 1,0,1
 81 339 81 339 94 375.5 c 128,-1,2
 107 412 107 412 129.5 443.5 c 128,-1,3
 152 475 152 475 180.5 496.5 c 128,-1,4
 209 518 209 518 240 518 c 0,5,6
 256 518 256 518 273 511 c 128,-1,7
 290 504 290 504 305.5 492.5 c 128,-1,8
 321 481 321 481 333.5 466.5 c 128,-1,9
 346 452 346 452 353 436 c 128,-1,10
 360 420 360 420 360.5 405 c 128,-1,11
 361 390 361 390 352 379 c 1,12,-1
 141 340 l 2,13,14
 137 339 137 339 134 330.5 c 128,-1,15
 131 322 131 322 129 309 c 128,-1,16
 127 296 127 296 125.5 280.5 c 128,-1,17
 124 265 124 265 123 250.5 c 128,-1,18
 122 236 122 236 122 224 c 128,-1,19
 122 212 122 212 122 207 c 0,20,21
 122 179 122 179 135.5 161.5 c 128,-1,22
 149 144 149 144 170 135 c 128,-1,23
 191 126 191 126 217.5 123 c 128,-1,24
 244 120 244 120 270 120 c 128,-1,25
 296 120 296 120 319 122 c 128,-1,26
 342 124 342 124 357 124 c 1,27,28
 357 120 357 120 354 115 c 128,-1,29
 351 110 351 110 347 105.5 c 128,-1,30
 343 101 343 101 339 97.5 c 128,-1,31
 335 94 335 94 334 93 c 0,32,33
 326 91 326 91 309.5 87.5 c 128,-1,34
 293 84 293 84 274.5 81 c 128,-1,35
 256 78 256 78 240 76 c 128,-1,36
 224 74 224 74 218 74 c 1,37,38
 186 68 186 68 163.5 75 c 128,-1,39
 141 82 141 82 125 99 c 128,-1,40
 109 116 109 116 99 140 c 128,-1,41
 89 164 89 164 84 192.5 c 128,-1,42
 79 221 79 221 78.5 251 c 128,-1,43
 78 281 78 281 81 309 c 1,0,1
226 479 m 0,44,45
 217 480 217 480 202.5 470.5 c 128,-1,46
 188 461 188 461 175.5 446 c 128,-1,47
 163 431 163 431 154.5 414.5 c 128,-1,48
 146 398 146 398 149 387 c 1,49,50
 175 383 175 383 203 387.5 c 128,-1,51
 231 392 231 392 254 400.5 c 128,-1,52
 277 409 277 409 292 420.5 c 128,-1,53
 307 432 307 432 306.5 443.5 c 128,-1,54
 306 455 306 455 288 465 c 128,-1,55
 270 475 270 475 226 479 c 0,44,45
EndSplineSet
EndChar

StartChar: f
Encoding: 102 102 73
Width: 457
VWidth: 914
Flags: HW
LayerCount: 2
Fore
SplineSet
214 152 m 1,0,1
 223 216 223 216 226 258 c 128,-1,2
 229 300 229 300 228.5 330.5 c 128,-1,3
 228 361 228 361 227 384.5 c 128,-1,4
 226 408 226 408 227 434 c 1,5,6
 214 434 214 434 199 428 c 128,-1,7
 184 422 184 422 168 414.5 c 128,-1,8
 152 407 152 407 136.5 401 c 128,-1,9
 121 395 121 395 108 395 c 0,10,11
 103 395 103 395 101.5 399 c 128,-1,12
 100 403 100 403 99 409 c 128,-1,13
 98 415 98 415 97.5 421.5 c 128,-1,14
 97 428 97 428 94 435 c 1,15,-1
 229 493 l 1,16,17
 210 644 210 644 215.5 744 c 128,-1,18
 221 844 221 844 244.5 905.5 c 128,-1,19
 268 967 268 967 306.5 995.5 c 128,-1,20
 345 1024 345 1024 392 1031 c 1,21,22
 429 1031 429 1031 462.5 1016.5 c 128,-1,23
 496 1002 496 1002 522 977 c 128,-1,24
 548 952 548 952 563 919 c 128,-1,25
 578 886 578 886 578 849 c 1,26,27
 562 849 562 849 548.5 859.5 c 128,-1,28
 535 870 535 870 523 886 c 128,-1,29
 511 902 511 902 499 920.5 c 128,-1,30
 487 939 487 939 472.5 955 c 128,-1,31
 458 971 458 971 441 981.5 c 128,-1,32
 424 992 424 992 401 992 c 1,33,34
 381 988 381 988 361.5 975.5 c 128,-1,35
 342 963 342 963 325.5 940 c 128,-1,36
 309 917 309 917 296.5 881.5 c 128,-1,37
 284 846 284 846 276.5 794 c 128,-1,38
 269 742 269 742 268.5 671.5 c 128,-1,39
 268 601 268 601 278 510 c 1,40,-1
 401 511 l 1,41,42
 404 497 404 497 404.5 488 c 128,-1,43
 405 479 405 479 390 473 c 0,44,45
 380 469 380 469 362.5 465.5 c 128,-1,46
 345 462 345 462 327.5 459.5 c 128,-1,47
 310 457 310 457 295 455.5 c 128,-1,48
 280 454 280 454 274 453 c 1,49,50
 272 406 272 406 274.5 363.5 c 128,-1,51
 277 321 277 321 278 282.5 c 128,-1,52
 279 244 279 244 277.5 210.5 c 128,-1,53
 276 177 276 177 267 146 c 0,54,55
 266 146 266 146 261.5 146 c 128,-1,56
 257 146 257 146 252.5 146 c 128,-1,57
 248 146 248 146 243 146 c 0,58,-1
 238 146 l 2,59,60
 234 146 234 146 229.5 145 c 128,-1,61
 225 144 225 144 221.5 143.5 c 128,-1,62
 218 143 218 143 216 144.5 c 128,-1,63
 214 146 214 146 214 152 c 1,0,1
EndSplineSet
EndChar

StartChar: g
Encoding: 103 103 74
Width: 389
VWidth: 784
Flags: HW
LayerCount: 2
Fore
SplineSet
-88 -221 m 0,0,1
 -88 -194 -88 -194 -79 -180 c 128,-1,2
 -70 -166 -70 -166 -37 -166 c 1,3,4
 -39 -180 -39 -180 -44 -194 c 128,-1,5
 -49 -208 -49 -208 -52.5 -220 c 128,-1,6
 -56 -232 -56 -232 -55.5 -239 c 128,-1,7
 -55 -246 -55 -246 -48 -244 c 1,8,9
 -16 -265 -16 -265 22 -273.5 c 128,-1,10
 60 -282 60 -282 97 -282 c 0,11,12
 153 -281 153 -281 193.5 -259.5 c 128,-1,13
 234 -238 234 -238 261 -203 c 128,-1,14
 288 -168 288 -168 302 -122.5 c 128,-1,15
 316 -77 316 -77 320 -28.5 c 128,-1,16
 324 20 324 20 318 69 c 128,-1,17
 312 118 312 118 298 159 c 1,18,19
 281 139 281 139 263.5 118.5 c 128,-1,20
 246 98 246 98 226 81.5 c 128,-1,21
 206 65 206 65 183.5 54 c 128,-1,22
 161 43 161 43 133 43 c 0,23,24
 104 43 104 43 89.5 53 c 128,-1,25
 75 63 75 63 70.5 80.5 c 128,-1,26
 66 98 66 98 66 121 c 128,-1,27
 66 144 66 144 66 170 c 0,28,29
 66 194 66 194 67.5 224 c 128,-1,30
 69 254 69 254 74.5 284.5 c 128,-1,31
 80 315 80 315 89.5 344.5 c 128,-1,32
 99 374 99 374 115.5 397.5 c 128,-1,33
 132 421 132 421 155.5 435 c 128,-1,34
 179 449 179 449 212 449 c 0,35,36
 233 449 233 449 252.5 445.5 c 128,-1,37
 272 442 272 442 288.5 433 c 128,-1,38
 305 424 305 424 317.5 409 c 128,-1,39
 330 394 330 394 336 371 c 1,40,41
 340 327 340 327 346 274 c 128,-1,42
 352 221 352 221 356 164.5 c 128,-1,43
 360 108 360 108 360 51 c 128,-1,44
 360 -6 360 -6 352.5 -59 c 128,-1,45
 345 -112 345 -112 327.5 -158.5 c 128,-1,46
 310 -205 310 -205 278.5 -240.5 c 128,-1,47
 247 -276 247 -276 200 -297 c 128,-1,48
 153 -318 153 -318 87 -321 c 1,49,50
 59 -321 59 -321 28 -317.5 c 128,-1,51
 -3 -314 -3 -314 -28.5 -303.5 c 128,-1,52
 -54 -293 -54 -293 -71 -273.5 c 128,-1,53
 -88 -254 -88 -254 -88 -221 c 0,0,1
104 170 m 0,54,55
 104 160 104 160 103 145.5 c 128,-1,56
 102 131 102 131 104 117 c 128,-1,57
 106 103 106 103 113 93 c 128,-1,58
 120 83 120 83 134 82 c 1,59,60
 158 82 158 82 178.5 93 c 128,-1,61
 199 104 199 104 215.5 123 c 128,-1,62
 232 142 232 142 244.5 165.5 c 128,-1,63
 257 189 257 189 265.5 214 c 128,-1,64
 274 239 274 239 278.5 262.5 c 128,-1,65
 283 286 283 286 283 304 c 1,66,67
 286 324 286 324 283.5 342.5 c 128,-1,68
 281 361 281 361 272.5 376 c 128,-1,69
 264 391 264 391 249 400.5 c 128,-1,70
 234 410 234 410 212 410 c 0,71,72
 187 410 187 410 169.5 397 c 128,-1,73
 152 384 152 384 140 362.5 c 128,-1,74
 128 341 128 341 121 314.5 c 128,-1,75
 114 288 114 288 110.5 261.5 c 128,-1,76
 107 235 107 235 105.5 210.5 c 128,-1,77
 104 186 104 186 104 170 c 0,54,55
EndSplineSet
EndChar

StartChar: h
Encoding: 104 104 75
Width: 403
VWidth: 883
Flags: HW
LayerCount: 2
Fore
SplineSet
118 802 m 1,0,-1
 145 473 l 1,1,2
 152 480 152 480 162.5 491.5 c 128,-1,3
 173 503 173 503 188 514 c 128,-1,4
 203 525 203 525 221 532.5 c 128,-1,5
 239 540 239 540 260 538 c 0,6,7
 301 534 301 534 325.5 505.5 c 128,-1,8
 350 477 350 477 363 435 c 128,-1,9
 376 393 376 393 379.5 343 c 128,-1,10
 383 293 383 293 381.5 248 c 128,-1,11
 380 203 380 203 376.5 168 c 0,12,13
 373 132 373 132 372 120 c 1,14,-1
 335 126 l 1,15,16
 335 134 335 134 336 154 c 128,-1,17
 337 174 337 174 337.5 200 c 128,-1,18
 338 226 338 226 338.5 255 c 128,-1,19
 339 284 339 284 339.5 310 c 128,-1,20
 340 336 340 336 339.5 356 c 128,-1,21
 339 376 339 376 337 384 c 1,22,23
 338 412 338 412 326.5 437.5 c 128,-1,24
 315 463 315 463 294.5 476.5 c 128,-1,25
 274 490 274 490 246.5 485.5 c 128,-1,26
 219 481 219 481 187 447 c 1,27,28
 159 404 159 404 146 364 c 128,-1,29
 133 324 133 324 128.5 284 c 128,-1,30
 124 244 124 244 125.5 202.5 c 128,-1,31
 127 161 127 161 126 115 c 1,32,-1
 86 121 l 1,33,34
 89 132 89 132 90.5 162 c 128,-1,35
 92 192 92 192 93 233 c 128,-1,36
 94 274 94 274 94.5 325 c 128,-1,37
 95 376 95 376 94.5 430.5 c 128,-1,38
 94 485 94 485 93 540 c 128,-1,39
 92 595 92 595 91 645 c 128,-1,40
 90 695 90 695 88.5 737 c 128,-1,41
 87 779 87 779 85 807 c 1,42,-1
 118 802 l 1,0,-1
EndSplineSet
EndChar

StartChar: i
Encoding: 105 105 76
Width: 166
VWidth: 870
Flags: HW
LayerCount: 2
Fore
SplineSet
89 491 m 1,0,1
 102 491 102 491 110 491.5 c 128,-1,2
 118 492 118 492 124 481 c 1,3,4
 127 437 127 437 131 390.5 c 128,-1,5
 135 344 135 344 139 296.5 c 128,-1,6
 143 249 143 249 145 202 c 128,-1,7
 147 155 147 155 145 110 c 0,8,9
 145 104 145 104 142 102.5 c 128,-1,10
 139 101 139 101 133.5 101 c 128,-1,11
 128 101 128 101 120.5 101.5 c 128,-1,12
 113 102 113 102 104 100 c 1,13,-1
 89 491 l 1,0,1
31 669 m 0,14,15
 31 676 31 676 32 684.5 c 128,-1,16
 33 693 33 693 36.5 700 c 128,-1,17
 40 707 40 707 45.5 712 c 128,-1,18
 51 717 51 717 60 717 c 0,19,20
 71 717 71 717 83.5 716.5 c 128,-1,21
 96 716 96 716 106.5 712 c 128,-1,22
 117 708 117 708 124 700.5 c 128,-1,23
 131 693 131 693 131 680 c 0,24,25
 131 655 131 655 113.5 636.5 c 128,-1,26
 96 618 96 618 69 618 c 0,27,28
 49 618 49 618 40 633.5 c 128,-1,29
 31 649 31 649 31 669 c 0,14,15
90 664 m 256,30,31
 86 664 86 664 86 659 c 128,-1,32
 86 654 86 654 90 654 c 256,33,34
 94 654 94 654 94 659 c 128,-1,35
 94 664 94 664 90 664 c 256,30,31
EndSplineSet
EndChar

StartChar: j
Encoding: 106 106 77
Width: 204
VWidth: 810
Flags: HW
LayerCount: 2
Fore
SplineSet
-231 -273 m 0,0,1
 -231 -263 -231 -263 -229 -256 c 128,-1,2
 -227 -249 -227 -249 -222.5 -247.5 c 128,-1,3
 -218 -246 -218 -246 -210 -252 c 128,-1,4
 -202 -258 -202 -258 -190 -274 c 1,5,6
 -190 -288 -190 -288 -172 -295.5 c 128,-1,7
 -154 -303 -154 -303 -130 -307.5 c 128,-1,8
 -106 -312 -106 -312 -81.5 -313 c 128,-1,9
 -57 -314 -57 -314 -46 -314 c 0,10,11
 3 -314 3 -314 38 -296.5 c 128,-1,12
 73 -279 73 -279 95.5 -249.5 c 128,-1,13
 118 -220 118 -220 128.5 -180.5 c 128,-1,14
 139 -141 139 -141 139 -97 c 0,15,16
 139 -35 139 -35 130.5 22.5 c 128,-1,17
 122 80 122 80 108 137 c 128,-1,18
 94 194 94 194 76 254 c 128,-1,19
 58 314 58 314 40 380 c 0,20,21
 32 410 32 410 35 424.5 c 128,-1,22
 38 439 38 439 45.5 443.5 c 128,-1,23
 53 448 53 448 62.5 445 c 128,-1,24
 72 442 72 442 79 437 c 1,25,26
 95 374 95 374 112.5 307 c 128,-1,27
 130 240 130 240 144.5 171 c 128,-1,28
 159 102 159 102 168.5 32.5 c 0,29,30
 178 -38 178 -38 178 -106 c 0,31,32
 178 -153 178 -153 165.5 -197 c 128,-1,33
 153 -241 153 -241 128 -275.5 c 128,-1,34
 103 -310 103 -310 64.5 -331 c 128,-1,35
 26 -352 26 -352 -26 -352 c 0,36,37
 -51 -352 -51 -352 -86 -351 c 128,-1,38
 -121 -350 -121 -350 -153 -342.5 c 128,-1,39
 -185 -335 -185 -335 -208 -319.5 c 128,-1,40
 -231 -304 -231 -304 -231 -273 c 0,0,1
-6 690 m 1,41,42
 8 690 8 690 23 686 c 128,-1,43
 38 682 38 682 51 674.5 c 128,-1,44
 64 667 64 667 72 655.5 c 128,-1,45
 80 644 80 644 80 629 c 0,46,47
 80 589 80 589 40 589 c 0,48,49
 20 589 20 589 10.5 599 c 128,-1,50
 1 609 1 609 -3 624 c 128,-1,51
 -7 639 -7 639 -6.5 657 c 128,-1,52
 -6 675 -6 675 -6 690 c 1,41,42
40 633 m 256,53,54
 36 633 36 633 36 628.5 c 128,-1,55
 36 624 36 624 40 624 c 256,56,57
 44 624 44 624 44 628.5 c 128,-1,58
 44 633 44 633 40 633 c 256,53,54
EndSplineSet
EndChar

StartChar: k
Encoding: 107 107 78
Width: 449
VWidth: 891
Flags: HW
LayerCount: 2
Fore
SplineSet
118 151 m 1,0,1
 116 172 116 172 113 215.5 c 128,-1,2
 110 259 110 259 106 313.5 c 128,-1,3
 102 368 102 368 98 429 c 128,-1,4
 94 490 94 490 90.5 544.5 c 128,-1,5
 87 599 87 599 84 642.5 c 128,-1,6
 81 686 81 686 80 707 c 0,7,8
 79 716 79 716 78.5 738.5 c 128,-1,9
 78 761 78 761 77 786 c 128,-1,10
 76 811 76 811 75.5 833.5 c 128,-1,11
 75 856 75 856 75 865 c 1,12,13
 89 865 89 865 100.5 860 c 128,-1,14
 112 855 112 855 118 841 c 1,15,16
 120 821 120 821 122.5 782.5 c 128,-1,17
 125 744 125 744 128 693.5 c 128,-1,18
 131 643 131 643 134.5 586.5 c 128,-1,19
 138 530 138 530 142 474 c 1,20,21
 145 478 145 478 147.5 482.5 c 128,-1,22
 150 487 150 487 151 488 c 0,23,24
 161 499 161 499 176.5 515.5 c 128,-1,25
 192 532 192 532 208.5 548.5 c 128,-1,26
 225 565 225 565 241.5 582 c 128,-1,27
 258 599 258 599 272 612 c 128,-1,28
 286 625 286 625 295 633.5 c 128,-1,29
 304 642 304 642 305 642 c 2,30,-1
 343 623 l 1,31,32
 326 607 326 607 304 587.5 c 128,-1,33
 282 568 282 568 261 545.5 c 128,-1,34
 240 523 240 523 221 498.5 c 128,-1,35
 202 474 202 474 190 450 c 0,36,37
 189 449 189 449 188.5 445.5 c 128,-1,38
 188 442 188 442 188 440 c 256,39,40
 188 438 188 438 188.5 435 c 0,41,42
 190 432 190 432 190 431 c 2,43,-1
 420 162 l 2,44,45
 421 161 421 161 421 157.5 c 128,-1,46
 421 154 421 154 421 153 c 0,47,48
 421 133 421 133 401 124 c 1,49,-1
 151 412 l 2,50,51
 149 414 149 414 148 416 c 128,-1,52
 147 418 147 418 145 421 c 1,53,-1
 156 227 l 2,54,55
 156 222 156 222 156.5 207.5 c 128,-1,56
 157 193 157 193 157.5 177 c 128,-1,57
 158 161 158 161 158.5 146.5 c 128,-1,58
 159 132 159 132 159 127 c 1,59,60
 146 127 146 127 135 132.5 c 128,-1,61
 124 138 124 138 118 151 c 1,0,1
EndSplineSet
EndChar

StartChar: l
Encoding: 108 108 79
Width: 169
VWidth: 897
Flags: HW
LayerCount: 2
Fore
SplineSet
69 906 m 1,0,1
 83 904 83 904 93.5 899 c 128,-1,2
 104 894 104 894 110 879 c 1,3,4
 111 860 111 860 112 826.5 c 128,-1,5
 113 793 113 793 114.5 749 c 128,-1,6
 116 705 116 705 118 654 c 128,-1,7
 120 603 120 603 122 551 c 128,-1,8
 124 499 124 499 125.5 448 c 128,-1,9
 127 397 127 397 128.5 353 c 128,-1,10
 130 309 130 309 131 275.5 c 128,-1,11
 132 242 132 242 133 223 c 0,12,13
 133 221 133 221 132.5 216 c 128,-1,14
 132 211 132 211 131.5 204.5 c 128,-1,15
 131 198 131 198 130.5 191.5 c 128,-1,16
 130 185 130 185 130 182 c 0,17,18
 129 176 129 176 129 167.5 c 128,-1,19
 129 159 129 159 127 150.5 c 128,-1,20
 125 142 125 142 120.5 135.5 c 128,-1,21
 116 129 116 129 106 129 c 1,22,-1
 89 150 l 2,23,24
 88 151 88 151 86.5 187 c 128,-1,25
 85 223 85 223 82.5 281.5 c 128,-1,26
 80 340 80 340 78 413.5 c 128,-1,27
 76 487 76 487 73.5 562 c 128,-1,28
 71 637 71 637 69 706 c 128,-1,29
 67 775 67 775 66 825 c 0,30,31
 66 829 66 829 66.5 841 c 128,-1,32
 67 853 67 853 67.5 866 c 128,-1,33
 68 879 68 879 68.5 890.5 c 128,-1,34
 69 902 69 902 69 906 c 1,0,1
EndSplineSet
EndChar

StartChar: m
Encoding: 109 109 80
Width: 654
VWidth: 850
Flags: HW
LayerCount: 2
Fore
SplineSet
112 472 m 1,0,1
 125 472 125 472 138.5 466 c 128,-1,2
 152 460 152 460 158 442 c 1,3,4
 166 476 166 476 182.5 497 c 128,-1,5
 199 518 199 518 220.5 526.5 c 128,-1,6
 242 535 242 535 265 532 c 128,-1,7
 288 529 288 529 309 517 c 128,-1,8
 330 505 330 505 345.5 486 c 128,-1,9
 361 467 361 467 367 442 c 1,10,11
 377 473 377 473 396 499.5 c 128,-1,12
 415 526 415 526 437.5 544 c 128,-1,13
 460 562 460 562 484.5 569.5 c 128,-1,14
 509 577 509 577 530.5 569.5 c 128,-1,15
 552 562 552 562 568.5 537 c 128,-1,16
 585 512 585 512 592 466 c 0,17,18
 594 453 594 453 597 428 c 128,-1,19
 600 403 600 403 603.5 370.5 c 128,-1,20
 607 338 607 338 611.5 303 c 128,-1,21
 616 268 616 268 619.5 235.5 c 128,-1,22
 623 203 623 203 626 177.5 c 0,23,24
 628 152 628 152 630 140 c 1,25,26
 630 130 630 130 629.5 118 c 128,-1,27
 629 106 629 106 625.5 97.5 c 128,-1,28
 622 89 622 89 614 87 c 128,-1,29
 606 85 606 85 592 95 c 1,30,31
 591 107 591 107 588.5 134.5 c 128,-1,32
 586 162 586 162 583 197 c 128,-1,33
 580 232 580 232 575 271.5 c 128,-1,34
 570 311 570 311 566 346.5 c 128,-1,35
 562 382 562 382 559 409 c 128,-1,36
 556 436 556 436 553 447 c 1,37,38
 537 493 537 493 520.5 511 c 128,-1,39
 504 529 504 529 488 526.5 c 128,-1,40
 472 524 472 524 457 505.5 c 128,-1,41
 442 487 442 487 430 458 c 128,-1,42
 418 429 418 429 407.5 393.5 c 128,-1,43
 397 358 397 358 391.5 323 c 128,-1,44
 386 288 386 288 384.5 257 c 0,45,46
 384 226 384 226 388 205 c 1,47,-1
 348 198 l 1,48,49
 351 293 351 293 342 354.5 c 128,-1,50
 333 416 333 416 316.5 449.5 c 128,-1,51
 300 483 300 483 279 489.5 c 128,-1,52
 258 496 258 496 237.5 481 c 128,-1,53
 217 466 217 466 200 431 c 128,-1,54
 183 396 183 396 174.5 346.5 c 128,-1,55
 166 297 166 297 168 234.5 c 128,-1,56
 170 172 170 172 189 102 c 1,57,-1
 150 102 l 1,58,-1
 148 120.5 l 0,59,60
 146 139 146 139 142.5 169 c 128,-1,61
 139 199 139 199 135 236.5 c 128,-1,62
 131 274 131 274 127 312 c 128,-1,63
 123 350 123 350 118.5 385.5 c 128,-1,64
 114 421 114 421 112 447 c 0,65,66
 111 449 111 449 111.5 459.5 c 128,-1,67
 112 470 112 470 112 472 c 1,0,1
EndSplineSet
EndChar

StartChar: n
Encoding: 110 110 81
Width: 470
VWidth: 849
Flags: HW
LayerCount: 2
Fore
SplineSet
100 87 m 0,0,1
 98 103 98 103 96.5 133.5 c 128,-1,2
 95 164 95 164 93.5 202.5 c 128,-1,3
 92 241 92 241 91 283 c 128,-1,4
 90 325 90 325 89 362.5 c 128,-1,5
 88 400 88 400 86 431 c 128,-1,6
 84 462 84 462 82 478 c 0,7,8
 81 479 81 479 81 483 c 128,-1,9
 81 487 81 487 80.5 491.5 c 128,-1,10
 80 496 80 496 80 500 c 128,-1,11
 80 504 80 504 80 505 c 1,12,13
 95 518 95 518 105.5 514 c 128,-1,14
 116 510 116 510 123 496.5 c 128,-1,15
 130 483 130 483 133 462.5 c 128,-1,16
 136 442 136 442 137.5 422.5 c 128,-1,17
 139 403 139 403 139 386.5 c 128,-1,18
 139 370 139 370 139 363 c 1,19,20
 141 380 141 380 145 403 c 128,-1,21
 149 426 149 426 157 450 c 128,-1,22
 165 474 165 474 176.5 497 c 128,-1,23
 188 520 188 520 205 538 c 128,-1,24
 222 556 222 556 243.5 566.5 c 128,-1,25
 265 577 265 577 293 574 c 1,26,27
 337 572 337 572 365.5 550.5 c 128,-1,28
 394 529 394 529 410.5 492 c 128,-1,29
 427 455 427 455 434.5 406.5 c 128,-1,30
 442 358 442 358 444.5 304.5 c 128,-1,31
 447 251 447 251 445.5 195.5 c 128,-1,32
 444 140 444 140 444 89 c 1,33,34
 436 87 436 87 427 82.5 c 128,-1,35
 418 78 418 78 412 78.5 c 128,-1,36
 406 79 406 79 403.5 87.5 c 128,-1,37
 401 96 401 96 405 121 c 1,38,39
 406 139 406 139 408.5 176.5 c 128,-1,40
 411 214 411 214 410.5 260 c 128,-1,41
 410 306 410 306 405 355 c 128,-1,42
 400 404 400 404 386 444 c 128,-1,43
 372 484 372 484 347.5 510 c 128,-1,44
 323 536 323 536 283 536 c 1,45,46
 242 519 242 519 214.5 472 c 128,-1,47
 187 425 187 425 170.5 361.5 c 128,-1,48
 154 298 154 298 146 224.5 c 128,-1,49
 138 151 138 151 138 82 c 1,50,51
 136 83 136 83 130.5 83 c 128,-1,52
 125 83 125 83 118.5 83.5 c 128,-1,53
 112 84 112 84 106.5 84.5 c 128,-1,54
 101 85 101 85 100 87 c 0,0,1
EndSplineSet
EndChar

StartChar: o
Encoding: 111 111 82
Width: 431
VWidth: 845
Flags: HW
LayerCount: 2
Fore
SplineSet
85 260 m 0,0,1
 85 283 85 283 89 313.5 c 128,-1,2
 93 344 93 344 102 375 c 128,-1,3
 111 406 111 406 124.5 436 c 128,-1,4
 138 466 138 466 157 490 c 128,-1,5
 176 514 176 514 201 528 c 128,-1,6
 226 542 226 542 256 542 c 0,7,8
 288 542 288 542 315.5 520 c 128,-1,9
 343 498 343 498 362.5 463 c 128,-1,10
 382 428 382 428 392.5 385.5 c 128,-1,11
 403 343 403 343 400 301 c 1,12,13
 401 241 401 241 378 194.5 c 128,-1,14
 355 148 355 148 319.5 118.5 c 128,-1,15
 284 89 284 89 243 79.5 c 128,-1,16
 202 70 202 70 167 85 c 128,-1,17
 132 100 132 100 108.5 143 c 128,-1,18
 85 186 85 186 85 260 c 0,0,1
122 256 m 0,19,20
 124 195 124 195 142 162.5 c 128,-1,21
 160 130 160 130 186 119.5 c 128,-1,22
 212 109 212 109 242 118.5 c 128,-1,23
 272 128 272 128 298 153.5 c 128,-1,24
 324 179 324 179 342.5 217.5 c 128,-1,25
 361 256 361 256 363 304 c 0,26,27
 365 340 365 340 357.5 374.5 c 128,-1,28
 350 409 350 409 336.5 435 c 128,-1,29
 323 461 323 461 303 477 c 128,-1,30
 283 493 283 493 259 493 c 0,31,32
 235 493 235 493 215.5 480.5 c 128,-1,33
 196 468 196 468 181 447.5 c 128,-1,34
 166 427 166 427 155 401.5 c 128,-1,35
 144 376 144 376 136.5 349.5 c 128,-1,36
 129 323 129 323 125.5 298.5 c 128,-1,37
 122 274 122 274 122 256 c 0,19,20
EndSplineSet
EndChar

StartChar: p
Encoding: 112 112 83
Width: 526
VWidth: 770
Flags: HW
LayerCount: 2
Fore
SplineSet
126 261 m 1,0,1
 122 259 122 259 115 259.5 c 128,-1,2
 108 260 108 260 102 263 c 128,-1,3
 96 266 96 266 91.5 270.5 c 128,-1,4
 87 275 87 275 87 281 c 0,5,6
 87 315 87 315 108 343 c 128,-1,7
 129 371 129 371 159.5 392 c 128,-1,8
 190 413 190 413 225.5 424 c 128,-1,9
 261 435 261 435 289 435 c 0,10,11
 335 435 335 435 373 419.5 c 128,-1,12
 411 404 411 404 437.5 377 c 128,-1,13
 464 350 464 350 478 314 c 128,-1,14
 492 278 492 278 492 238 c 0,15,16
 493 186 493 186 468.5 142.5 c 128,-1,17
 444 99 444 99 405 68.5 c 128,-1,18
 366 38 366 38 317.5 23 c 128,-1,19
 269 8 269 8 222 11 c 1,20,21
 224 -25 224 -25 221 -71.5 c 128,-1,22
 218 -118 218 -118 212.5 -172.5 c 128,-1,23
 207 -227 207 -227 199.5 -288.5 c 128,-1,24
 192 -350 192 -350 185 -415 c 0,25,26
 184 -417 184 -417 178.5 -416.5 c 128,-1,27
 173 -416 173 -416 166 -414.5 c 128,-1,28
 159 -413 159 -413 153 -412 c 128,-1,29
 147 -411 147 -411 145 -412 c 1,30,31
 153 -329 153 -329 157 -243.5 c 128,-1,32
 161 -158 161 -158 160 -72.5 c 128,-1,33
 159 13 159 13 151 97 c 128,-1,34
 143 181 143 181 126 261 c 1,0,1
278 380 m 1,35,36
 258 378 258 378 236.5 373.5 c 128,-1,37
 215 369 215 369 197.5 360 c 128,-1,38
 180 351 180 351 170 336 c 128,-1,39
 160 321 160 321 164 299 c 0,40,41
 166 289 166 289 169 270 c 128,-1,42
 172 251 172 251 176.5 227 c 128,-1,43
 181 203 181 203 186 177.5 c 128,-1,44
 191 152 191 152 195.5 128 c 128,-1,45
 200 104 200 104 203.5 84.5 c 128,-1,46
 207 65 207 65 208 55 c 1,47,48
 221 57 221 57 242.5 59 c 128,-1,49
 264 61 264 61 289.5 66.5 c 128,-1,50
 315 72 315 72 341.5 82.5 c 128,-1,51
 368 93 368 93 391 112 c 128,-1,52
 414 131 414 131 431 159.5 c 128,-1,53
 448 188 448 188 455 230 c 1,54,55
 455 269 455 269 440.5 297.5 c 128,-1,56
 426 326 426 326 402 344 c 128,-1,57
 378 362 378 362 346 371 c 128,-1,58
 314 380 314 380 278 380 c 1,35,36
EndSplineSet
EndChar

StartChar: q
Encoding: 113 113 84
Width: 417
VWidth: 791
Flags: HW
LayerCount: 2
Fore
SplineSet
317 120 m 1,0,1
 300 105 300 105 285 93.5 c 128,-1,2
 270 82 270 82 255.5 74.5 c 128,-1,3
 241 67 241 67 225.5 63 c 128,-1,4
 210 59 210 59 191 59 c 0,5,6
 163 59 163 59 143.5 73.5 c 128,-1,7
 124 88 124 88 110.5 110 c 128,-1,8
 97 132 97 132 90.5 158 c 128,-1,9
 84 184 84 184 84 208 c 128,-1,10
 84 232 84 232 89 259.5 c 128,-1,11
 94 287 94 287 104 314.5 c 128,-1,12
 114 342 114 342 128.5 367.5 c 128,-1,13
 143 393 143 393 162 412 c 128,-1,14
 181 431 181 431 204.5 442.5 c 128,-1,15
 228 454 228 454 257 454 c 0,16,17
 285 454 285 454 307.5 445 c 128,-1,18
 330 436 330 436 347 419 c 128,-1,19
 364 402 364 402 373.5 378 c 128,-1,20
 383 354 383 354 383 324 c 0,21,22
 383 274 383 274 378.5 224 c 128,-1,23
 374 174 374 174 369 125 c 128,-1,24
 364 76 364 76 359 26 c 128,-1,25
 354 -24 354 -24 354 -74 c 1,26,27
 349 -110 349 -110 362 -140 c 128,-1,28
 375 -170 375 -170 396.5 -193 c 128,-1,29
 418 -216 418 -216 443.5 -229 c 0,30,31
 470 -242 470 -242 490 -245 c 1,32,33
 486 -248 486 -248 477 -251 c 128,-1,34
 468 -254 468 -254 459 -257 c 128,-1,35
 450 -260 450 -260 442 -262 c 128,-1,36
 434 -264 434 -264 432 -264 c 0,37,38
 412 -262 412 -262 392 -252 c 128,-1,39
 372 -242 372 -242 355.5 -226 c 128,-1,40
 339 -210 339 -210 328 -190 c 128,-1,41
 317 -170 317 -170 317 -149 c 2,42,-1
 317 120 l 1,0,1
124 216 m 0,43,44
 124 203 124 203 128 183.5 c 128,-1,45
 132 164 132 164 140 145 c 128,-1,46
 148 126 148 126 161 113 c 128,-1,47
 174 100 174 100 192 100 c 0,48,49
 226 100 226 100 253.5 119 c 128,-1,50
 281 138 281 138 299.5 167 c 128,-1,51
 318 196 318 196 327.5 229.5 c 128,-1,52
 337 263 337 263 337 292 c 0,53,54
 337 308 337 308 333.5 330 c 128,-1,55
 330 352 330 352 321 371 c 128,-1,56
 312 390 312 390 296 404 c 128,-1,57
 280 418 280 418 255 418 c 0,58,59
 235 418 235 418 217.5 406 c 128,-1,60
 200 394 200 394 185.5 375 c 128,-1,61
 171 356 171 356 159.5 333 c 128,-1,62
 148 310 148 310 140 287.5 c 128,-1,63
 132 265 132 265 128 245.5 c 128,-1,64
 124 226 124 226 124 216 c 0,43,44
EndSplineSet
EndChar

StartChar: r
Encoding: 114 114 85
Width: 355
VWidth: 837
Flags: HW
LayerCount: 2
Fore
SplineSet
63 460 m 1,0,1
 76 465 76 465 84.5 462 c 128,-1,2
 93 459 93 459 99 451 c 128,-1,3
 105 443 105 443 108 432.5 c 128,-1,4
 111 422 111 422 113 412 c 1,5,6
 127 434 127 434 151 447 c 128,-1,7
 175 460 175 460 203 465 c 128,-1,8
 231 470 231 470 259 467.5 c 128,-1,9
 287 465 287 465 306.5 455 c 128,-1,10
 326 445 326 445 334 429 c 128,-1,11
 342 413 342 413 330 391 c 1,12,13
 304 406 304 406 275.5 415 c 128,-1,14
 247 424 247 424 220 421 c 128,-1,15
 193 418 193 418 170 400.5 c 128,-1,16
 147 383 147 383 132 345 c 128,-1,17
 117 307 117 307 113.5 244 c 128,-1,18
 110 181 110 181 122 89 c 1,19,-1
 84 89 l 1,20,21
 82.5 105.5 l 0,22,23
 81 122 81 122 79.5 148.5 c 128,-1,24
 78 175 78 175 75.5 208.5 c 128,-1,25
 73 242 73 242 71 276 c 128,-1,26
 69 310 69 310 67.5 341.5 c 128,-1,27
 66 373 66 373 64 396 c 0,28,29
 64 399 64 399 63.5 408 c 128,-1,30
 63 417 63 417 63 427.5 c 128,-1,31
 63 438 63 438 63 447 c 128,-1,32
 63 456 63 456 63 460 c 1,0,1
EndSplineSet
EndChar

StartChar: s
Encoding: 115 115 86
Width: 457
VWidth: 838
Flags: HW
LayerCount: 2
Fore
SplineSet
136 152 m 1,0,1
 154 152 154 152 169.5 145 c 128,-1,2
 185 138 185 138 200.5 129.5 c 128,-1,3
 216 121 216 121 231 114 c 128,-1,4
 246 107 246 107 264 107 c 0,5,6
 285 107 285 107 307.5 114.5 c 128,-1,7
 330 122 330 122 349 136 c 128,-1,8
 368 150 368 150 380.5 169 c 128,-1,9
 393 188 393 188 393 212 c 1,10,11
 394 219 394 219 393.5 229 c 128,-1,12
 393 239 393 239 386.5 249.5 c 128,-1,13
 380 260 380 260 366 269 c 128,-1,14
 352 278 352 278 326 283.5 c 128,-1,15
 300 289 300 289 259.5 289.5 c 128,-1,16
 219 290 219 290 160 282 c 1,17,18
 145 282 145 282 131 290.5 c 128,-1,19
 117 299 117 299 106 311 c 128,-1,20
 95 323 95 323 88 338 c 128,-1,21
 81 353 81 353 81 366 c 0,22,23
 81 404 81 404 97.5 429 c 128,-1,24
 114 454 114 454 140 468.5 c 128,-1,25
 166 483 166 483 198.5 489 c 128,-1,26
 231 495 231 495 263 495 c 0,27,28
 279 495 279 495 298 493.5 c 128,-1,29
 317 492 317 492 334 485.5 c 128,-1,30
 351 479 351 479 362 465 c 128,-1,31
 373 451 373 451 373 426 c 1,32,33
 371 409 371 409 367.5 405.5 c 128,-1,34
 364 402 364 402 357.5 407.5 c 128,-1,35
 351 413 351 413 342 423 c 128,-1,36
 333 433 333 433 320.5 442.5 c 128,-1,37
 308 452 308 452 290.5 456.5 c 128,-1,38
 273 461 273 461 252 457 c 1,39,40
 229 457 229 457 205.5 452.5 c 128,-1,41
 182 448 182 448 163.5 436.5 c 128,-1,42
 145 425 145 425 133.5 406.5 c 128,-1,43
 122 388 122 388 122 359 c 0,44,45
 122 344 122 344 136 338.5 c 128,-1,46
 150 333 150 333 172.5 332.5 c 128,-1,47
 195 332 195 332 223.5 334 c 128,-1,48
 252 336 252 336 281.5 336 c 128,-1,49
 311 336 311 336 339 331 c 128,-1,50
 367 326 367 326 388.5 312.5 c 128,-1,51
 410 299 410 299 422 274.5 c 128,-1,52
 434 250 434 250 431 209 c 1,53,54
 431 181 431 181 414.5 154.5 c 128,-1,55
 398 128 398 128 372.5 108.5 c 128,-1,56
 347 89 347 89 316 78.5 c 128,-1,57
 285 68 285 68 256 71 c 0,58,59
 244 72 244 72 224 77.5 c 128,-1,60
 204 83 204 83 184.5 93 c 128,-1,61
 165 103 165 103 150.5 117.5 c 128,-1,62
 136 132 136 132 136 152 c 1,0,1
EndSplineSet
EndChar

StartChar: t
Encoding: 116 116 87
Width: 443
VWidth: 862
Flags: HW
LayerCount: 2
Fore
SplineSet
205 457 m 1,0,1
 196 460 196 460 180.5 460 c 128,-1,2
 165 460 165 460 147.5 458.5 c 128,-1,3
 130 457 130 457 114 454.5 c 128,-1,4
 98 452 98 452 87 452 c 0,5,6
 82 452 82 452 81 466.5 c 128,-1,7
 80 481 80 481 76 507 c 1,8,-1
 218 517 l 1,9,10
 221 551 221 551 221.5 566.5 c 128,-1,11
 222 582 222 582 221.5 592.5 c 128,-1,12
 221 603 221 603 220.5 616 c 128,-1,13
 220 629 220 629 220 658 c 1,14,15
 246 662 246 662 259.5 661 c 128,-1,16
 273 660 273 660 278.5 654 c 128,-1,17
 284 648 284 648 283 636.5 c 128,-1,18
 282 625 282 625 280 607.5 c 128,-1,19
 278 590 278 590 276 566.5 c 128,-1,20
 274 543 274 543 278 512 c 1,21,-1
 397 517 l 1,22,-1
 397 467 l 1,23,24
 389 467 389 467 372 466.5 c 128,-1,25
 355 466 355 466 335.5 464.5 c 128,-1,26
 316 463 316 463 299.5 462 c 128,-1,27
 283 461 283 461 275 459 c 1,28,29
 267 423 267 423 258 381.5 c 128,-1,30
 249 340 249 340 246 300.5 c 128,-1,31
 243 261 243 261 248.5 226.5 c 128,-1,32
 254 192 254 192 273.5 169 c 128,-1,33
 293 146 293 146 330.5 138 c 128,-1,34
 368 130 368 130 428 143 c 1,35,36
 426 129 426 129 416.5 119 c 128,-1,37
 407 109 407 109 394.5 103.5 c 128,-1,38
 382 98 382 98 368 96 c 128,-1,39
 354 94 354 94 343 94 c 0,40,41
 293 94 293 94 262.5 112 c 128,-1,42
 232 130 232 130 217 160 c 128,-1,43
 202 190 202 190 198 229 c 128,-1,44
 194 268 194 268 195.5 308 c 128,-1,45
 197 348 197 348 201 386.5 c 128,-1,46
 205 425 205 425 205 457 c 1,0,1
EndSplineSet
EndChar

StartChar: u
Encoding: 117 117 88
Width: 534
VWidth: 837
Flags: HW
LayerCount: 2
Fore
SplineSet
96 457 m 0,0,1
 95 462 95 462 102 467.5 c 128,-1,2
 109 473 109 473 118 476 c 128,-1,3
 127 479 127 479 136 479.5 c 128,-1,4
 145 480 145 480 149 476 c 1,5,6
 156 352 156 352 173 279 c 128,-1,7
 190 206 190 206 212.5 171.5 c 128,-1,8
 235 137 235 137 261 137 c 128,-1,9
 287 137 287 137 312 159 c 128,-1,10
 337 181 337 181 358.5 220.5 c 128,-1,11
 380 260 380 260 393.5 305 c 128,-1,12
 407 350 407 350 410.5 395 c 128,-1,13
 414 440 414 440 403 474 c 1,14,-1
 463 482 l 1,15,16
 464 466 464 466 468 431.5 c 128,-1,17
 472 397 472 397 478 353.5 c 128,-1,18
 484 310 484 310 490.5 263 c 128,-1,19
 497 216 497 216 502.5 175.5 c 128,-1,20
 508 135 508 135 511.5 106.5 c 128,-1,21
 515 78 515 78 515 71 c 1,22,-1
 472 71 l 1,23,-1
 426 244 l 1,24,25
 412 210 412 210 392 177.5 c 128,-1,26
 372 145 372 145 348.5 121 c 128,-1,27
 325 97 325 97 298.5 83.5 c 128,-1,28
 272 70 272 70 246.5 72.5 c 128,-1,29
 221 75 221 75 197 96 c 128,-1,30
 173 117 173 117 153 162.5 c 128,-1,31
 133 208 133 208 118 280.5 c 128,-1,32
 103 353 103 353 96 457 c 0,0,1
EndSplineSet
EndChar

StartChar: v
Encoding: 118 118 89
Width: 466
VWidth: 846
Flags: HW
LayerCount: 2
Fore
SplineSet
78 520 m 1,0,-1
 109 551 l 1,1,-1
 329 151 l 1,2,-1
 424 538 l 1,3,4
 431 534 431 534 438.5 533 c 128,-1,5
 446 532 446 532 452.5 531 c 128,-1,6
 459 530 459 530 463 527.5 c 128,-1,7
 467 525 467 525 467 520 c 1,8,9
 454 456 454 456 442.5 400 c 128,-1,10
 431 344 431 344 418.5 291 c 128,-1,11
 406 238 406 238 390.5 184.5 c 128,-1,12
 375 131 375 131 355 73 c 1,13,-1
 316 73 l 1,14,-1
 78 520 l 1,0,-1
EndSplineSet
EndChar

StartChar: w
Encoding: 119 119 90
Width: 658
VWidth: 852
Flags: HW
LayerCount: 2
Fore
SplineSet
300 97 m 1,0,-1
 106 544 l 1,1,-1
 132 571 l 1,2,-1
 298 200 l 1,3,-1
 373 444 l 1,4,-1
 567 180 l 1,5,6
 576 229 576 229 578 278.5 c 128,-1,7
 580 328 580 328 580 378 c 128,-1,8
 580 428 580 428 579 478.5 c 0,9,10
 578 528 578 528 582 580 c 1,11,-1
 624 564 l 1,12,13
 624 489 624 489 624 437 c 128,-1,14
 624 385 624 385 624 349.5 c 128,-1,15
 624 314 624 314 624 292 c 128,-1,16
 624 270 624 270 623 254 c 128,-1,17
 622 238 622 238 620 225 c 128,-1,18
 618 212 618 212 615 195 c 128,-1,19
 612 178 612 178 608 154 c 128,-1,20
 604 130 604 130 598 92 c 1,21,22
 567 115 567 115 538.5 151 c 128,-1,23
 510 187 510 187 484 223.5 c 128,-1,24
 458 260 458 260 435 290 c 128,-1,25
 412 320 412 320 394 334 c 1,26,-1
 300 97 l 1,0,-1
EndSplineSet
EndChar

StartChar: x
Encoding: 120 120 91
Width: 459
VWidth: 850
Flags: HW
LayerCount: 2
Fore
SplineSet
75 543 m 1,0,-1
 95 562 l 1,1,-1
 249 390 l 1,2,-1
 345 582 l 1,3,-1
 384 553 l 1,4,-1
 286 342 l 2,5,6
 286 340 286 340 286 337 c 128,-1,7
 286 334 286 334 287 332 c 0,8,9
 300 314 300 314 324.5 282 c 128,-1,10
 349 250 349 250 375 214.5 c 128,-1,11
 401 179 401 179 422.5 146.5 c 128,-1,12
 444 114 444 114 450 95 c 1,13,-1
 411 76 l 1,14,-1
 267 274 l 1,15,16
 256 266 256 266 242.5 241.5 c 128,-1,17
 229 217 229 217 215.5 188 c 128,-1,18
 202 159 202 159 191 131.5 c 128,-1,19
 180 104 180 104 173 90 c 1,20,-1
 133 101 l 1,21,-1
 212 321 l 1,22,-1
 75 543 l 1,0,-1
EndSplineSet
EndChar

StartChar: y
Encoding: 121 121 92
Width: 446
VWidth: 777
Flags: HWO
LayerCount: 2
Fore
SplineSet
277 -401 m 1,0,1
 277 -351 277 -351 285.5 -298 c 128,-1,2
 294 -245 294 -245 304 -191.5 c 128,-1,3
 314 -138 314 -138 320.5 -85 c 128,-1,4
 327 -32 327 -32 322 18 c 1,5,-1
 72 441 l 1,6,7
 94 461 94 461 107.5 463.5 c 128,-1,8
 121 466 121 466 123 464 c 0,9,10
 130 454 130 454 146.5 427 c 128,-1,11
 163 400 163 400 184.5 364 c 128,-1,12
 206 328 206 328 230 287.5 c 128,-1,13
 254 247 254 247 275.5 211 c 128,-1,14
 297 175 297 175 312.5 147.5 c 128,-1,15
 328 120 328 120 334 108 c 1,16,-1
 380 480 l 1,17,-1
 430 455 l 1,18,-1
 322 -404 l 5,19,-1
 277 -401 l 1,0,1
EndSplineSet
EndChar

StartChar: z
Encoding: 122 122 93
Width: 557
VWidth: 848
Flags: HW
LayerCount: 2
Fore
SplineSet
188 292 m 1,0,-1
 184 336 l 1,1,-1
 279 341 l 1,2,-1
 361 502 l 1,3,-1
 96 485 l 1,4,-1
 92 522 l 2,5,6
 93 522 93 522 112.5 524.5 c 128,-1,7
 132 527 132 527 162 531 c 128,-1,8
 192 535 192 535 229.5 540 c 128,-1,9
 267 545 267 545 304.5 549 c 128,-1,10
 342 553 342 553 375 556.5 c 128,-1,11
 408 560 408 560 429 561 c 1,12,-1
 341 341 l 1,13,-1
 435 349 l 1,14,-1
 438 301 l 1,15,-1
 297 292 l 1,16,-1
 240 127 l 1,17,18
 314 123 314 123 385 124.5 c 128,-1,19
 456 126 456 126 529 127 c 1,20,-1
 529 93 l 1,21,22
 526 94 526 94 504.5 92.5 c 128,-1,23
 483 91 483 91 450.5 89.5 c 128,-1,24
 418 88 418 88 378.5 85.5 c 128,-1,25
 339 83 339 83 300 81.5 c 128,-1,26
 261 80 261 80 227 80 c 128,-1,27
 193 80 193 80 171 82 c 1,28,-1
 243 292 l 1,29,-1
 188 292 l 1,0,-1
EndSplineSet
EndChar

StartChar: braceleft
Encoding: 123 123 94
Width: 346
VWidth: 877
Flags: HW
LayerCount: 2
Fore
SplineSet
59 339 m 1,0,1
 70 371 70 371 86.5 396.5 c 128,-1,2
 103 422 103 422 118.5 447.5 c 128,-1,3
 134 473 134 473 144.5 501.5 c 128,-1,4
 155 530 155 530 155 570 c 0,5,6
 155 591 155 591 152 610.5 c 128,-1,7
 149 630 149 630 145 649 c 128,-1,8
 141 668 141 668 137.5 688 c 128,-1,9
 134 708 134 708 134 728 c 0,10,11
 134 755 134 755 147.5 779 c 128,-1,12
 161 803 161 803 182 820.5 c 128,-1,13
 203 838 203 838 229 848.5 c 128,-1,14
 255 859 255 859 281 859 c 0,15,16
 289 859 289 859 298 858 c 128,-1,17
 307 857 307 857 314.5 853 c 128,-1,18
 322 849 322 849 327 842.5 c 128,-1,19
 332 836 332 836 332 825 c 1,20,21
 312 825 312 825 284.5 820 c 128,-1,22
 257 815 257 815 232.5 803 c 128,-1,23
 208 791 208 791 190.5 772 c 0,24,25
 173 754 173 754 173 726 c 0,26,27
 173 704 173 704 176.5 683 c 128,-1,28
 180 662 180 662 184.5 641 c 128,-1,29
 189 620 189 620 192.5 599 c 128,-1,30
 196 578 196 578 196 556 c 0,31,32
 196 530 196 530 189 508 c 128,-1,33
 182 486 182 486 174.5 465 c 128,-1,34
 167 444 167 444 160 422.5 c 128,-1,35
 153 401 153 401 153 377 c 0,36,37
 153 373 153 373 153.5 366.5 c 128,-1,38
 154 360 154 360 155 359 c 0,39,40
 174 313 174 313 183 281.5 c 128,-1,41
 192 250 192 250 199 226.5 c 128,-1,42
 206 203 206 203 211.5 184.5 c 128,-1,43
 217 166 217 166 228 147 c 128,-1,44
 239 128 239 128 257.5 105.5 c 128,-1,45
 276 83 276 83 308 51 c 0,46,47
 311 47 311 47 311 41.5 c 128,-1,48
 311 36 311 36 308 29.5 c 128,-1,49
 305 23 305 23 300 18.5 c 128,-1,50
 295 14 295 14 290 13 c 1,51,52
 254 13 254 13 232 25.5 c 128,-1,53
 210 38 210 38 197.5 59 c 128,-1,54
 185 80 185 80 179 107.5 c 128,-1,55
 173 135 173 135 168.5 164.5 c 128,-1,56
 164 194 164 194 158.5 222.5 c 128,-1,57
 153 251 153 251 142 275 c 128,-1,58
 131 299 131 299 111.5 316 c 128,-1,59
 92 333 92 333 59 339 c 1,0,1
EndSplineSet
EndChar

StartChar: bar
Encoding: 124 124 95
Width: 164
VWidth: 909
Flags: HW
LayerCount: 2
Fore
SplineSet
52 965 m 0,0,1
 52 968 52 968 52 979 c 128,-1,2
 52 990 52 990 55.5 1001 c 128,-1,3
 59 1012 59 1012 68 1017.5 c 128,-1,4
 77 1023 77 1023 95 1016 c 1,5,6
 96 989.5 l 0,7,8
 97 963 97 963 97.5 917 c 128,-1,9
 98 871 98 871 99 809.5 c 128,-1,10
 100 748 100 748 101 679 c 128,-1,11
 102 610 102 610 103 537 c 128,-1,12
 104 464 104 464 105 394 c 128,-1,13
 106 324 106 324 106.5 261 c 128,-1,14
 107 198 107 198 108 149 c 1,15,16
 107 140 107 140 105.5 133.5 c 128,-1,17
 104 127 104 127 100 122.5 c 128,-1,18
 96 118 96 118 88 116 c 128,-1,19
 80 114 80 114 67 114 c 1,20,21
 66 115 66 115 65.5 139.5 c 128,-1,22
 65 164 65 164 63.5 206 c 128,-1,23
 62 248 62 248 60.5 304 c 128,-1,24
 59 360 59 360 57.5 423 c 128,-1,25
 56 486 56 486 54.5 552.5 c 128,-1,26
 53 619 53 619 52 682.5 c 128,-1,27
 51 746 51 746 50.5 803.5 c 128,-1,28
 50 861 50 861 49 904 c 0,29,30
 49 906 49 906 49.5 914 c 128,-1,31
 50 922 50 922 50 931 c 128,-1,32
 50 940 50 940 51 950 c 128,-1,33
 52 960 52 960 52 965 c 0,0,1
EndSplineSet
EndChar

StartChar: braceright
Encoding: 125 125 96
Width: 402
VWidth: 873
Flags: HW
LayerCount: 2
Fore
SplineSet
263 18 m 1,0,1
 290 25 290 25 305.5 33 c 128,-1,2
 321 41 321 41 330 52.5 c 128,-1,3
 339 64 339 64 341 78 c 128,-1,4
 343 92 343 92 343 110 c 0,5,6
 343 124 343 124 339.5 151 c 128,-1,7
 336 178 336 178 330 212 c 128,-1,8
 324 246 324 246 315.5 282.5 c 128,-1,9
 307 319 307 319 298 350.5 c 128,-1,10
 289 382 289 382 280 406.5 c 128,-1,11
 271 431 271 431 263 440 c 1,12,13
 271 526 271 526 271.5 584.5 c 128,-1,14
 272 643 272 643 267.5 680.5 c 128,-1,15
 263 718 263 718 254.5 738.5 c 128,-1,16
 246 759 246 759 235.5 769 c 128,-1,17
 225 779 225 779 215 781.5 c 128,-1,18
 205 784 205 784 197 788 c 1,19,20
 179 788 179 788 163 784.5 c 128,-1,21
 147 781 147 781 131 776.5 c 128,-1,22
 115 772 115 772 99 768.5 c 128,-1,23
 83 765 83 765 65 765 c 1,24,25
 65 787 65 787 79.5 802.5 c 128,-1,26
 94 818 94 818 114.5 827 c 128,-1,27
 135 836 135 836 157.5 840 c 128,-1,28
 180 844 180 844 196 844 c 0,29,30
 229 844 229 844 252.5 831 c 128,-1,31
 276 818 276 818 291.5 796.5 c 128,-1,32
 307 775 307 775 314 747.5 c 128,-1,33
 321 720 321 720 321 691 c 0,34,35
 321 655 321 655 317 620.5 c 128,-1,36
 313 586 313 586 308.5 556 c 128,-1,37
 304 526 304 526 301 501.5 c 128,-1,38
 298 477 298 477 302 460 c 1,39,40
 334 427 334 427 350 386 c 128,-1,41
 366 345 366 345 374 300.5 c 128,-1,42
 382 256 382 256 384 209.5 c 128,-1,43
 386 163 386 163 388 118 c 1,44,45
 388 92 388 92 380.5 69 c 128,-1,46
 373 46 373 46 357.5 30 c 128,-1,47
 342 14 342 14 318 5 c 128,-1,48
 294 -4 294 -4 263 -4 c 1,49,-1
 263 18 l 1,0,1
EndSplineSet
EndChar

StartChar: asciitilde
Encoding: 126 126 97
Width: 364
VWidth: 947
Flags: HW
LayerCount: 2
Fore
SplineSet
162 729 m 1,0,1
 152 737 152 737 145 731.5 c 128,-1,2
 138 726 138 726 133 715 c 128,-1,3
 128 704 128 704 124 690.5 c 128,-1,4
 120 677 120 677 116 668.5 c 128,-1,5
 112 660 112 660 107 661.5 c 128,-1,6
 102 663 102 663 96 681 c 1,7,8
 96 728 96 728 111 747.5 c 128,-1,9
 126 767 126 767 160 767 c 1,10,11
 179 758 179 758 191.5 745.5 c 128,-1,12
 204 733 204 733 214.5 722.5 c 128,-1,13
 225 712 225 712 233.5 705.5 c 128,-1,14
 242 699 242 699 252 703.5 c 128,-1,15
 262 708 262 708 275 724.5 c 128,-1,16
 288 741 288 741 306 776 c 1,17,18
 312 776 312 776 319.5 771 c 128,-1,19
 327 766 327 766 327 756 c 1,20,21
 311 715 311 715 295.5 694.5 c 128,-1,22
 280 674 280 674 266 668.5 c 128,-1,23
 252 663 252 663 238 669 c 128,-1,24
 224 675 224 675 211 685.5 c 128,-1,25
 198 696 198 696 186 708.5 c 128,-1,26
 174 721 174 721 162 729 c 1,0,1
EndSplineSet
EndChar

StartChar: cent
Encoding: 162 162 100
Width: 436
VWidth: 848
Flags: HW
LayerCount: 2
Fore
SplineSet
234 547 m 2,0,1
 234 550 234 550 234 560.5 c 128,-1,2
 234 571 234 571 238 582 c 128,-1,3
 242 593 242 593 251 598.5 c 128,-1,4
 260 604 260 604 278 598 c 0,5,6
 278 597 278 597 278.5 573.5 c 128,-1,7
 279 550 279 550 279 508 c 1,8,9
 297 507 297 507 308.5 497 c 128,-1,10
 320 487 320 487 325.5 471 c 128,-1,11
 331 455 331 455 332.5 435.5 c 128,-1,12
 334 416 334 416 334.5 396 c 128,-1,13
 335 376 335 376 334.5 359 c 128,-1,14
 334 342 334 342 337 331 c 1,15,-1
 311 331 l 1,16,17
 310 336 310 336 309 351.5 c 128,-1,18
 308 367 308 367 304.5 385.5 c 128,-1,19
 301 404 301 404 295.5 423 c 128,-1,20
 290 442 290 442 280 454 c 1,21,22
 281 388 281 388 281 303.5 c 128,-1,23
 281 219 281 219 283 128 c 1,24,25
 299 135 299 135 314 144 c 128,-1,26
 329 153 329 153 345 161 c 128,-1,27
 361 169 361 169 377.5 174.5 c 128,-1,28
 394 180 394 180 412 180 c 1,29,30
 412 160 412 160 400 143.5 c 128,-1,31
 388 127 388 127 369.5 115 c 128,-1,32
 351 103 351 103 328 95.5 c 128,-1,33
 305 88 305 88 283 83 c 1,34,35
 283 77 283 77 283.5 70.5 c 128,-1,36
 284 64 284 64 284 57 c 0,37,38
 283 48 283 48 281 46.5 c 128,-1,39
 279 45 279 45 273.5 46.5 c 128,-1,40
 268 48 268 48 260 50.5 c 128,-1,41
 252 53 252 53 239 53 c 1,42,43
 237 55 237 55 236 79 c 1,44,45
 202 79 202 79 174 93 c 128,-1,46
 146 107 146 107 125 130.5 c 128,-1,47
 104 154 104 154 92 185.5 c 128,-1,48
 80 217 80 217 80 252 c 0,49,50
 80 286 80 286 90 326 c 128,-1,51
 100 366 100 366 119 402.5 c 128,-1,52
 138 439 138 439 166 467 c 128,-1,53
 194 495 194 495 232 504 c 1,54,-1
 234 547 l 2,0,1
118 274 m 1,55,56
 120 249 120 249 126 219.5 c 128,-1,57
 132 190 132 190 145.5 166 c 128,-1,58
 159 142 159 142 180.5 127 c 128,-1,59
 202 112 202 112 235 118 c 1,60,-1
 236 118 l 1,61,62
 235 145 235 145 234.5 182.5 c 128,-1,63
 234 220 234 220 233.5 264.5 c 128,-1,64
 233 309 233 309 232.5 359.5 c 128,-1,65
 232 410 232 410 231 464 c 1,66,67
 207 456 207 456 186.5 432.5 c 128,-1,68
 166 409 166 409 151 380.5 c 128,-1,69
 136 352 136 352 127 323 c 128,-1,70
 118 294 118 294 118 274 c 1,55,56
EndSplineSet
EndChar

StartChar: sterling
Encoding: 163 163 101
Width: 565
VWidth: 864
Flags: HW
LayerCount: 2
Fore
SplineSet
92 399 m 0,0,1
 93 400 93 400 97 401 c 128,-1,2
 101 402 101 402 114 403 c 0,3,4
 122 404 122 404 133 404 c 1,5,6
 128 478 128 478 133 529 c 0,7,8
 141 593 141 593 161.5 623.5 c 128,-1,9
 182 654 182 654 208 662 c 128,-1,10
 234 670 234 670 262 660 c 128,-1,11
 290 650 290 650 311.5 634.5 c 128,-1,12
 333 619 333 619 345.5 601.5 c 128,-1,13
 358 584 358 584 353 576.5 c 128,-1,14
 348 569 348 569 321.5 576.5 c 128,-1,15
 295 584 295 584 240 617 c 0,16,17
 219 630 219 630 206.5 614.5 c 128,-1,18
 194 599 194 599 188.5 565 c 128,-1,19
 183 531 183 531 182 482 c 0,20,21
 182 447 182 447 183 408 c 1,22,23
 200 410 200 410 224 412 c 0,24,25
 233 414 233 414 245.5 415 c 128,-1,26
 258 416 258 416 270 415.5 c 128,-1,27
 282 415 282 415 291.5 413 c 128,-1,28
 301 411 301 411 304.5 406 c 128,-1,29
 308 401 308 401 303 393.5 c 128,-1,30
 298 386 298 386 281 374 c 1,31,32
 257 372 257 372 242 370 c 128,-1,33
 227 368 227 368 213.5 367.5 c 128,-1,34
 200 367 200 367 186 366 c 1,35,36
 189 318 189 318 193 269 c 0,37,38
 199 213 199 213 205 164 c 1,39,40
 249 184 249 184 291 190.5 c 128,-1,41
 333 197 333 197 371 194 c 128,-1,42
 409 191 409 191 444 180.5 c 128,-1,43
 479 170 479 170 510 154 c 1,44,-1
 505 118 l 1,45,46
 494 124 494 124 469 128.5 c 128,-1,47
 444 133 444 133 412.5 135.5 c 128,-1,48
 381 138 381 138 346.5 138.5 c 128,-1,49
 312 139 312 139 279.5 136 c 128,-1,50
 247 133 247 133 221 126.5 c 128,-1,51
 195 120 195 120 181 110 c 1,52,53
 147 261 147 261 136 362 c 1,54,55
 132 362 132 362 128 362 c 0,56,57
 122 361 122 361 116 360.5 c 128,-1,58
 110 360 110 360 108 360 c 0,59,60
 102 360 102 360 97 360.5 c 128,-1,61
 92 361 92 361 89.5 364.5 c 128,-1,62
 87 368 87 368 87.5 376 c 128,-1,63
 88 384 88 384 92 399 c 0,0,1
EndSplineSet
EndChar

StartChar: currency
Encoding: 164 164 102
Width: 520
VWidth: 843
Flags: HW
LayerCount: 2
Fore
SplineSet
149 258 m 0,0,1
 149 276 149 276 151.5 299 c 128,-1,2
 154 322 154 322 159.5 346 c 128,-1,3
 165 370 165 370 173.5 394.5 c 0,4,5
 182 420 182 420 193 442 c 1,6,-1
 135 536 l 1,7,-1
 154 556 l 1,8,-1
 218 484 l 1,9,10
 238 510 238 510 263 525 c 128,-1,11
 288 540 288 540 321 540 c 0,12,13
 343 540 343 540 363.5 528.5 c 128,-1,14
 384 517 384 517 402 498 c 1,15,-1
 441 546 l 1,16,-1
 480 518 l 1,17,-1
 432 452 l 1,18,19
 449 418 449 418 457.5 378.5 c 128,-1,20
 466 339 466 339 465 300 c 1,21,22
 465 244 465 244 443 196 c 1,23,24
 466 163 466 163 485 134.5 c 128,-1,25
 504 106 504 106 510 88 c 1,26,-1
 471 70 l 1,27,-1
 414 148 l 1,28,29
 390 119 390 119 360 100.5 c 128,-1,30
 330 82 330 82 299 76.5 c 128,-1,31
 268 71 268 71 239 80.5 c 128,-1,32
 210 90 210 90 189 116 c 1,33,34
 170 94 170 94 156.5 76 c 128,-1,35
 143 58 143 58 139 48 c 1,36,-1
 99 58 l 1,37,-1
 165 157 l 1,38,39
 157 177 157 177 153 201.5 c 128,-1,40
 149 226 149 226 149 258 c 0,0,1
183 262 m 0,41,42
 185 201 185 201 203.5 168 c 128,-1,43
 222 135 222 135 248 124.5 c 128,-1,44
 274 114 274 114 304 123.5 c 128,-1,45
 334 133 334 133 360 158.5 c 128,-1,46
 386 184 386 184 404.5 223 c 128,-1,47
 423 262 423 262 425 310 c 1,48,49
 426 346 426 346 419 380 c 128,-1,50
 412 414 412 414 398 440 c 128,-1,51
 384 466 384 466 364.5 482 c 128,-1,52
 345 498 345 498 321 498 c 128,-1,53
 297 498 297 498 277.5 485.5 c 128,-1,54
 258 473 258 473 243 452.5 c 128,-1,55
 228 432 228 432 216.5 406.5 c 128,-1,56
 205 381 205 381 197.5 354.5 c 128,-1,57
 190 328 190 328 186.5 304 c 128,-1,58
 183 280 183 280 183 262 c 0,41,42
EndSplineSet
EndChar

StartChar: yen
Encoding: 165 165 103
Width: 410
VWidth: 892
Flags: HW
LayerCount: 2
Fore
SplineSet
133 399 m 1,0,1
 157 402 157 402 186 405 c 128,-1,2
 215 408 215 408 248 412 c 1,3,-1
 248 451 l 1,4,5
 232 473 232 473 214 506 c 128,-1,6
 196 539 196 539 177 577 c 128,-1,7
 158 615 158 615 138.5 656 c 128,-1,8
 119 697 119 697 102.5 735.5 c 128,-1,9
 86 774 86 774 72.5 807 c 128,-1,10
 59 840 59 840 50 863 c 1,11,-1
 69 882 l 1,12,-1
 267 509 l 1,13,14
 276 550 276 550 290.5 601 c 128,-1,15
 305 652 305 652 323 704 c 128,-1,16
 341 756 341 756 362 802.5 c 128,-1,17
 383 849 383 849 403 883 c 1,18,19
 405 884 405 884 408 884 c 128,-1,20
 411 884 411 884 413 884 c 0,21,22
 416 884 416 884 421.5 883 c 128,-1,23
 427 882 427 882 432 879.5 c 128,-1,24
 437 877 437 877 440 873.5 c 128,-1,25
 443 870 443 870 441 864 c 0,26,27
 428 838 428 838 407.5 795 c 128,-1,28
 387 752 387 752 366 697.5 c 128,-1,29
 345 643 345 643 327.5 580.5 c 128,-1,30
 310 518 310 518 302 453 c 1,31,-1
 302 417 l 1,32,33
 325 419 325 419 349.5 419.5 c 128,-1,34
 374 420 374 420 395 420 c 1,35,-1
 395 380 l 1,36,-1
 301 376 l 1,37,-1
 301 311 l 1,38,39
 341 313 341 313 372 311.5 c 128,-1,40
 403 310 403 310 409 303 c 1,41,-1
 409 279 l 1,42,43
 400.5 278.5 l 0,44,45
 392 278 392 278 377 277.5 c 128,-1,46
 362 277 362 277 342.5 276.5 c 128,-1,47
 323 276 323 276 301 276 c 1,48,-1
 300 144 l 1,49,50
 298 134 298 134 297 128 c 128,-1,51
 296 122 296 122 290.5 119 c 128,-1,52
 285 116 285 116 275.5 115.5 c 128,-1,53
 266 115 266 115 248 115 c 1,54,-1
 248 273 l 1,55,56
 215 271 215 271 186.5 269 c 128,-1,57
 158 267 158 267 140 265 c 0,58,59
 139 265 139 265 139 269 c 128,-1,60
 139 273 139 273 139 278.5 c 128,-1,61
 139 284 139 284 138.5 288.5 c 128,-1,62
 138 293 138 293 137 294 c 1,63,64
 151 297 151 297 181 301 c 128,-1,65
 211 305 211 305 248 308 c 1,66,-1
 248 374 l 1,67,-1
 133 370 l 1,68,-1
 133 399 l 1,0,1
EndSplineSet
EndChar

StartChar: brokenbar
Encoding: 166 166 104
Width: 169
VWidth: 891
Flags: HW
LayerCount: 2
Fore
SplineSet
123 512 m 1,0,1
 125 464 125 464 126.5 418.5 c 128,-1,2
 128 373 128 373 129.5 334 c 128,-1,3
 131 295 131 295 131.5 264.5 c 128,-1,4
 132 234 132 234 133 218 c 0,5,6
 133 216 133 216 132.5 211 c 128,-1,7
 132 206 132 206 132 199 c 128,-1,8
 132 192 132 192 131 185.5 c 128,-1,9
 130 179 130 179 130 176 c 0,10,11
 129 170 129 170 129 161.5 c 128,-1,12
 129 153 129 153 127.5 145 c 128,-1,13
 126 137 126 137 121 130.5 c 128,-1,14
 116 124 116 124 106 123 c 1,15,-1
 89 144 l 2,16,17
 88 145 88 145 87 176 c 128,-1,18
 86 207 86 207 84 258 c 128,-1,19
 82 309 82 309 80 374.5 c 128,-1,20
 78 440 78 440 75 510 c 1,21,-1
 123 512 l 1,0,1
69 542 m 1,22,23
 67 586 67 586 67.5 618 c 128,-1,24
 68 650 68 650 68.5 678.5 c 128,-1,25
 69 707 69 707 69.5 732.5 c 128,-1,26
 70 758 70 758 69 787 c 0,27,28
 69 791 69 791 69.5 803 c 128,-1,29
 70 815 70 815 71 827.5 c 128,-1,30
 72 840 72 840 72 851.5 c 128,-1,31
 72 863 72 863 72 868 c 1,32,33
 86 866 86 866 97 860.5 c 128,-1,34
 108 855 108 855 113 841 c 1,35,36
 115 801 115 801 118 726.5 c 128,-1,37
 121 652 121 652 125 539 c 1,38,-1
 69 542 l 1,22,23
EndSplineSet
EndChar

StartChar: section
Encoding: 167 167 105
Width: 466
VWidth: 866
Flags: HW
LayerCount: 2
Fore
SplineSet
104 215 m 1,0,1
 122 215 122 215 143.5 202.5 c 128,-1,2
 165 190 165 190 187 175 c 128,-1,3
 209 160 209 160 230 147.5 c 128,-1,4
 251 135 251 135 269 135 c 0,5,6
 290 135 290 135 314.5 138 c 128,-1,7
 339 141 339 141 360.5 148.5 c 128,-1,8
 382 156 382 156 396 171 c 128,-1,9
 410 186 410 186 410 208 c 1,10,11
 408 214 408 214 408.5 221.5 c 128,-1,12
 409 229 409 229 405 238 c 128,-1,13
 401 247 401 247 391.5 258 c 0,14,15
 382 268 382 268 361 282 c 1,16,17
 340 272 340 272 318 270 c 128,-1,18
 296 268 296 268 275 264 c 0,19,20
 247 260 247 260 219.5 268 c 128,-1,21
 192 276 192 276 170.5 292 c 128,-1,22
 149 308 149 308 135.5 330 c 128,-1,23
 122 352 122 352 121.5 377 c 128,-1,24
 121 402 121 402 136.5 428 c 128,-1,25
 152 454 152 454 189 477 c 1,26,27
 187 477 187 477 184.5 476.5 c 128,-1,28
 182 476 182 476 179 476 c 0,29,30
 164 476 164 476 150.5 484 c 128,-1,31
 137 492 137 492 125.5 504.5 c 128,-1,32
 114 517 114 517 107.5 531.5 c 128,-1,33
 101 546 101 546 101 560 c 0,34,35
 101 598 101 598 117.5 623 c 128,-1,36
 134 648 134 648 159.5 663 c 128,-1,37
 185 678 185 678 218 683.5 c 128,-1,38
 251 689 251 689 283 689 c 0,39,40
 299 689 299 689 317.5 687.5 c 128,-1,41
 336 686 336 686 353 679 c 128,-1,42
 370 672 370 672 381 658.5 c 128,-1,43
 392 645 392 645 392 620 c 1,44,45
 390 603 390 603 386.5 599.5 c 128,-1,46
 383 596 383 596 377 601 c 128,-1,47
 371 606 371 606 362 616.5 c 128,-1,48
 353 627 353 627 340 636.5 c 128,-1,49
 327 646 327 646 310 650.5 c 128,-1,50
 293 655 293 655 271 651 c 1,51,52
 248 651 248 651 222.5 646.5 c 128,-1,53
 197 642 197 642 177 630.5 c 128,-1,54
 157 619 157 619 146 600 c 0,55,56
 135 580 135 580 141 552 c 0,57,58
 145 533 145 533 161 526 c 128,-1,59
 177 519 177 519 201 517 c 128,-1,60
 225 515 225 515 254 517 c 128,-1,61
 283 519 283 519 312 519.5 c 128,-1,62
 341 520 341 520 368 516.5 c 128,-1,63
 395 513 395 513 414.5 501 c 128,-1,64
 434 489 434 489 444.5 466 c 128,-1,65
 455 443 455 443 451 404 c 1,66,67
 451 393 451 393 445.5 379 c 128,-1,68
 440 365 440 365 432.5 351.5 c 128,-1,69
 425 338 425 338 415 325 c 128,-1,70
 405 312 405 312 396 304 c 1,71,72
 409 298 409 298 419 290.5 c 128,-1,73
 429 283 429 283 436 272 c 128,-1,74
 443 261 443 261 446 245 c 128,-1,75
 449 229 449 229 447 207 c 1,76,77
 447 179 447 179 428.5 156 c 128,-1,78
 410 133 410 133 382.5 118.5 c 128,-1,79
 355 104 355 104 322.5 98 c 128,-1,80
 290 92 290 92 261 98 c 0,81,82
 248 100 248 100 231 106.5 c 128,-1,83
 214 113 214 113 195.5 122 c 128,-1,84
 177 131 177 131 159 142.5 c 128,-1,85
 141 154 141 154 128 166 c 128,-1,86
 115 178 115 178 108 190.5 c 128,-1,87
 101 203 101 203 104 215 c 1,0,1
369 331 m 1,88,89
 388 345 388 345 400.5 364 c 128,-1,90
 413 383 413 383 413 406 c 1,91,92
 411 444 411 444 379 462.5 c 0,93,94
 347 482 347 482 298 478 c 1,95,96
 275 478 275 478 249.5 470 c 128,-1,97
 224 462 224 462 203 447 c 128,-1,98
 182 432 182 432 168.5 410 c 128,-1,99
 155 388 155 388 155 358 c 0,100,101
 155 349 155 349 168.5 335 c 128,-1,102
 182 321 182 321 209 312.5 c 128,-1,103
 236 304 236 304 276 305.5 c 128,-1,104
 316 307 316 307 369 331 c 1,88,89
EndSplineSet
EndChar

StartChar: dieresis
Encoding: 168 168 106
Width: 403
VWidth: 949
Flags: HW
LayerCount: 2
Fore
SplineSet
103 725 m 0,0,1
 99 740 99 740 103 748.5 c 128,-1,2
 107 757 107 757 115.5 761 c 128,-1,3
 124 765 124 765 133.5 765.5 c 128,-1,4
 143 766 143 766 151 766 c 0,5,6
 159 766 159 766 168.5 765.5 c 128,-1,7
 178 765 178 765 186 761 c 128,-1,8
 194 757 194 757 198 748.5 c 128,-1,9
 202 740 202 740 199 725 c 0,10,11
 195 711 195 711 181 698.5 c 128,-1,12
 167 686 167 686 151 686 c 0,13,14
 143 686 143 686 135 689.5 c 128,-1,15
 127 693 127 693 120.5 698.5 c 128,-1,16
 114 704 114 704 109.5 711 c 128,-1,17
 105 718 105 718 103 725 c 0,0,1
250 725 m 0,18,19
 246 740 246 740 250.5 748.5 c 128,-1,20
 255 757 255 757 263 761 c 128,-1,21
 271 765 271 765 281 765.5 c 128,-1,22
 291 766 291 766 299 766 c 0,23,24
 307 766 307 766 316.5 765.5 c 128,-1,25
 326 765 326 765 334 761 c 128,-1,26
 342 757 342 757 346 748.5 c 128,-1,27
 350 740 350 740 346 725 c 0,28,29
 344 718 344 718 339.5 711 c 128,-1,30
 335 704 335 704 328.5 698.5 c 128,-1,31
 322 693 322 693 314.5 689.5 c 128,-1,32
 307 686 307 686 299 686 c 0,33,34
 283 686 283 686 268.5 698.5 c 128,-1,35
 254 711 254 711 250 725 c 0,18,19
EndSplineSet
EndChar

StartChar: copyright
Encoding: 169 169 107
Width: 606
VWidth: 851
Flags: HW
LayerCount: 2
Fore
SplineSet
214 309 m 0,0,1
 214 339 214 339 224.5 378 c 128,-1,2
 235 417 235 417 254.5 451.5 c 128,-1,3
 274 486 274 486 300.5 510 c 128,-1,4
 327 534 327 534 358 534 c 1,5,6
 374 537 374 537 385 529.5 c 128,-1,7
 396 522 396 522 402.5 507.5 c 128,-1,8
 409 493 409 493 413.5 474.5 c 128,-1,9
 418 456 418 456 419.5 437.5 c 128,-1,10
 421 419 421 419 422 403 c 128,-1,11
 423 387 423 387 424 377 c 1,12,-1
 394 369 l 1,13,14
 393 374 393 374 391.5 392 c 128,-1,15
 390 410 390 410 386 429.5 c 128,-1,16
 382 449 382 449 374 464 c 128,-1,17
 366 479 366 479 353 479 c 0,18,19
 333 479 333 479 316.5 461.5 c 128,-1,20
 300 444 300 444 287 419 c 128,-1,21
 274 394 274 394 266.5 367 c 128,-1,22
 259 340 259 340 259 322 c 0,23,24
 260 302 260 302 264 278.5 c 128,-1,25
 268 255 268 255 277.5 235.5 c 128,-1,26
 287 216 287 216 302.5 205 c 128,-1,27
 318 194 318 194 340 198 c 1,28,29
 356 198 356 198 372 205.5 c 128,-1,30
 388 213 388 213 402.5 222.5 c 128,-1,31
 417 232 417 232 432 239.5 c 128,-1,32
 447 247 447 247 464 247 c 1,33,34
 464 226 464 226 450.5 209 c 128,-1,35
 437 192 437 192 417.5 180 c 128,-1,36
 398 168 398 168 376.5 161 c 128,-1,37
 355 154 355 154 340 154 c 0,38,39
 316 154 316 154 293.5 168 c 128,-1,40
 271 182 271 182 253 204 c 128,-1,41
 235 226 235 226 224.5 253.5 c 128,-1,42
 214 281 214 281 214 309 c 0,0,1
109 357 m 0,43,44
 108 402 108 402 119 451 c 128,-1,45
 130 500 130 500 155.5 541.5 c 128,-1,46
 181 583 181 583 222.5 612 c 128,-1,47
 264 641 264 641 325 645 c 1,48,49
 368 644 368 644 404 628 c 128,-1,50
 440 612 440 612 469.5 585 c 128,-1,51
 499 558 499 558 521 522.5 c 128,-1,52
 543 487 543 487 557 447.5 c 128,-1,53
 571 408 571 408 576.5 367 c 128,-1,54
 582 326 582 326 579 288 c 0,55,56
 573 218 573 218 548 168 c 128,-1,57
 523 118 523 118 485.5 86 c 128,-1,58
 448 54 448 54 403 39 c 128,-1,59
 358 24 358 24 313 24 c 0,60,61
 268 24 268 24 235.5 39.5 c 128,-1,62
 203 55 203 55 180 81.5 c 128,-1,63
 157 108 157 108 143.5 142 c 128,-1,64
 130 176 130 176 122.5 213 c 128,-1,65
 115 250 115 250 112 287 c 128,-1,66
 109 324 109 324 109 357 c 0,43,44
148 357 m 0,67,68
 148 332 148 332 149 302.5 c 128,-1,69
 150 273 150 273 154.5 242 c 128,-1,70
 159 211 159 211 167.5 182 c 128,-1,71
 176 153 176 153 192 130.5 c 128,-1,72
 208 108 208 108 231 94 c 128,-1,73
 254 80 254 80 288 80 c 1,74,75
 335 72 335 72 378 80.5 c 128,-1,76
 421 89 421 89 454.5 114 c 128,-1,77
 488 139 488 139 510.5 182 c 128,-1,78
 533 225 533 225 539 288 c 1,79,80
 543 313 543 313 538.5 345.5 c 128,-1,81
 534 378 534 378 521 414 c 128,-1,82
 508 450 508 450 488.5 484.5 c 128,-1,83
 469 519 469 519 443.5 546 c 128,-1,84
 418 573 418 573 388 590 c 128,-1,85
 358 607 358 607 325 607 c 1,86,87
 280 602 280 602 247 574 c 128,-1,88
 214 546 214 546 191.5 508.5 c 128,-1,89
 169 471 169 471 158.5 430 c 128,-1,90
 148 389 148 389 148 357 c 0,67,68
EndSplineSet
EndChar

StartChar: guillemotleft
Encoding: 171 171 109
Width: 558
VWidth: 849
Flags: HW
LayerCount: 2
Fore
SplineSet
115 245 m 0,0,1
 115 247 115 247 115.5 250.5 c 0,2,-1
 116 254 l 2,3,-1
 328 542 l 1,4,-1
 351 542 l 1,5,6
 351 517 351 517 340 490.5 c 128,-1,7
 329 464 329 464 312.5 437.5 c 128,-1,8
 296 411 296 411 275.5 386 c 128,-1,9
 255 361 255 361 235 339.5 c 128,-1,10
 215 318 215 318 198.5 301 c 128,-1,11
 182 284 182 284 174 274 c 1,12,-1
 174 236 l 1,13,14
 182 233 182 233 198.5 225.5 c 128,-1,15
 215 218 215 218 236 208.5 c 128,-1,16
 257 199 257 199 280 188.5 c 128,-1,17
 303 178 303 178 323.5 168.5 c 128,-1,18
 344 159 344 159 360.5 151 c 0,19,20
 377 144 377 144 385 140 c 0,21,22
 388 138 388 138 394 133 c 128,-1,23
 400 128 400 128 406 122 c 128,-1,24
 412 116 412 116 417 110 c 128,-1,25
 422 104 422 104 424 101 c 1,26,27
 418 89 418 89 412 85 c 128,-1,28
 406 81 406 81 395 81 c 0,29,30
 387 81 387 81 363.5 92 c 128,-1,31
 340 103 340 103 309 119.5 c 128,-1,32
 278 136 278 136 243.5 155.5 c 128,-1,33
 209 175 209 175 180.5 193.5 c 128,-1,34
 152 212 152 212 133.5 226 c 128,-1,35
 115 240 115 240 115 245 c 0,0,1
237 276 m 0,36,37
 237 278 237 278 237.5 281 c 128,-1,38
 238 284 238 284 238 285 c 2,39,-1
 449 573 l 1,40,-1
 473 573 l 1,41,42
 473 548 473 548 462.5 521 c 128,-1,43
 452 494 452 494 435 468 c 128,-1,44
 418 442 418 442 397.5 417 c 128,-1,45
 377 392 377 392 357.5 370.5 c 128,-1,46
 338 349 338 349 321 331.5 c 128,-1,47
 304 314 304 314 296 304 c 1,48,-1
 296 266 l 1,49,50
 304 263 304 263 321 255.5 c 128,-1,51
 338 248 338 248 359 239 c 128,-1,52
 380 230 380 230 402.5 219.5 c 128,-1,53
 425 209 425 209 445.5 199.5 c 128,-1,54
 466 190 466 190 483 182 c 128,-1,55
 500 174 500 174 507 170 c 0,56,57
 510 168 510 168 516 163.5 c 128,-1,58
 522 159 522 159 528 152.5 c 128,-1,59
 534 146 534 146 539 140.5 c 128,-1,60
 544 135 544 135 545 132 c 1,61,62
 539 120 539 120 533.5 116 c 128,-1,63
 528 112 528 112 518 112 c 0,64,65
 510 112 510 112 486 123 c 128,-1,66
 462 134 462 134 431 150 c 128,-1,67
 400 166 400 166 366 186 c 128,-1,68
 332 206 332 206 303 224 c 128,-1,69
 274 242 274 242 255.5 256.5 c 128,-1,70
 237 271 237 271 237 276 c 0,36,37
EndSplineSet
EndChar

StartChar: logicalnot
Encoding: 172 172 110
Width: 452
VWidth: 843
Flags: HW
LayerCount: 2
Fore
SplineSet
368 344 m 1,0,-1
 98 325 l 1,1,-1
 96 375 l 1,2,3
 128 366 128 366 168 370 c 128,-1,4
 208 374 208 374 249.5 381 c 128,-1,5
 291 388 291 388 332.5 392.5 c 128,-1,6
 374 397 374 397 411 388 c 1,7,8
 408 359 408 359 407.5 344.5 c 128,-1,9
 407 330 407 330 408 316 c 128,-1,10
 409 302 409 302 410.5 282 c 128,-1,11
 412 262 412 262 414 222 c 1,12,13
 406 211 406 211 394 213 c 128,-1,14
 382 215 382 215 368 215 c 1,15,-1
 368 259 l 1,16,-1
 368 344 l 1,0,-1
EndSplineSet
EndChar

StartChar: hyphen_
Encoding: 173 173 111
Width: 452
VWidth: 843
Flags: HW
LayerCount: 2
Fore
SplineSet
97 306 m 2,0,1
 98 307 98 307 120 310 c 128,-1,2
 142 313 142 313 177 317 c 128,-1,3
 212 321 212 321 256 325.5 c 128,-1,4
 300 330 300 330 345 333 c 0,5,6
 349 333 349 333 361 334 c 128,-1,7
 373 335 373 335 385.5 335.5 c 128,-1,8
 398 336 398 336 409.5 336 c 128,-1,9
 421 336 421 336 426 336 c 1,10,11
 426 323 426 323 420.5 312 c 128,-1,12
 415 301 415 301 403 295 c 1,13,14
 379 293 379 293 343 289 c 128,-1,15
 307 285 307 285 269 281 c 128,-1,16
 231 277 231 277 195 273.5 c 128,-1,17
 159 270 159 270 135 267 c 0,18,19
 133 267 133 267 125.5 267 c 128,-1,20
 118 267 118 267 114 267 c 0,21,22
 101 267 101 267 92 268.5 c 128,-1,23
 83 270 83 270 77 287 c 1,24,-1
 97 306 l 2,0,1
EndSplineSet
EndChar

StartChar: registered
Encoding: 174 174 112
Width: 606
VWidth: 859
Flags: HW
LayerCount: 2
Fore
SplineSet
464 189 m 1,0,1
 460 202 460 202 454.5 226 c 128,-1,2
 449 250 449 250 438.5 274 c 128,-1,3
 428 298 428 298 411 315.5 c 128,-1,4
 394 333 394 333 368 333 c 0,5,6
 361 333 361 333 349 331.5 c 128,-1,7
 337 330 337 330 325.5 327 c 128,-1,8
 314 324 314 324 305.5 319.5 c 128,-1,9
 297 315 297 315 297 310 c 2,10,-1
 297 196 l 1,11,12
 295 196 295 196 289 195.5 c 128,-1,13
 283 195 283 195 276.5 194 c 128,-1,14
 270 193 270 193 265.5 193.5 c 128,-1,15
 261 194 261 194 261 196 c 2,16,-1
 265 453 l 1,17,18
 251 451 251 451 248 439 c 128,-1,19
 245 427 245 427 245 417 c 1,20,21
 243 417 243 417 237.5 420.5 c 128,-1,22
 232 424 232 424 227 429 c 128,-1,23
 222 434 222 434 218 438.5 c 128,-1,24
 214 443 214 443 214 445 c 0,25,26
 214 464 214 464 232.5 481 c 128,-1,27
 251 498 251 498 275.5 511 c 128,-1,28
 300 524 300 524 326 531.5 c 128,-1,29
 352 539 352 539 368 539 c 0,30,31
 383 539 383 539 398 535 c 128,-1,32
 413 531 413 531 425 522.5 c 128,-1,33
 437 514 437 514 445 501.5 c 128,-1,34
 453 489 453 489 453 471 c 0,35,36
 453 456 453 456 448 441.5 c 128,-1,37
 443 427 443 427 434 413.5 c 128,-1,38
 425 400 425 400 414.5 388 c 128,-1,39
 404 376 404 376 394 366 c 1,40,41
 432 344 432 344 449.5 323.5 c 128,-1,42
 467 303 467 303 475 282.5 c 128,-1,43
 483 262 483 262 486.5 240.5 c 128,-1,44
 490 219 490 219 498 195 c 1,45,-1
 464 189 l 1,0,1
372 504 m 0,46,47
 366 504 366 504 353.5 503 c 128,-1,48
 341 502 341 502 329 499 c 128,-1,49
 317 496 317 496 307 490 c 128,-1,50
 297 484 297 484 297 474 c 2,51,-1
 297 348 l 1,52,53
 316 348 316 348 337.5 361 c 128,-1,54
 359 374 359 374 378 392.5 c 128,-1,55
 397 411 397 411 409.5 432 c 128,-1,56
 422 453 422 453 422 470 c 0,57,58
 422 492 422 492 407.5 498 c 128,-1,59
 393 504 393 504 372 504 c 0,46,47
114 372 m 0,60,61
 114 405 114 405 118.5 441.5 c 128,-1,62
 123 478 123 478 133.5 513.5 c 128,-1,63
 144 549 144 549 160.5 581.5 c 128,-1,64
 177 614 177 614 200.5 638.5 c 128,-1,65
 224 663 224 663 255.5 678 c 128,-1,66
 287 693 287 693 327 693 c 1,67,68
 368 703 368 703 405.5 689 c 128,-1,69
 443 675 443 675 474 645 c 128,-1,70
 505 615 505 615 529 573 c 128,-1,71
 553 531 553 531 568 484 c 128,-1,72
 583 437 583 437 587.5 389.5 c 128,-1,73
 592 342 592 342 584 303 c 1,74,75
 578 233 578 233 552.5 182.5 c 128,-1,76
 527 132 527 132 490 100.5 c 128,-1,77
 453 69 453 69 408 54 c 128,-1,78
 363 39 363 39 317 38 c 0,79,80
 273 38 273 38 240.5 53.5 c 128,-1,81
 208 69 208 69 185.5 95.5 c 128,-1,82
 163 122 163 122 149 156 c 128,-1,83
 135 190 135 190 127 227 c 128,-1,84
 119 264 119 264 116.5 302 c 128,-1,85
 114 340 114 340 114 372 c 0,60,61
152 372 m 256,86,87
 152 348 152 348 153.5 317.5 c 128,-1,88
 155 287 155 287 159.5 256 c 128,-1,89
 164 225 164 225 172.5 196 c 128,-1,90
 181 167 181 167 196.5 144.5 c 128,-1,91
 212 122 212 122 235.5 108 c 128,-1,92
 259 94 259 94 293 94 c 1,93,94
 340 86 340 86 382.5 94.5 c 128,-1,95
 425 103 425 103 459 128 c 128,-1,96
 493 153 493 153 515.5 196.5 c 128,-1,97
 538 240 538 240 544 303 c 1,98,99
 551 331 551 331 547 369.5 c 128,-1,100
 543 408 543 408 530.5 448.5 c 128,-1,101
 518 489 518 489 498.5 528.5 c 128,-1,102
 479 568 479 568 453 598 c 128,-1,103
 427 628 427 628 395.5 644 c 128,-1,104
 364 660 364 660 329 655 c 1,105,106
 298 655 298 655 273 641 c 128,-1,107
 248 627 248 627 228.5 603 c 128,-1,108
 209 579 209 579 194.5 549 c 128,-1,109
 180 519 180 519 170.5 487.5 c 128,-1,110
 161 456 161 456 156.5 426 c 128,-1,111
 152 396 152 396 152 372 c 256,86,87
EndSplineSet
EndChar

StartChar: macron
Encoding: 175 175 113
Width: 523
VWidth: 933
Flags: HW
LayerCount: 2
Fore
SplineSet
115 680 m 1,0,-1
 476 683 l 1,1,-1
 476 645 l 1,2,3
 466 647 466 647 439 646 c 128,-1,4
 412 645 412 645 377 644 c 128,-1,5
 342 643 342 643 302 641 c 128,-1,6
 262 639 262 639 224 639.5 c 128,-1,7
 186 640 186 640 154.5 642.5 c 128,-1,8
 123 645 123 645 104 651 c 1,9,-1
 115 680 l 1,0,-1
EndSplineSet
EndChar

StartChar: plusminus
Encoding: 177 177 115
Width: 380
VWidth: 852
Flags: HW
LayerCount: 2
Fore
SplineSet
96 218 m 2,0,1
 98 220 98 220 118 221 c 128,-1,2
 138 222 138 222 182 226 c 1,3,4
 181 242 181 242 181 253 c 128,-1,5
 181 264 181 264 180.5 274 c 128,-1,6
 180 284 180 284 180 295 c 128,-1,7
 180 306 180 306 180 321 c 1,8,-1
 77 321 l 1,9,-1
 68 364 l 1,10,-1
 186 371 l 1,11,-1
 186 491 l 1,12,13
 203 497 203 497 218.5 497 c 128,-1,14
 234 497 234 497 241 490 c 1,15,-1
 244 381 l 1,16,-1
 360 381 l 1,17,-1
 360 336 l 1,18,19
 326 333 326 333 295.5 331 c 128,-1,20
 265 329 265 329 244 329 c 1,21,-1
 240 231 l 1,22,23
 245 231 245 231 249.5 231.5 c 128,-1,24
 254 232 254 232 260 232 c 0,25,26
 264 232 264 232 276 233 c 128,-1,27
 288 234 288 234 301 234 c 128,-1,28
 314 234 314 234 326 234.5 c 128,-1,29
 338 235 338 235 342 235 c 1,30,31
 342 221 342 221 336.5 210.5 c 128,-1,32
 331 200 331 200 318 193 c 1,33,34
 271 189 271 189 227 186.5 c 128,-1,35
 183 184 183 184 135 180 c 0,36,37
 133 180 133 180 125 179.5 c 0,38,39
 118 179 118 179 114 179 c 0,40,41
 101 179 101 179 92 181 c 0,42,43
 84 183 84 183 78 199 c 1,44,-1
 96 218 l 2,0,1
EndSplineSet
EndChar

StartChar: acute
Encoding: 180 180 118
Width: 209
VWidth: 959
Flags: HW
LayerCount: 2
Fore
SplineSet
181 811 m 1,0,1
 167 794 167 794 154.5 780 c 128,-1,2
 142 766 142 766 129.5 752.5 c 128,-1,3
 117 739 117 739 105 724.5 c 128,-1,4
 93 710 93 710 79 694 c 1,5,-1
 50 709 l 1,6,7
 85 755 85 755 104 782.5 c 128,-1,8
 123 810 123 810 132.5 824 c 128,-1,9
 142 838 142 838 145 840.5 c 128,-1,10
 148 843 148 843 150.5 839 c 128,-1,11
 153 835 153 835 159 827 c 128,-1,12
 165 819 165 819 181 811 c 1,0,1
EndSplineSet
EndChar

StartChar: mu
Encoding: 181 181 119
Width: 534
VWidth: 831
Flags: HW
LayerCount: 2
Fore
SplineSet
96 451 m 0,0,1
 95 456 95 456 102 461.5 c 128,-1,2
 109 467 109 467 118 470 c 128,-1,3
 127 473 127 473 136 473.5 c 128,-1,4
 145 474 145 474 149 471 c 1,5,6
 156 347 156 347 173 273.5 c 128,-1,7
 190 200 190 200 212.5 166 c 128,-1,8
 235 132 235 132 261 131.5 c 128,-1,9
 287 131 287 131 312 153 c 128,-1,10
 337 175 337 175 358.5 214.5 c 128,-1,11
 380 254 380 254 393.5 299 c 128,-1,12
 407 344 407 344 410.5 389 c 128,-1,13
 414 434 414 434 403 468 c 1,14,-1
 463 476 l 1,15,16
 464 460 464 460 468 425.5 c 128,-1,17
 472 391 472 391 478 347.5 c 128,-1,18
 484 304 484 304 490.5 257 c 128,-1,19
 497 210 497 210 502.5 169.5 c 128,-1,20
 508 129 508 129 511.5 100.5 c 128,-1,21
 515 72 515 72 515 66 c 1,22,-1
 472 66 l 1,23,-1
 426 238 l 1,24,25
 412 205 412 205 392 175.5 c 128,-1,26
 372 146 372 146 347.5 124 c 128,-1,27
 323 102 323 102 296.5 90 c 128,-1,28
 270 78 270 78 243.5 79 c 128,-1,29
 217 80 217 80 191.5 97 c 128,-1,30
 166 114 166 114 146 151 c 1,31,-1
 141 36 l 1,32,33
 136 35 136 35 128.5 33 c 128,-1,34
 121 31 121 31 114 30.5 c 128,-1,35
 107 30 107 30 102 33 c 128,-1,36
 97 36 97 36 98 45 c 0,37,38
 99 61 99 61 100.5 90.5 c 128,-1,39
 102 120 102 120 103 157 c 128,-1,40
 104 194 104 194 104.5 235.5 c 128,-1,41
 105 277 105 277 104.5 317 c 128,-1,42
 104 357 104 357 102 392 c 128,-1,43
 100 427 100 427 96 451 c 0,0,1
EndSplineSet
EndChar

StartChar: paragraph
Encoding: 182 182 120
Width: 434
VWidth: 845
Flags: HW
LayerCount: 2
Fore
SplineSet
285 354 m 1,0,1
 265 334 265 334 250 322 c 128,-1,2
 235 310 235 310 220 303.5 c 128,-1,3
 205 297 205 297 188 295 c 128,-1,4
 171 293 171 293 149 293 c 0,5,6
 131 293 131 293 116.5 301 c 128,-1,7
 102 309 102 309 93 322.5 c 128,-1,8
 84 336 84 336 78.5 354 c 128,-1,9
 73 372 73 372 73 393 c 0,10,11
 73 529 73 529 209 528 c 0,12,13
 230 528 230 528 254 528.5 c 128,-1,14
 278 529 278 529 303 528 c 128,-1,15
 328 527 328 527 354 523.5 c 128,-1,16
 380 520 380 520 406 512 c 1,17,18
 409 456 409 456 411.5 427 c 128,-1,19
 414 398 414 398 415.5 382.5 c 128,-1,20
 417 367 417 367 418 358.5 c 128,-1,21
 419 350 419 350 419.5 335.5 c 128,-1,22
 420 321 420 321 420 294 c 128,-1,23
 420 267 420 267 420 215 c 0,24,25
 420 204 420 204 421 185 c 128,-1,26
 422 166 422 166 423.5 147.5 c 128,-1,27
 425 129 425 129 426 115.5 c 128,-1,28
 427 102 427 102 427 101 c 2,29,-1
 385 92 l 1,30,31
 383 132 383 132 381.5 163 c 128,-1,32
 380 194 380 194 379 220 c 128,-1,33
 378 246 378 246 377.5 270.5 c 128,-1,34
 377 295 377 295 375.5 324 c 128,-1,35
 374 353 374 353 372.5 388.5 c 128,-1,36
 371 424 371 424 368 473 c 1,37,38
 364 473 364 473 360 474 c 256,39,40
 356 475 356 475 351.5 475 c 128,-1,41
 347 475 347 475 342 477 c 1,42,43
 342 475 342 475 342.5 473 c 128,-1,44
 343 471 343 471 343 469 c 0,45,46
 346 422 346 422 349 383.5 c 128,-1,47
 352 345 352 345 354 309 c 128,-1,48
 356 273 356 273 357.5 234 c 128,-1,49
 359 195 359 195 359 146 c 0,50,51
 359 143 359 143 359 136 c 128,-1,52
 359 129 359 129 358.5 121.5 c 128,-1,53
 358 114 358 114 358 107 c 128,-1,54
 358 100 358 100 358 98 c 1,55,56
 334 90 334 90 324 100.5 c 128,-1,57
 314 111 314 111 312 132 c 128,-1,58
 310 153 310 153 312 182.5 c 128,-1,59
 314 212 314 212 314 243 c 128,-1,60
 314 274 314 274 308.5 303 c 128,-1,61
 303 332 303 332 285 354 c 1,0,1
EndSplineSet
EndChar

StartChar: periodcentered
Encoding: 183 183 121
Width: 206
VWidth: 840
Flags: HW
LayerCount: 2
Fore
SplineSet
134 238 m 1,0,1
 110 252 110 252 101 269.5 c 128,-1,2
 92 287 92 287 93.5 302.5 c 128,-1,3
 95 318 95 318 104.5 329 c 128,-1,4
 114 340 114 340 127.5 342 c 128,-1,5
 141 344 141 344 156.5 334.5 c 128,-1,6
 172 325 172 325 184 298 c 1,7,8
 184 288 184 288 180 277.5 c 128,-1,9
 176 267 176 267 170 258.5 c 128,-1,10
 164 250 164 250 154.5 244 c 128,-1,11
 145 238 145 238 134 238 c 1,0,1
143 298 m 0,12,13
 139 299 139 299 136.5 295.5 c 128,-1,14
 134 292 134 292 134 287.5 c 128,-1,15
 134 283 134 283 136 280 c 128,-1,16
 138 277 138 277 143 278 c 0,17,18
 152 281 152 281 152 288.5 c 128,-1,19
 152 296 152 296 143 298 c 0,12,13
EndSplineSet
EndChar

StartChar: cedilla
Encoding: 184 184 122
Width: 386
VWidth: 736
Flags: HW
LayerCount: 2
Fore
SplineSet
158 -189 m 1,0,1
 170 -189 170 -189 180.5 -194.5 c 128,-1,2
 191 -200 191 -200 201.5 -206.5 c 128,-1,3
 212 -213 212 -213 222.5 -218.5 c 128,-1,4
 233 -224 233 -224 245 -224 c 1,5,6
 259 -226 259 -226 276 -218 c 128,-1,7
 293 -210 293 -210 306.5 -198 c 128,-1,8
 320 -186 320 -186 326 -171.5 c 128,-1,9
 332 -157 332 -157 323.5 -147 c 128,-1,10
 315 -137 315 -137 288 -133 c 128,-1,11
 261 -129 261 -129 208 -136 c 1,12,13
 198 -136 198 -136 188.5 -129.5 c 128,-1,14
 179 -123 179 -123 171.5 -113 c 128,-1,15
 164 -103 164 -103 159.5 -91.5 c 128,-1,16
 155 -80 155 -80 155 -69 c 1,17,18
 150 -39 150 -39 158.5 -21 c 128,-1,19
 167 -3 167 -3 177 -1.5 c 128,-1,20
 187 0 187 0 191.5 -17 c 128,-1,21
 196 -34 196 -34 182 -75 c 1,22,23
 182 -91 182 -91 194.5 -94.5 c 128,-1,24
 207 -98 207 -98 225.5 -97 c 128,-1,25
 244 -96 244 -96 266 -94.5 c 128,-1,26
 288 -93 288 -93 306.5 -98.5 c 128,-1,27
 325 -104 325 -104 337.5 -120.5 c 128,-1,28
 350 -137 350 -137 350 -171 c 0,29,30
 350 -193 350 -193 340 -210 c 128,-1,31
 330 -227 330 -227 314 -237.5 c 128,-1,32
 298 -248 298 -248 278.5 -251.5 c 128,-1,33
 259 -255 259 -255 240 -253 c 0,34,35
 232 -252 232 -252 218 -248 c 128,-1,36
 204 -244 204 -244 191 -236 c 128,-1,37
 178 -228 178 -228 168 -216.5 c 128,-1,38
 158 -205 158 -205 158 -189 c 1,0,1
EndSplineSet
EndChar

StartChar: guillemotright
Encoding: 187 187 125
Width: 562
VWidth: 856
Flags: HW
LayerCount: 2
Fore
SplineSet
340 357 m 1,0,-1
 110 549 l 1,1,-1
 110 607 l 1,2,3
 118 600 118 600 134 586.5 c 128,-1,4
 150 573 150 573 171 556 c 128,-1,5
 192 539 192 539 215 520 c 128,-1,6
 238 501 238 501 259 484.5 c 128,-1,7
 280 468 280 468 296.5 454 c 128,-1,8
 313 440 313 440 321 434 c 0,9,10
 330 427 330 427 343.5 421.5 c 128,-1,11
 357 416 357 416 369 409 c 128,-1,12
 381 402 381 402 390 392.5 c 128,-1,13
 399 383 399 383 399 368 c 0,14,15
 399 366 399 366 399 362.5 c 128,-1,16
 399 359 399 359 398 357 c 0,17,18
 391 348 391 348 378 328 c 128,-1,19
 365 308 365 308 347.5 284 c 128,-1,20
 330 260 330 260 311.5 232.5 c 128,-1,21
 293 205 293 205 275.5 180.5 c 128,-1,22
 258 156 258 156 244.5 136.5 c 128,-1,23
 231 117 231 117 225 108 c 0,24,25
 217 97 217 97 209 90.5 c 128,-1,26
 201 84 201 84 186 84 c 1,27,-1
 186 127 l 1,28,-1
 340 357 l 1,0,-1
476 376 m 1,29,-1
 246 568 l 1,30,-1
 246 626 l 1,31,32
 254 619 254 619 270 605 c 128,-1,33
 286 591 286 591 307 574.5 c 128,-1,34
 328 558 328 558 351 539 c 128,-1,35
 374 520 374 520 395 503 c 128,-1,36
 416 486 416 486 432.5 472 c 128,-1,37
 449 458 449 458 457 452 c 0,38,39
 466 445 466 445 479 439.5 c 128,-1,40
 492 434 492 434 504.5 427.5 c 128,-1,41
 517 421 517 421 526 411.5 c 128,-1,42
 535 402 535 402 535 386 c 0,43,44
 535 384 535 384 534.5 381 c 128,-1,45
 534 378 534 378 534 376 c 0,46,47
 527 367 527 367 514 347 c 128,-1,48
 501 327 501 327 483.5 302.5 c 128,-1,49
 466 278 466 278 447.5 251 c 128,-1,50
 429 224 429 224 412 199 c 128,-1,51
 395 174 395 174 381.5 154.5 c 128,-1,52
 368 135 368 135 361 126 c 0,53,54
 353 116 353 116 344.5 109 c 128,-1,55
 336 102 336 102 323 102 c 1,56,-1
 323 146 l 1,57,-1
 476 376 l 1,29,-1
EndSplineSet
EndChar

StartChar: Aring
Encoding: 197 197 135
Width: 466
VWidth: 890
Flags: HW
LayerCount: 2
Fore
SplineSet
206 783 m 0,0,1
 206 791 206 791 207 802 c 128,-1,2
 208 813 208 813 212.5 823 c 128,-1,3
 217 833 217 833 225 840.5 c 128,-1,4
 233 848 233 848 246 848 c 0,5,6
 283 848 283 848 301 827.5 c 128,-1,7
 319 807 319 807 319 780 c 0,8,9
 319 772 319 772 316 761.5 c 128,-1,10
 313 751 313 751 306 741 c 0,11,12
 301 733 301 733 293 727 c 1,13,14
 308 722 308 722 320 712 c 0,15,16
 348 691 348 691 368.5 655 c 128,-1,17
 389 619 389 619 403 571.5 c 128,-1,18
 417 524 417 524 426 473 c 128,-1,19
 435 422 435 422 440 369 c 128,-1,20
 445 316 445 316 447 270 c 128,-1,21
 449 224 449 224 449.5 187 c 128,-1,22
 450 150 450 150 450 130 c 1,23,-1
 426 130 l 1,24,-1
 388 340 l 1,25,26
 383 345 383 345 365.5 346 c 128,-1,27
 348 347 348 347 324.5 345.5 c 128,-1,28
 301 344 301 344 273.5 340.5 c 128,-1,29
 246 337 246 337 221.5 335 c 128,-1,30
 197 333 197 333 177 333.5 c 128,-1,31
 157 334 157 334 148 340 c 1,32,-1
 148 130 l 1,33,-1
 97 130 l 1,34,35
 97 133 97 133 97.5 141 c 128,-1,36
 98 149 98 149 98 158 c 128,-1,37
 98 167 98 167 99 175.5 c 128,-1,38
 100 184 100 184 100 187 c 0,39,40
 106 245 106 245 109.5 304.5 c 128,-1,41
 113 364 113 364 118 420 c 128,-1,42
 123 476 123 476 131.5 527 c 128,-1,43
 140 578 140 578 156 619 c 128,-1,44
 172 660 172 660 196 689 c 0,45,46
 213 710 213 710 237 724 c 1,47,-1
 236 725 l 1,48,49
 225 731 225 731 218.5 740.5 c 128,-1,50
 212 750 212 750 209 761.5 c 128,-1,51
 206 773 206 773 206 783 c 0,0,1
272 688 m 1,52,53
 246 688 246 688 228.5 669 c 128,-1,54
 211 650 211 650 200 621 c 128,-1,55
 189 592 189 592 183 556 c 128,-1,56
 177 520 177 520 175 485.5 c 128,-1,57
 173 451 173 451 172.5 421.5 c 128,-1,58
 172 392 172 392 172 376 c 1,59,60
 221 376 221 376 272 383 c 128,-1,61
 323 390 323 390 368 398 c 1,62,63
 369 402 369 402 369.5 411.5 c 128,-1,64
 370 421 370 421 370.5 431.5 c 128,-1,65
 371 442 371 442 371.5 452 c 128,-1,66
 372 462 372 462 372 466 c 0,67,68
 372 498 372 498 368.5 528.5 c 128,-1,69
 365 559 365 559 354.5 587 c 128,-1,70
 344 615 344 615 324 640.5 c 128,-1,71
 304 666 304 666 272 688 c 1,52,53
226 783 m 1,72,73
 236 757 236 757 246 749.5 c 128,-1,74
 256 742 256 742 265 745.5 c 128,-1,75
 274 749 274 749 280.5 760.5 c 128,-1,76
 287 772 287 772 291 785 c 1,77,78
 288 806 288 806 275.5 816 c 128,-1,79
 263 826 263 826 251 825.5 c 128,-1,80
 239 825 239 825 230.5 814.5 c 128,-1,81
 222 804 222 804 226 783 c 1,72,73
EndSplineSet
EndChar

StartChar: AE
Encoding: 198 198 136
Width: 926
VWidth: 873
Flags: HW
LayerCount: 2
Fore
SplineSet
430 644 m 1,0,1
 446 667 446 667 472.5 683.5 c 128,-1,2
 499 700 499 700 531.5 711 c 128,-1,3
 564 722 564 722 601.5 728 c 128,-1,4
 639 734 639 734 675.5 737 c 128,-1,5
 712 740 712 740 745.5 741 c 128,-1,6
 779 742 779 742 805 742 c 0,7,8
 807 742 807 742 814 741.5 c 128,-1,9
 821 741 821 741 829 740.5 c 128,-1,10
 837 740 837 740 843.5 740 c 128,-1,11
 850 740 850 740 853 740 c 1,12,13
 857 718 857 718 848.5 709.5 c 128,-1,14
 840 701 840 701 826.5 699.5 c 128,-1,15
 813 698 813 698 798.5 700.5 c 128,-1,16
 784 703 784 703 776 701 c 0,17,18
 766 699 766 699 745 695 c 128,-1,19
 724 691 724 691 697.5 685.5 c 128,-1,20
 671 680 671 680 641.5 673.5 c 128,-1,21
 612 667 612 667 585.5 661.5 c 128,-1,22
 559 656 559 656 538 651 c 0,23,24
 518 646 518 646 508 644 c 1,25,26
 492 639 492 639 489.5 629.5 c 128,-1,27
 487 620 487 620 487 608 c 0,28,29
 487 588 487 588 489.5 561.5 c 128,-1,30
 492 535 492 535 495.5 509.5 c 128,-1,31
 499 484 499 484 502.5 463 c 128,-1,32
 506 442 506 442 508 432 c 1,33,34
 512 431 512 431 522 431 c 2,35,-1
 537 431 l 2,36,37
 560 431 560 431 582 435 c 128,-1,38
 604 439 604 439 626 444 c 128,-1,39
 648 449 648 449 671 452.5 c 128,-1,40
 694 456 694 456 718 456 c 1,41,-1
 718 419 l 1,42,43
 708 419 708 419 690 417.5 c 128,-1,44
 672 416 672 416 650.5 412 c 128,-1,45
 629 408 629 408 607 403.5 c 128,-1,46
 585 399 585 399 567 394 c 128,-1,47
 549 389 549 389 537.5 384 c 128,-1,48
 526 379 526 379 526 374 c 2,49,-1
 526 166 l 1,50,51
 573 166 573 166 619.5 169 c 128,-1,52
 666 172 666 172 713 175.5 c 128,-1,53
 760 179 760 179 807 182 c 128,-1,54
 854 185 854 185 901 185 c 1,55,56
 901 172 901 172 893.5 165 c 128,-1,57
 886 158 886 158 875 153.5 c 128,-1,58
 864 149 864 149 852 147 c 128,-1,59
 840 145 840 145 834 144 c 0,60,61
 830 143 830 143 809 141 c 128,-1,62
 788 139 788 139 757 135 c 128,-1,63
 726 131 726 131 688 127 c 128,-1,64
 650 123 650 123 613 119 c 128,-1,65
 576 115 576 115 543 111.5 c 128,-1,66
 510 108 510 108 488 106 c 0,67,68
 485 105 485 105 479 105 c 1,69,-1
 479 142 l 1,70,-1
 444 336 l 1,71,72
 439 341 439 341 421.5 342 c 128,-1,73
 404 343 404 343 380.5 341 c 128,-1,74
 357 339 357 339 329.5 335.5 c 128,-1,75
 302 332 302 332 277 330.5 c 128,-1,76
 252 329 252 329 232.5 329.5 c 128,-1,77
 213 330 213 330 204 336 c 1,78,-1
 204 125 l 1,79,-1
 153 125 l 1,80,81
 153 128 153 128 153.5 136.5 c 128,-1,82
 154 145 154 145 154 154 c 128,-1,83
 154 163 154 163 155 171 c 128,-1,84
 156 179 156 179 156 182 c 0,85,86
 162 240 162 240 165 299.5 c 128,-1,87
 168 359 168 359 173.5 415 c 128,-1,88
 179 471 179 471 187.5 522 c 128,-1,89
 196 573 196 573 212 614.5 c 128,-1,90
 228 656 228 656 252 685.5 c 128,-1,91
 276 715 276 715 312 729 c 1,92,93
 349 729 349 729 376.5 707.5 c 128,-1,94
 404 686 404 686 424 650 c 1,95,-1
 431 638 l 1,96,97
 431 640 431 640 430 644 c 1,0,1
328 683 m 1,98,99
 302 683 302 683 284.5 664.5 c 128,-1,100
 267 646 267 646 256 616.5 c 128,-1,101
 245 587 245 587 239 551 c 128,-1,102
 233 515 233 515 230.5 480.5 c 128,-1,103
 228 446 228 446 228 416.5 c 128,-1,104
 228 387 228 387 228 371 c 1,105,106
 277 371 277 371 327.5 378.5 c 128,-1,107
 378 386 378 386 424 394 c 1,108,109
 425 398 425 398 425.5 407 c 128,-1,110
 426 416 426 416 426.5 427 c 128,-1,111
 427 438 427 438 427.5 448 c 128,-1,112
 428 458 428 458 428 461 c 0,113,114
 428 493 428 493 424.5 523.5 c 128,-1,115
 421 554 421 554 410.5 582.5 c 128,-1,116
 400 611 400 611 380 636 c 128,-1,117
 360 661 360 661 328 683 c 1,98,99
EndSplineSet
EndChar

StartChar: Ccedilla
Encoding: 199 199 137
Width: 508
VWidth: 831
Flags: HW
LayerCount: 2
Fore
SplineSet
238 -109 m 1,0,1
 250 -109 250 -109 260.5 -114 c 128,-1,2
 271 -119 271 -119 281.5 -126 c 128,-1,3
 292 -133 292 -133 302.5 -138 c 128,-1,4
 313 -143 313 -143 325 -143 c 1,5,6
 339 -145 339 -145 356 -137.5 c 128,-1,7
 373 -130 373 -130 386.5 -117.5 c 128,-1,8
 400 -105 400 -105 406 -90.5 c 128,-1,9
 412 -76 412 -76 403 -66 c 128,-1,10
 394 -56 394 -56 367 -52 c 128,-1,11
 340 -48 340 -48 288 -55 c 1,12,13
 278 -55 278 -55 268.5 -49 c 128,-1,14
 259 -43 259 -43 251.5 -32.5 c 128,-1,15
 244 -22 244 -22 239.5 -10.5 c 128,-1,16
 235 1 235 1 235 11 c 1,17,18
 230 41 230 41 238 60 c 0,19,20
 240 62 240 62 240 64 c 1,21,22
 204 68 204 68 178 86 c 0,23,24
 143 110 143 110 122 147.5 c 128,-1,25
 101 185 101 185 93 231.5 c 128,-1,26
 85 278 85 278 85 323 c 0,27,28
 85 354 85 354 91.5 392.5 c 128,-1,29
 98 431 98 431 111 470 c 128,-1,30
 124 509 124 509 143.5 546.5 c 128,-1,31
 163 584 163 584 188.5 614 c 128,-1,32
 214 644 214 644 246.5 661.5 c 128,-1,33
 279 679 279 679 318 679 c 0,34,35
 346 679 346 679 365.5 668 c 128,-1,36
 385 657 385 657 397 639 c 128,-1,37
 409 621 409 621 414.5 598.5 c 128,-1,38
 420 576 420 576 420 554 c 1,39,40
 398 554 398 554 387 567.5 c 128,-1,41
 376 581 376 581 366.5 597 c 128,-1,42
 357 613 357 613 344.5 626.5 c 128,-1,43
 332 640 332 640 307 640 c 0,44,45
 273 640 273 640 248 622.5 c 128,-1,46
 223 605 223 605 204 576.5 c 128,-1,47
 185 548 185 548 172.5 512 c 128,-1,48
 160 476 160 476 152.5 440 c 128,-1,49
 145 404 145 404 142 370 c 128,-1,50
 139 336 139 336 139 313 c 1,51,52
 135 279 135 279 138.5 242.5 c 128,-1,53
 142 206 142 206 155 176 c 128,-1,54
 168 146 168 146 193 125 c 128,-1,55
 218 104 218 104 259 101 c 1,56,57
 285 101 285 101 317 109.5 c 128,-1,58
 349 118 349 118 380.5 129.5 c 128,-1,59
 412 141 412 141 441 154.5 c 128,-1,60
 470 168 470 168 490 179 c 1,61,-1
 490 140 l 1,62,63
 489 139 489 139 477.5 134.5 c 128,-1,64
 466 130 466 130 447.5 123 c 128,-1,65
 429 116 429 116 406 108 c 2,66,-1
 359 92 l 2,67,68
 336 84 336 84 314.5 76 c 128,-1,69
 293 68 293 68 278 63 c 1,70,-1
 274 63 l 1,71,72
 272 62 272 62 271 63 c 1,73,74
 275 45 275 45 262 5 c 1,75,76
 262 -11 262 -11 274 -14 c 128,-1,77
 286 -17 286 -17 305 -16 c 128,-1,78
 324 -15 324 -15 345.5 -13.5 c 128,-1,79
 367 -12 367 -12 386 -17.5 c 128,-1,80
 405 -23 405 -23 417.5 -39.5 c 128,-1,81
 430 -56 430 -56 430 -91 c 0,82,83
 430 -113 430 -113 419.5 -129.5 c 128,-1,84
 409 -146 409 -146 393.5 -156.5 c 128,-1,85
 378 -167 378 -167 358.5 -171 c 128,-1,86
 339 -175 339 -175 319 -172 c 0,87,88
 311 -171 311 -171 297 -167 c 128,-1,89
 283 -163 283 -163 270 -155.5 c 128,-1,90
 257 -148 257 -148 247.5 -136.5 c 128,-1,91
 238 -125 238 -125 238 -109 c 1,0,1
EndSplineSet
EndChar

StartChar: Eth
Encoding: 208 208 146
Width: 624
VWidth: 860
Flags: HW
LayerCount: 2
Fore
SplineSet
108 315 m 2,0,1
 109 316 109 316 109.5 316.5 c 128,-1,2
 110 317 110 317 114 318 c 128,-1,3
 118 319 118 319 125.5 320.5 c 0,4,5
 134 322 134 322 148 324 c 1,6,-1
 125 592 l 1,7,8
 123 594 123 594 120 599 c 128,-1,9
 117 604 117 604 114 610.5 c 128,-1,10
 111 617 111 617 108.5 622.5 c 128,-1,11
 106 628 106 628 106 630 c 0,12,13
 106 640 106 640 114 645 c 128,-1,14
 122 650 122 650 132 651 c 128,-1,15
 142 652 142 652 151.5 651.5 c 128,-1,16
 161 651 161 651 163 651 c 256,17,18
 165 651 165 651 171 651 c 128,-1,19
 177 651 177 651 183.5 650.5 c 128,-1,20
 190 650 190 650 195 649.5 c 128,-1,21
 200 649 200 649 202 649 c 1,22,23
 234 637 234 637 277 621 c 128,-1,24
 320 605 320 605 365 584 c 128,-1,25
 410 563 410 563 453 536.5 c 128,-1,26
 496 510 496 510 530 476.5 c 128,-1,27
 564 443 564 443 585 403 c 128,-1,28
 606 363 606 363 606 314 c 0,29,30
 606 272 606 272 590 238.5 c 128,-1,31
 574 205 574 205 547.5 180.5 c 128,-1,32
 521 156 521 156 486 138.5 c 128,-1,33
 451 121 451 121 414.5 110 c 128,-1,34
 378 99 378 99 341 94.5 c 128,-1,35
 304 90 304 90 272 90 c 0,36,37
 265 90 265 90 248 90.5 c 128,-1,38
 231 91 231 91 213 92 c 128,-1,39
 195 93 195 93 180.5 93.5 c 128,-1,40
 166 94 166 94 165 94 c 2,41,-1
 163 131 l 1,42,-1
 151 276 l 1,43,-1
 146 276 l 2,44,45
 144 276 144 276 136 276 c 128,-1,46
 128 276 128 276 124 276 c 0,47,48
 112 276 112 276 103 277.5 c 128,-1,49
 94 279 94 279 88 295 c 1,50,-1
 108 315 l 2,0,1
182 597 m 1,51,52
 182 595 182 595 182 588.5 c 128,-1,53
 182 582 182 582 182.5 575 c 128,-1,54
 183 568 183 568 183 561.5 c 128,-1,55
 183 555 183 555 183 553 c 0,56,57
 184 540 184 540 184.5 517 c 128,-1,58
 185 494 185 494 186.5 464 c 128,-1,59
 188 434 188 434 189.5 399 c 0,60,61
 190 364 190 364 192 329 c 1,62,-1
 227 332 l 1,63,64
 235 336 235 336 251.5 336 c 128,-1,65
 268 336 268 336 280.5 332 c 128,-1,66
 293 328 293 328 296.5 318.5 c 128,-1,67
 300 309 300 309 285 294 c 1,68,69
 269 292 269 292 256.5 290.5 c 128,-1,70
 244 289 244 289 234 287.5 c 128,-1,71
 224 286 224 286 214.5 284.5 c 128,-1,72
 205 283 205 283 195 282 c 1,73,74
 197 232 197 232 199 191 c 128,-1,75
 201 150 201 150 202 131 c 1,76,77
 207 131 207 131 220.5 130 c 128,-1,78
 234 129 234 129 249.5 129 c 128,-1,79
 265 129 265 129 278.5 128.5 c 128,-1,80
 292 128 292 128 298 128 c 0,81,82
 344 128 344 128 389 139 c 128,-1,83
 434 150 434 150 469.5 174 c 128,-1,84
 505 198 505 198 527.5 235.5 c 128,-1,85
 550 273 550 273 550 326 c 0,86,87
 550 365 550 365 532 400 c 128,-1,88
 514 435 514 435 484.5 465.5 c 128,-1,89
 455 496 455 496 417 520 c 128,-1,90
 379 544 379 544 338.5 561.5 c 128,-1,91
 298 579 298 579 257 588 c 128,-1,92
 216 597 216 597 182 597 c 1,51,52
EndSplineSet
EndChar

StartChar: multiply
Encoding: 215 215 153
Width: 333
VWidth: 858
Flags: HW
LayerCount: 2
Fore
SplineSet
106 432 m 1,0,-1
 152 462 l 1,1,-1
 209 398 l 1,2,-1
 264 497 l 1,3,-1
 303 468 l 1,4,-1
 246 350 l 1,5,-1
 312 273 l 1,6,-1
 274 254 l 1,7,-1
 218 322 l 1,8,9
 208 305 208 305 203 293 c 128,-1,10
 198 281 198 281 194 270.5 c 128,-1,11
 190 260 190 260 187 249.5 c 128,-1,12
 184 239 184 239 177 225 c 1,13,-1
 137 236 l 1,14,-1
 183 360 l 1,15,-1
 106 432 l 1,0,-1
EndSplineSet
EndChar

StartChar: Oslash
Encoding: 216 216 154
Width: 513
VWidth: 876
Flags: HW
LayerCount: 2
Fore
SplineSet
367 750 m 2,0,1
 369 757 369 757 373 766.5 c 128,-1,2
 377 776 377 776 383.5 779 c 128,-1,3
 390 782 390 782 399 776.5 c 128,-1,4
 408 771 408 771 421 750 c 1,5,-1
 404 701 l 1,6,7
 408 696 408 696 411 691 c 0,8,9
 431 659 431 659 444.5 619 c 128,-1,10
 458 579 458 579 466 538.5 c 128,-1,11
 474 498 474 498 477.5 460.5 c 128,-1,12
 481 423 481 423 481 396 c 1,13,14
 477 337 477 337 464 287.5 c 128,-1,15
 451 238 451 238 428.5 200.5 c 128,-1,16
 406 163 406 163 372.5 139 c 0,17,18
 338 115 338 115 292 107 c 1,19,20
 247 107 247 107 215 123 c 2,21,-1
 208 127 l 1,22,-1
 194 86 l 1,23,-1
 151 122 l 1,24,-1
 164 161 l 1,25,-1
 160 165 l 2,26,27
 138 191 138 191 124 225.5 c 128,-1,28
 110 260 110 260 102 296.5 c 128,-1,29
 94 333 94 333 91.5 370.5 c 128,-1,30
 89 408 89 408 89 440 c 0,31,32
 89 473 89 473 93.5 510 c 128,-1,33
 98 547 98 547 108.5 582.5 c 128,-1,34
 119 618 119 618 135.5 650.5 c 128,-1,35
 152 683 152 683 176 707.5 c 128,-1,36
 200 732 200 732 231 746.5 c 128,-1,37
 262 761 262 761 302 761 c 0,38,39
 336 761 336 761 364 742 c 1,40,-1
 367 750 l 2,0,1
128 440 m 256,41,42
 128 416 128 416 129 386 c 128,-1,43
 130 356 130 356 134.5 325.5 c 128,-1,44
 139 295 139 295 147.5 265.5 c 128,-1,45
 156 236 156 236 172 214 c 0,46,47
 174 209 174 209 178 204 c 1,48,-1
 352 707 l 1,49,50
 332 723 332 723 303 724 c 0,51,52
 272 724 272 724 247 709.5 c 128,-1,53
 222 695 222 695 202.5 671.5 c 128,-1,54
 183 648 183 648 168.5 618 c 128,-1,55
 154 588 154 588 145 556.5 c 128,-1,56
 136 525 136 525 132 494.5 c 128,-1,57
 128 464 128 464 128 440 c 256,41,42
268 164 m 1,58,59
 315 160 315 160 346 175.5 c 128,-1,60
 377 191 377 191 396.5 221.5 c 128,-1,61
 416 252 416 252 425.5 296.5 c 128,-1,62
 435 341 435 341 441 396 c 1,63,64
 441 418 441 418 439 451 c 128,-1,65
 437 484 437 484 432 520.5 c 128,-1,66
 427 557 427 557 417 593 c 0,67,68
 408 629 408 629 392 659 c 1,69,-1
 390 662 l 1,70,-1
 223 171 l 1,71,72
 242 164 242 164 268 164 c 1,58,59
EndSplineSet
EndChar

StartChar: Thorn
Encoding: 222 222 160
Width: 401
VWidth: 861
Flags: HW
LayerCount: 2
Fore
SplineSet
116 657 m 1,0,1
 115 625 115 625 115.5 608.5 c 128,-1,2
 116 592 116 592 116 583 c 128,-1,3
 116 574 116 574 116 570 c 128,-1,4
 116 566 116 566 116 559 c 128,-1,5
 116 552 116 552 115 538.5 c 128,-1,6
 114 525 114 525 113 499 c 1,7,8
 129 513 129 513 142.5 523.5 c 128,-1,9
 156 534 156 534 169 542 c 128,-1,10
 182 550 182 550 196 554 c 128,-1,11
 210 558 210 558 227 558 c 0,12,13
 264 558 264 558 293.5 540 c 128,-1,14
 323 522 323 522 344 494 c 128,-1,15
 365 466 365 466 376.5 431.5 c 128,-1,16
 388 397 388 397 388 364 c 1,17,18
 386 308 386 308 365.5 274 c 128,-1,19
 345 240 345 240 310 222.5 c 128,-1,20
 275 205 275 205 229.5 201.5 c 128,-1,21
 184 198 184 198 132 202 c 1,22,-1
 132 249 l 1,23,24
 149 233 149 233 164.5 230.5 c 128,-1,25
 180 228 180 228 200 228 c 0,26,27
 233 228 233 228 260 238 c 128,-1,28
 287 248 287 248 306.5 267 c 128,-1,29
 326 286 326 286 337 312 c 128,-1,30
 348 338 348 338 348 368 c 0,31,32
 348 395 348 395 345 416 c 128,-1,33
 342 437 342 437 331.5 454.5 c 128,-1,34
 321 472 321 472 301 487 c 128,-1,35
 281 502 281 502 247 518 c 0,36,37
 245 519 245 519 237.5 519.5 c 128,-1,38
 230 520 230 520 228 520 c 0,39,40
 212 520 212 520 196 510.5 c 128,-1,41
 180 501 180 501 167 486.5 c 128,-1,42
 154 472 154 472 145 454.5 c 0,43,44
 136 438 136 438 132 422 c 0,45,46
 130 414 130 414 128.5 388 c 128,-1,47
 127 362 127 362 126 327.5 c 128,-1,48
 125 293 125 293 124 254 c 128,-1,49
 123 215 123 215 121.5 180.5 c 128,-1,50
 120 146 120 146 119 120.5 c 128,-1,51
 118 95 118 95 118 87 c 1,52,-1
 86 93 l 1,53,-1
 78 657 l 1,54,-1
 116 657 l 1,0,1
EndSplineSet
EndChar

StartChar: germandbls
Encoding: 223 223 161
Width: 527
VWidth: 836
Flags: HW
LayerCount: 2
Fore
SplineSet
155 -59 m 2,0,1
 152 -59 152 -59 147 -31.5 c 128,-1,2
 142 -4 142 -4 136 41.5 c 128,-1,3
 130 87 130 87 124.5 145.5 c 128,-1,4
 119 204 119 204 117 265 c 128,-1,5
 115 326 115 326 117 385.5 c 128,-1,6
 119 445 119 445 127.5 492.5 c 128,-1,7
 136 540 136 540 151 570 c 128,-1,8
 166 600 166 600 192 604 c 0,9,10
 226 608 226 608 263.5 609 c 128,-1,11
 301 610 301 610 332.5 601 c 128,-1,12
 364 592 364 592 384 571 c 128,-1,13
 404 550 404 550 404 510 c 0,14,15
 404 490 404 490 399.5 470.5 c 128,-1,16
 395 451 395 451 383.5 434.5 c 128,-1,17
 372 418 372 418 352 404.5 c 128,-1,18
 332 391 332 391 301 382 c 1,19,20
 342 384 342 384 378.5 374 c 128,-1,21
 415 364 415 364 442 342.5 c 128,-1,22
 469 321 469 321 484.5 290.5 c 128,-1,23
 500 260 500 260 500 223 c 0,24,25
 500 179 500 179 474 148.5 c 128,-1,26
 448 118 448 118 408 98.5 c 128,-1,27
 368 79 368 79 319.5 69 c 128,-1,28
 271 59 271 59 226 58 c 1,29,-1
 230 104 l 1,30,31
 264 107 264 107 305 113 c 128,-1,32
 346 119 346 119 381 132 c 128,-1,33
 416 145 416 145 439.5 167.5 c 128,-1,34
 463 190 463 190 463 227 c 256,35,36
 463 264 463 264 448 286.5 c 128,-1,37
 433 309 433 309 410.5 321.5 c 128,-1,38
 388 334 388 334 359.5 338.5 c 128,-1,39
 331 343 331 343 303 344.5 c 128,-1,40
 275 346 275 346 251 346 c 128,-1,41
 227 346 227 346 213 349 c 1,42,-1
 220 406 l 1,43,44
 246 409 246 409 272 415 c 128,-1,45
 298 421 298 421 319 432 c 128,-1,46
 340 443 340 443 353 462 c 128,-1,47
 366 481 366 481 366 511 c 0,48,49
 366 515 366 515 366.5 522 c 128,-1,50
 367 529 367 529 364 536.5 c 128,-1,51
 361 544 361 544 351.5 551.5 c 128,-1,52
 342 559 342 559 322 563.5 c 128,-1,53
 302 568 302 568 270 569 c 128,-1,54
 238 570 238 570 188 565 c 1,55,56
 185 555 185 555 180 520.5 c 128,-1,57
 175 486 175 486 171.5 434.5 c 128,-1,58
 168 383 168 383 167 320.5 c 128,-1,59
 166 258 166 258 169 192.5 c 128,-1,60
 172 127 172 127 181 63 c 128,-1,61
 190 -1 190 -1 208 -53 c 1,62,-1
 155 -59 l 2,0,1
EndSplineSet
EndChar

